STARTFONT 2.3
FONT -FontForge-Lobster-Book-R-Normal--24-240-72-72-P-140-ISO10646-1
SIZE 24 72 72  2
FONTBOUNDINGBOX 48 36 -11 -12
COMMENT "Generated by fontforge, http://fontforge.sourceforge.net"
COMMENT "Copyright 2010 The Lobster Project Authors (https://github.com/impallari/The-Lobster-Font), with Reserved Font Name "Lobster"."
STARTPROPERTIES 41
FOUNDRY "FontForge"
FAMILY_NAME "Lobster"
WEIGHT_NAME "Book"
SLANT "R"
SETWIDTH_NAME "Normal"
ADD_STYLE_NAME ""
PIXEL_SIZE 24
POINT_SIZE 240
RESOLUTION_X 72
RESOLUTION_Y 72
SPACING "P"
AVERAGE_WIDTH 140
CHARSET_REGISTRY "ISO10646"
CHARSET_ENCODING "1"
FONTNAME_REGISTRY ""
CHARSET_COLLECTIONS "ISO8859-2 ISO8859-5 ISO8859-9 ISO8859-4 ISO10646-1"
BITS_PER_PIXEL 2
FONT_NAME "Lobster-Regular"
FACE_NAME "Lobster Regular"
COPYRIGHT "Copyright 2010 The Lobster Project Authors (https://github.com/impallari/The-Lobster-Font), with Reserved Font Name "Lobster"."
FONT_VERSION "2.100"
FONT_ASCENT 19
FONT_DESCENT 5
UNDERLINE_POSITION -2
UNDERLINE_THICKNESS 2
X_HEIGHT 12
CAP_HEIGHT 17
DEFAULT_CHAR 1
RAW_ASCENT 800
RAW_DESCENT 200
NORM_SPACE 5
RELATIVE_WEIGHT 40
RELATIVE_SETWIDTH 50
SUPERSCRIPT_X 0
SUPERSCRIPT_Y 8
SUPERSCRIPT_SIZE 14
SUBSCRIPT_X 0
SUBSCRIPT_Y 1
SUBSCRIPT_SIZE 14
AVG_LOWERCASE_WIDTH 112
AVG_UPPERCASE_WIDTH 148
ENDPROPERTIES
CHARS 1148
STARTCHAR NULL.dup1
ENCODING 0
SWIDTH 600 0
DWIDTH 14 0
BBX 1 1 0 0
BITMAP
00
ENDCHAR
STARTCHAR nonmarkingreturn
ENCODING 13
SWIDTH 600 0
DWIDTH 14 0
BBX 1 1 0 0
BITMAP
00
ENDCHAR
STARTCHAR space
ENCODING 32
SWIDTH 217 0
DWIDTH 5 0
BBX 1 1 0 0
BITMAP
00
ENDCHAR
STARTCHAR exclam
ENCODING 33
SWIDTH 257 0
DWIDTH 6 0
BBX 7 18 1 0
BITMAP
0168
03F8
03F4
07F0
07E0
0BD0
0BC0
0F80
0F80
1F40
1F00
1E00
1900
0000
7800
FD00
FD00
7800
ENDCHAR
STARTCHAR quotedbl
ENCODING 34
SWIDTH 353 0
DWIDTH 8 0
BBX 8 5 2 13
BITMAP
1F2E
2D3D
7C78
B4B4
F0E0
ENDCHAR
STARTCHAR numbersign
ENCODING 35
SWIDTH 659 0
DWIDTH 16 0
BBX 13 16 1 1
BITMAP
00140900
00381E00
00781D00
00742D00
00B02C00
1FFFFFC0
16E5B940
01E07400
01D0B400
02D0B000
7FFFFF00
1795E500
0741D000
0B42C000
0B03C000
05014000
ENDCHAR
STARTCHAR dollar
ENCODING 36
SWIDTH 548 0
DWIDTH 13 0
BBX 13 24 0 -3
BITMAP
00003400
00003000
00007000
001BF900
00BDEF40
01F8CB80
02F5CB80
02FA9F40
02FF4000
00FF4000
007FC000
002FE000
000FF800
000FFC00
1F4DFD00
7F9CFE00
BC28BD00
BC34BC00
7D31F800
2FBBE000
06FE4000
00900000
00D00000
01C00000
ENDCHAR
STARTCHAR percent
ENCODING 37
SWIDTH 796 0
DWIDTH 19 0
BBX 18 18 1 0
BITMAP
02F8007400
0FAD00B000
2E1E01D000
7C1E038000
B81E074000
B82E0E0000
B43D2D0000
B47C380000
B9F4B02F80
3FD1D0FAD0
0502C2E1E0
000747C1F0
000E0B81E0
001D0B82E0
00380B43D0
00B40B4780
00E007EF00
02C002F800
ENDCHAR
STARTCHAR ampersand
ENCODING 38
SWIDTH 682 0
DWIDTH 16 0
BBX 16 18 0 0
BITMAP
000BF800
003FAE00
00FD0F40
01F80F40
02F42F00
02F40500
01FC0000
00BE4001
01FD005E
0BF42FFE
2FD0BFFC
3FC0FA90
7F808240
BF800700
BF801E00
7FE5B800
2FFFE000
06FE4000
ENDCHAR
STARTCHAR quotesingle
ENCODING 39
SWIDTH 196 0
DWIDTH 5 0
BBX 4 6 2 12
BITMAP
1F
2E
3C
78
B0
50
ENDCHAR
STARTCHAR parenleft
ENCODING 40
SWIDTH 437 0
DWIDTH 10 0
BBX 10 24 3 -6
BITMAP
0000A0
000780
001E00
007800
01F000
03E000
07C000
0F8000
1F4000
2F0000
3F0000
7E0000
7E0000
7D0000
7D0000
7D0000
7D0000
3D0000
2E0000
1E0000
0F0000
074000
02C000
004000
ENDCHAR
STARTCHAR parenright
ENCODING 41
SWIDTH 413 0
DWIDTH 10 0
BBX 10 24 -2 -6
BITMAP
002400
001D00
000E00
000B40
000B80
0007C0
0007D0
0007D0
0007D0
0007D0
0007D0
0007D0
000BD0
000FC0
000F80
001F40
002E00
007D00
00B800
01E000
07C000
0E0000
780000
500000
ENDCHAR
STARTCHAR asterisk
ENCODING 42
SWIDTH 515 0
DWIDTH 12 0
BBX 9 9 2 9
BITMAP
02D000
13D000
B6DF00
7FFE40
1BF400
BFFE00
B6DF00
03D100
03C000
ENDCHAR
STARTCHAR plus
ENCODING 43
SWIDTH 442 0
DWIDTH 11 0
BBX 10 9 0 3
BITMAP
007800
007400
00B400
7FFFD0
BFFFD0
01E000
02D000
02C000
014000
ENDCHAR
STARTCHAR comma
ENCODING 44
SWIDTH 216 0
DWIDTH 5 0
BBX 4 7 0 -3
BITMAP
2E
7F
7F
2E
0C
24
10
ENDCHAR
STARTCHAR hyphen
ENCODING 45
SWIDTH 290 0
DWIDTH 7 0
BBX 6 2 0 5
BITMAP
7FE0
1540
ENDCHAR
STARTCHAR period
ENCODING 46
SWIDTH 263 0
DWIDTH 6 0
BBX 4 4 1 0
BITMAP
B8
FD
FD
B8
ENDCHAR
STARTCHAR slash
ENCODING 47
SWIDTH 311 0
DWIDTH 7 0
BBX 7 24 0 -6
BITMAP
002C
0038
0078
0074
00B0
00B0
00E0
01D0
01D0
02C0
03C0
0380
0740
0B40
0B00
0E00
0E00
1D00
2C00
2C00
3800
7800
7400
B000
ENDCHAR
STARTCHAR zero
ENCODING 48
SWIDTH 546 0
DWIDTH 13 0
BBX 14 18 0 0
BITMAP
000BF800
007FBF00
01FC1F80
07F40FC0
0BF00FD0
1FD00FD0
2FC00FD0
3F800FC0
3F801FC0
7F401F80
7F402F80
7F403F40
7F007F00
7F00BE00
7F40FC00
3F42F400
1FEBD000
06FE0000
ENDCHAR
STARTCHAR one
ENCODING 49
SWIDTH 317 0
DWIDTH 8 0
BBX 8 18 0 0
BITMAP
0006
05BD
1FFD
16FC
02F8
02F8
03F4
07F4
07F0
0BE0
0FE0
0FD0
1FC0
2FC0
2F80
3F40
7F40
7F00
ENDCHAR
STARTCHAR two
ENCODING 50
SWIDTH 492 0
DWIDTH 12 0
BBX 13 18 -1 0
BITMAP
002FE400
01FAFD00
03D0BF00
07C07F40
07D07F40
03E07F00
0190BE00
0001FC00
0003F400
000FD000
003E0000
00F80000
03D00000
0F400000
2F650600
3FFFFE00
7FFFFD00
245BF400
ENDCHAR
STARTCHAR three
ENCODING 51
SWIDTH 514 0
DWIDTH 12 0
BBX 12 18 0 0
BITMAP
006FE0
01FAFD
07D07E
07D03F
07D07E
02D0BD
0001F8
000BE0
002FD0
0007F8
0002FD
2F81FE
BE40FE
BC00FD
BC01FC
BC03F4
7FAFD0
0AFA00
ENDCHAR
STARTCHAR four
ENCODING 52
SWIDTH 476 0
DWIDTH 11 0
BBX 12 18 0 0
BITMAP
002E00
003F40
003F40
003F40
007E14
00BC74
01F4B4
03D0F0
0B81F0
1D02E5
3EFBFD
BFFFFD
956FF4
000F80
001F80
002F40
003F00
007F00
ENDCHAR
STARTCHAR five
ENCODING 53
SWIDTH 517 0
DWIDTH 12 0
BBX 12 18 0 0
BITMAP
004006
01FFFF
02FFFE
02D6A8
03C000
078000
078000
0BBFE0
0E5BF8
0402FD
0000FD
1B80FE
3F80FD
7D01FD
BC02FC
7D07F4
3FAFD0
0BF900
ENDCHAR
STARTCHAR six
ENCODING 54
SWIDTH 500 0
DWIDTH 12 0
BBX 13 18 0 0
BITMAP
000BF800
007FAF00
01F80F40
07F01F00
0FE01900
1FC00000
2F800000
3F5FE000
7FA6FC00
7F80BD00
BF00BE00
BF007E00
BF00BD00
7F00BC00
7F00F800
3F42F000
1FEBC000
06F90000
ENDCHAR
STARTCHAR seven
ENCODING 55
SWIDTH 464 0
DWIDTH 11 0
BBX 12 18 1 0
BITMAP
1BE405
7FFFFD
BFFFF8
A055F0
0002D0
000B80
001F00
007D00
00F800
02F400
07E000
0FD000
2FC000
3F8000
3F8000
3F4000
3F8000
1F8000
ENDCHAR
STARTCHAR eight
ENCODING 56
SWIDTH 499 0
DWIDTH 12 0
BBX 12 18 0 0
BITMAP
002FE4
01FEBD
03F02F
07E02F
0BF02E
07F47D
03FDF4
01FFD0
00BFD0
07EFF4
2F4BFC
7E02FD
FD01FE
FC00FD
FD00FD
BE02F8
2FABE0
06FE40
ENDCHAR
STARTCHAR nine
ENCODING 57
SWIDTH 489 0
DWIDTH 12 0
BBX 12 18 0 0
BITMAP
006FD0
02FAF8
0BC0FC
2F40BD
3F00BE
7E00BE
7E00FE
7F01FE
2F56FE
0FFDFE
0151FD
0002FC
0003F8
3C07F0
B80BE0
B82F80
7EBE00
1BE400
ENDCHAR
STARTCHAR colon
ENCODING 58
SWIDTH 267 0
DWIDTH 6 0
BBX 5 10 1 1
BITMAP
1F40
2FC0
2FC0
1F40
0000
0000
7D00
FE00
FE00
7D00
ENDCHAR
STARTCHAR semicolon
ENCODING 59
SWIDTH 276 0
DWIDTH 7 0
BBX 5 13 1 -3
BITMAP
0B40
2FC0
2FC0
0B40
0000
0000
7D00
BE00
BE00
3D00
2800
6000
4000
ENDCHAR
STARTCHAR less
ENCODING 60
SWIDTH 358 0
DWIDTH 9 0
BBX 9 9 0 2
BITMAP
000140
001B40
01BE00
1BE000
BE0000
7E4000
0BE400
01BD00
001800
ENDCHAR
STARTCHAR equal
ENCODING 61
SWIDTH 515 0
DWIDTH 12 0
BBX 10 8 1 2
BITMAP
2FFFF0
3FFFF0
3FFFE0
000000
000000
BFFFC0
FFFFC0
FFFF80
ENDCHAR
STARTCHAR greater
ENCODING 62
SWIDTH 362 0
DWIDTH 9 0
BBX 9 9 0 2
BITMAP
140000
2E4000
1BE000
01BE00
002F40
02FD00
1FD000
BD0000
900000
ENDCHAR
STARTCHAR question
ENCODING 63
SWIDTH 441 0
DWIDTH 11 0
BBX 10 18 1 0
BITMAP
06FD00
2EBF80
780FD0
B80FD0
BC0FC0
7D2F40
007E00
01F400
03D000
0B4000
0E0000
1D0000
040000
000000
7D0000
BF0000
BE0000
7D0000
ENDCHAR
STARTCHAR at
ENCODING 64
SWIDTH 688 0
DWIDTH 17 0
BBX 17 17 -1 -3
BITMAP
0002FFE000
001FA5BD00
00BD001F00
02F4000B40
07D1FB8B80
0F4BDF4B80
1F1F4F0B40
2D2E1E0F00
3D3D2D2E00
3C3D7EB800
7C2F9FE000
3C05010000
3D00020000
2E000B4000
0F917E0000
02FFF80000
0015000000
ENDCHAR
STARTCHAR A
ENCODING 65
SWIDTH 668 0
DWIDTH 16 0
BBX 17 21 0 -3
BITMAP
0000006F40
000002FF40
00000E7F00
000038BF00
0000F0BE00
0002D0FE00
0007C1FD00
1BFFE5FC00
7E6F6FFC00
BC3D03F800
BCBC03F400
10F807F400
02F407F000
03F00BE000
07E00FE000
0BD00FD000
0BD01FC000
0FC02FC000
0FC0000000
0BC0000000
0140000000
ENDCHAR
STARTCHAR B
ENCODING 66
SWIDTH 641 0
DWIDTH 15 0
BBX 15 18 0 0
BITMAP
001BFE00
01FA6FD0
0B9542F0
2E1FC1F0
7C2F82F0
B83F43D0
B83F5F40
787FFF80
04BF5FF0
00BE07F4
00FD03F4
01FD02F4
01FC03F4
02F803F0
03F807E0
03F65FD0
07F7FF80
07F1F900
ENDCHAR
STARTCHAR C
ENCODING 67
SWIDTH 497 0
DWIDTH 12 0
BBX 13 18 0 0
BITMAP
000BF900
007F9B40
01FE0780
03F80780
0BF40B80
1FE00600
2FD00000
3FC00000
3FC00000
7F800000
7F800000
7F400000
BF400000
7F800000
7FC00200
3FE56D00
1FFFF400
06FE4000
ENDCHAR
STARTCHAR D
ENCODING 68
SWIDTH 663 0
DWIDTH 16 0
BBX 16 18 0 0
BITMAP
001BFE40
01FA6FD0
0B8142F4
2E2FC1FC
7C2F80FD
B83F40FD
B47F40FD
B47F00FD
14BE00FD
00FE01FD
00FD01FC
01FC02F8
02FC03F4
02F80BF0
03F40FD0
07F47F80
07FFFF00
0BE6F800
ENDCHAR
STARTCHAR E
ENCODING 69
SWIDTH 459 0
DWIDTH 11 0
BBX 12 18 0 0
BITMAP
000BF4
007FAD
00FC0E
02F40E
02F42D
02F414
02F800
00BE00
02FD00
0FF000
2FD000
7F8000
BF4000
BF4001
BF8009
BFD5B4
3FFFD0
0BF900
ENDCHAR
STARTCHAR F
ENCODING 70
SWIDTH 459 0
DWIDTH 11 0
BBX 15 18 0 0
BITMAP
006FFFF4
07FFFFF0
1E2FDA90
3C2F8000
B83F4000
B87F4000
B47F0000
74BFA900
14FFFC00
00FD0000
01FD0000
01FC0000
02F80000
03F80000
03F40000
07F00000
0BF00000
0BE00000
ENDCHAR
STARTCHAR G
ENCODING 71
SWIDTH 578 0
DWIDTH 14 0
BBX 14 23 0 -5
BITMAP
001AFE00
00BF9BC0
03FD02E0
0BF402E0
1FE007D0
3FC00140
7F800000
7F400000
BF400FC0
7F401F80
7F402F80
3F807F40
1FD5FF00
07FEBF00
0050BE00
0000BD00
0050FC00
07F9FC00
0F46F400
1E03F000
0F5BD000
07FF4000
00540000
ENDCHAR
STARTCHAR H
ENCODING 72
SWIDTH 665 0
DWIDTH 16 0
BBX 17 18 0 0
BITMAP
001BE03F80
01FFD03F40
0B9FC07F00
2E1FC0BF00
7C2F80BE00
B83F80FD00
B83F41FD00
787FAAFC00
14BFFFFC00
00BE02F800
00FD03F400
01FD07F400
01FC07F000
02F80BE000
03F80FE000
03F40FD000
07F41FC000
07F02FC000
ENDCHAR
STARTCHAR I
ENCODING 73
SWIDTH 375 0
DWIDTH 9 0
BBX 10 18 0 0
BITMAP
001BD0
01FFD0
0B5FC0
2D2F80
7C3F80
B83F40
B47F00
B4BF00
14BE00
00FE00
00FD00
01FC00
02FC00
02F800
03F400
07F400
07F000
0BE000
ENDCHAR
STARTCHAR J
ENCODING 74
SWIDTH 536 0
DWIDTH 13 0
BBX 14 23 0 -5
BITMAP
00001BE0
0001BFE0
00079FD0
001E1FC0
003D2FC0
007C2F80
00783F40
00787F40
00187F00
0000BE00
0000FE00
0000FD00
0001FC00
0002FC00
0003F800
0003F400
0547F400
2FEBF000
781BE000
B40FD000
7D6F8000
2FFD0000
01400000
ENDCHAR
STARTCHAR K
ENCODING 75
SWIDTH 601 0
DWIDTH 14 0
BBX 16 18 0 0
BITMAP
001BD03D
02EFD0B8
1F5FC2E0
3D2F8780
B83F5E00
B43F7800
B47FE000
24BFFE00
00BE2F80
00FD1FC0
00FD1FC0
01FC1FC0
02F82F80
02F83F40
03F43F40
07F47F00
07F07F00
0BE02F40
ENDCHAR
STARTCHAR L
ENCODING 76
SWIDTH 379 0
DWIDTH 9 0
BBX 16 24 0 -6
BITMAP
001BD000
01FFD000
0B5FC000
2D2F8000
7C3F8000
B83F4000
B47F0000
74BF0000
14BE0000
00FD0000
01FD0000
01FC0000
02F80000
03F80000
03F40000
07F00000
0BF00000
0BF90000
007F8000
000BE400
0001FE41
00007FFE
00000BFD
000001F8
ENDCHAR
STARTCHAR M
ENCODING 77
SWIDTH 787 0
DWIDTH 19 0
BBX 19 18 1 0
BITMAP
001BF007F4
01FBF00BF0
078BF01FF0
1E0FF02FE0
3D1FF03FE0
7C2FF07FE0
7C7FF0BFD0
3CBFE1FFD0
04FBE2EFC0
01EBE3DFC0
02DBE76F80
03CBEF2F80
078BFE3F80
0B0BFD3F40
0E0BF87F40
1D0FF47F00
3C0FF07F00
780FE0BF00
ENDCHAR
STARTCHAR N
ENCODING 78
SWIDTH 668 0
DWIDTH 16 0
BBX 17 18 0 0
BITMAP
006FD007C0
07FFE007C0
1F5FE00B80
3D2FF00B40
BC2FF40F40
B83FF81F00
B87FF81E00
B87DFC2E00
28B9FD3D00
00F4FD3C00
00F4BE7C00
01F0BF7800
02E07FB800
02E03FF400
03D02FF000
07C02FF000
07801FE000
0B800FD000
ENDCHAR
STARTCHAR O
ENCODING 79
SWIDTH 665 0
DWIDTH 16 0
BBX 16 18 0 0
BITMAP
0006FF80
00BE9BF4
07E1A0FC
1F4BD0BD
3D2F80BE
7C7F007E
B8BE00BE
79FD00BE
16FC00BE
03F800FD
03F401FC
07F402F8
07F403F4
07F00BE0
07F41FD0
03F87F40
02FFFD00
006FA000
ENDCHAR
STARTCHAR P
ENCODING 80
SWIDTH 573 0
DWIDTH 14 0
BBX 15 18 0 0
BITMAP
001BF900
01FA6F80
0B8047E0
2E2FC2F0
7C2F81F4
B83F42F0
B47F42F0
B47F03E0
24BE0BC0
00FE2F00
00FEF800
01FD0000
02FC0000
02F80000
03F40000
07F40000
07F00000
0BE00000
ENDCHAR
STARTCHAR Q
ENCODING 81
SWIDTH 665 0
DWIDTH 16 0
BBX 16 21 0 -3
BITMAP
0006FF80
00BE9BF4
07E1A0FC
1F4BD0BD
3D2F80BE
7C7F007E
B8BE00BE
79FD00BE
16FC00BE
03F800FD
03F401FC
07F402F8
07F403F4
07F00BF0
07FBAFD0
03F8FF80
02FEFE00
006FFE00
00002FE4
00000FF0
00000140
ENDCHAR
STARTCHAR R
ENCODING 82
SWIDTH 601 0
DWIDTH 14 0
BBX 14 18 0 0
BITMAP
001BFA00
02FA6FD0
0F8542E0
3D2F82F0
BC3F82E0
B83F47D0
B47F6F40
247FFF40
00BE6FC0
00FD1FC0
00FD1FC0
01FC1FC0
02F82F80
02F83F40
03F43F40
07F47F00
07F07F00
0BE02F40
ENDCHAR
STARTCHAR S
ENCODING 83
SWIDTH 570 0
DWIDTH 14 0
BBX 13 18 1 0
BITMAP
002BE400
01FEBE00
03F40F00
07F00F40
07F42F00
03F81900
02FD0000
00FF4000
007FD000
001FF000
1A4BF800
7FC2FC00
FD01FD00
F801FD00
F802FC00
FC07F400
7FAFD000
0BFA0000
ENDCHAR
STARTCHAR T
ENCODING 84
SWIDTH 481 0
DWIDTH 12 0
BBX 17 18 0 0
BITMAP
006FFA4080
07E7FFFFC0
1E03FFFF80
3C07FAAA00
7807F40000
B40BF00000
B40FE00000
B40FE00000
681FD00000
001FC00000
002FC00000
003F800000
003F400000
007F400000
00BF000000
00BE000000
00FE000000
00FD000000
ENDCHAR
STARTCHAR U
ENCODING 85
SWIDTH 716 0
DWIDTH 17 0
BBX 19 18 0 0
BITMAP
001BF007F4
02EBF007F0
1F4BE00BE0
7D0FD00FE0
B81FC00FD0
F42F801FC0
F42F802FC0
B43F402F80
147F003F40
00BE007F40
00BD007F00
00FD00BE00
01FC00FE00
01FC01FC00
01FC03F800
00FE5BF000
007FFF8000
001BF90000
ENDCHAR
STARTCHAR V
ENCODING 86
SWIDTH 615 0
DWIDTH 15 0
BBX 17 18 0 0
BITMAP
001BE00740
01FFE00B00
0B4FE00E00
2D0FE01D00
7C0FE02800
B80FE03400
B40FE07000
B40FE0A000
140FE0D000
000FE1C000
000FE28000
000BE34000
000BE70000
000BE90000
000BFC0000
000BF80000
000BF40000
000BF00000
ENDCHAR
STARTCHAR W
ENCODING 87
SWIDTH 962 0
DWIDTH 23 0
BBX 25 18 0 0
BITMAP
001BE007F00380
01FFE00BF00740
0B4FE00FF00B00
2D0FE01FF00D00
7C0FE02FF01C00
B80FE03FF02800
B40FE07BF03400
B40FE0ABF07000
140FE0DBF0A000
000FE1CBF0D000
000FE28BF1C000
000BE34BF28000
000BE707F30000
000BE907FA0000
000BFC07FD0000
000BF807FC0000
000BF407F80000
000BF007F40000
ENDCHAR
STARTCHAR X
ENCODING 88
SWIDTH 620 0
DWIDTH 15 0
BBX 15 18 0 0
BITMAP
001BE038
01FFE074
0B4FF0E0
2D0BF6C0
7C07FB40
B807FF00
B403FD00
B402FC00
1402FD00
0001FD00
0002FE00
0003FF00
000BBF00
001DBF40
00287F80
00743F80
00E03FC0
01C02FC0
ENDCHAR
STARTCHAR Y
ENCODING 89
SWIDTH 620 0
DWIDTH 15 0
BBX 17 18 0 0
BITMAP
001BE00380
01FFF00700
0B4BF00E00
2D0BF41D00
7C07F82800
B803F83400
B402FC7000
B402FDD000
1401FEC000
0000FF8000
0000BF0000
0000FF0000
0000FE0000
0001FD0000
0002FD0000
0002FC0000
0003FC0000
0007F80000
ENDCHAR
STARTCHAR Z
ENCODING 90
SWIDTH 542 0
DWIDTH 13 0
BBX 13 18 0 0
BITMAP
02FFFFC0
0BA5BF40
0F80FF00
0B41FD00
0003FC00
0007F400
000FF000
001FD000
003FC000
007F4000
00FF0000
01FD0000
03FC0000
07F40000
0FF01E00
1FD02F00
3FE5AE00
7FFFF800
ENDCHAR
STARTCHAR bracketleft
ENCODING 91
SWIDTH 400 0
DWIDTH 10 0
BBX 10 24 0 -6
BITMAP
007FF0
007D50
00BC00
00F800
00F400
01F400
01F000
02E000
03E000
03D000
07C000
0BC000
0B8000
0F4000
1F4000
1F0000
2F0000
2E0000
3D0000
7D0000
7C0000
B80000
F94000
FFC000
ENDCHAR
STARTCHAR backslash
ENCODING 92
SWIDTH 362 0
DWIDTH 9 0
BBX 7 24 1 -6
BITMAP
F000
B000
7400
7400
3800
2C00
2C00
1D00
1E00
0E00
0B00
0B40
0740
0380
0380
02C0
01D0
01D0
00E0
00F0
00B0
0074
0078
0038
ENDCHAR
STARTCHAR bracketright
ENCODING 93
SWIDTH 400 0
DWIDTH 10 0
BBX 11 24 -2 -6
BITMAP
001FF8
0015F4
0001F4
0001F0
0002E0
0003E0
0003D0
0007C0
000BC0
000B80
000F80
000F40
001F00
002F00
002E00
003D00
007D00
007C00
00BC00
00F800
00F400
01F400
16F000
7FE000
ENDCHAR
STARTCHAR asciicircum
ENCODING 94
SWIDTH 421 0
DWIDTH 10 0
BBX 7 5 1 13
BITMAP
0010
00B0
03F4
1F68
640C
ENDCHAR
STARTCHAR underscore
ENCODING 95
SWIDTH 444 0
DWIDTH 11 0
BBX 9 2 1 0
BITMAP
FFFF80
555500
ENDCHAR
STARTCHAR grave
ENCODING 96
SWIDTH 201 0
DWIDTH 5 0
BBX 4 4 0 13
BITMAP
7D
2D
1E
0A
ENDCHAR
STARTCHAR a
ENCODING 97
SWIDTH 526 0
DWIDTH 13 0
BBX 15 12 -1 0
BITMAP
006F7F40
02FDFF40
07F07F00
0FD0BE00
2FC0FE00
3F80FD00
3F41FC00
7F42FC04
7F43F824
7F9BFD60
2FF9FFC0
0BE0BE00
ENDCHAR
STARTCHAR b
ENCODING 98
SWIDTH 444 0
DWIDTH 11 0
BBX 10 17 0 0
BITMAP
016000
0BF000
0BE000
0FD000
1FD000
1FEF40
2FEBD0
3F83E0
3F42E0
7F02E0
BF02E0
BE03D0
FD07C0
FD0F80
FE6F00
BFFD00
2FE000
ENDCHAR
STARTCHAR c
ENCODING 99
SWIDTH 384 0
DWIDTH 9 0
BBX 11 12 -1 0
BITMAP
006F80
02FAE0
07F0E0
0FD1E0
2FC000
3F8000
3F4000
7F4000
7F4018
3F4060
2FEA80
0BF900
ENDCHAR
STARTCHAR d
ENCODING 100
SWIDTH 525 0
DWIDTH 13 0
BBX 15 17 -1 0
BITMAP
00000550
00001FD0
00001FC0
00002FC0
00002F80
006F7F40
02FEFF40
07F0BF00
0FD0BE00
2FC0FE00
3F80FD00
3F41FC00
7F42FC00
7F43F824
7F9BFDA0
2FFEFFC0
0BE0BE00
ENDCHAR
STARTCHAR e
ENCODING 101
SWIDTH 384 0
DWIDTH 9 0
BBX 11 12 -1 0
BITMAP
006F80
02FAE0
07F0E0
0FD1E0
2FC3D0
3F9F40
3FF900
7F4000
7F4018
3F4060
2FEA80
0BF900
ENDCHAR
STARTCHAR f
ENCODING 102
SWIDTH 267 0
DWIDTH 6 0
BBX 15 24 -5 -6
BITMAP
00002F90
0000BEB0
0001FC34
0002F810
0003F400
0007F400
0007FE00
000BF500
000FE000
000FD000
001FD000
002FC000
002F8000
003F8000
003F4000
007F0000
00BF0000
00BE0000
0BFD0000
75FD0000
91FC0000
E7F80000
BFF00000
2F800000
ENDCHAR
STARTCHAR g
ENCODING 103
SWIDTH 507 0
DWIDTH 12 0
BBX 14 18 -1 -6
BITMAP
006F7F40
02FDFF40
07F07F00
0FD0BE00
2FC0FE00
3F80FD00
3F41FC00
7F42FC10
7F43F830
7F9BF490
2FFFF680
0BEBFE00
002FF000
01EFE000
074FD000
071FC000
07BF4000
01F90000
ENDCHAR
STARTCHAR h
ENCODING 104
SWIDTH 505 0
DWIDTH 12 0
BBX 14 17 -1 0
BITMAP
00580000
02FC0000
02F80000
03F40000
07F40000
07F6F400
0BFFFC00
0FF5FD00
0FE0FD00
1FC1FC00
2FC1FC00
2F82F800
3F83F410
3F43F460
7F03F5D0
BF03FF80
BE01BD00
ENDCHAR
STARTCHAR i
ENCODING 105
SWIDTH 267 0
DWIDTH 6 0
BBX 7 17 0 0
BITMAP
07D0
0BE0
0BE0
07D0
0000
1FC0
2F80
3F80
3F40
7F00
BF00
BE00
FD04
FD0C
FE68
FFE0
6E40
ENDCHAR
STARTCHAR j
ENCODING 106
SWIDTH 240 0
DWIDTH 6 0
BBX 12 23 -5 -6
BITMAP
0001E0
0003F8
0003F8
0001E0
000000
0007F0
000BE0
000FE0
000FD0
001FD0
002FC0
002F80
003F80
003F46
007F0C
00BF24
00BF90
06FE00
2FFD00
75FC00
A2F800
BBF000
2F8000
ENDCHAR
STARTCHAR k
ENCODING 107
SWIDTH 518 0
DWIDTH 12 0
BBX 14 17 -1 0
BITMAP
00580000
02FC0000
02F80000
03F40000
07F40000
07F02E00
0BE0B400
0FE78000
0FEF9000
1FFFF800
2FE6FC00
2F82FC00
3F82F800
3F43F830
7F03F9A0
BF02FFC0
BE00BE00
ENDCHAR
STARTCHAR l
ENCODING 108
SWIDTH 267 0
DWIDTH 6 0
BBX 7 17 0 0
BITMAP
01A0
0BF0
0FE0
0FD0
1FD0
1FC0
2F80
3F80
3F40
7F00
BF00
BE00
FD04
FD0C
FEB8
FFE0
6E40
ENDCHAR
STARTCHAR m
ENCODING 109
SWIDTH 752 0
DWIDTH 18 0
BBX 20 12 -1 0
BITMAP
07F6F8BE40
0BFAFFAFC0
0FE1FE1FD0
0FD1FD1FC0
1FC1FC1FC0
2FC2F82F80
2F83F83F80
3F43F43F41
7F47F07F06
7F07F07F5D
BF0BE03FF8
BE0FE01B90
ENDCHAR
STARTCHAR n
ENCODING 110
SWIDTH 505 0
DWIDTH 12 0
BBX 14 12 -1 0
BITMAP
07F6F400
0BFAFC00
0FE0FD00
0FD1FD00
1FC1FC00
2FC2FC00
2F82F800
3F43F410
7F43F460
7F03F5D0
BF03FF80
BE01BD00
ENDCHAR
STARTCHAR o
ENCODING 111
SWIDTH 439 0
DWIDTH 11 0
BBX 15 12 -1 0
BITMAP
006F8000
02FEE000
07F0B014
0FD1F5A0
2FC1FE40
3F80F000
3F40F000
7F41E000
7F43D000
7F8B8000
2FFE0000
0BF40000
ENDCHAR
STARTCHAR p
ENCODING 112
SWIDTH 468 0
DWIDTH 11 0
BBX 13 19 -2 -6
BITMAP
01FD0000
01FDBD00
02FEBF40
03F82F80
03F42F80
07F02F80
0BF03F40
0BE03F40
0FD07F00
1FD0FE00
1FD2FC00
2FFFF400
3FAF9000
3F400000
7F400000
7F000000
BE000000
FE000000
90000000
ENDCHAR
STARTCHAR q
ENCODING 113
SWIDTH 486 0
DWIDTH 12 0
BBX 13 18 -1 -6
BITMAP
006F7F40
02FEFF40
07F0BF00
0FD0BE00
2FC0FE00
3F80FD00
3F41FC00
7F42FC00
7F43F800
7F9BF400
2FFFF400
0BEBF000
000BE000
000FE000
000FD000
001FC000
002FC000
00150000
ENDCHAR
STARTCHAR r
ENCODING 114
SWIDTH 376 0
DWIDTH 9 0
BBX 11 12 -1 0
BITMAP
07F6E0
0BFFF4
0FE1E0
0FD000
1FC000
2FC000
2F8000
3F4000
7F4000
7F0000
BF0000
BE0000
ENDCHAR
STARTCHAR s
ENCODING 115
SWIDTH 382 0
DWIDTH 9 0
BBX 11 13 -1 0
BITMAP
005A00
00FF00
01FF00
02FF40
037F40
067F40
0D3F40
183F40
7C3F84
BC3FA4
A07F90
7AFE00
1BE400
ENDCHAR
STARTCHAR t
ENCODING 116
SWIDTH 267 0
DWIDTH 6 0
BBX 7 16 0 0
BITMAP
05A0
0BE0
0FD0
1FD0
7FF4
2FD4
2F80
3F40
7F40
7F00
BE00
FE00
FD0C
FE68
FFE0
7E40
ENDCHAR
STARTCHAR u
ENCODING 117
SWIDTH 505 0
DWIDTH 12 0
BBX 13 12 0 0
BITMAP
1FC2FC00
2F82F800
3F83F400
3F47F400
7F07F000
BF0BF000
BE0FE000
FD0FD040
FD1FD180
FE7FE740
FFDFFE00
6E47E400
ENDCHAR
STARTCHAR v
ENCODING 118
SWIDTH 414 0
DWIDTH 10 0
BBX 10 12 0 0
BITMAP
1FC7C0
2F87E0
3F80E0
3F40D0
7F01D0
BF02C0
BE0380
FD0740
FD0F00
FE7D00
FFF400
6F9000
ENDCHAR
STARTCHAR w
ENCODING 119
SWIDTH 661 0
DWIDTH 16 0
BBX 16 12 0 0
BITMAP
1FC2FC7C
2F82F87D
3F83F40D
3F47F40D
7F07F01D
BF0BF02C
BE0FE038
FD0FD074
FD1FD0E0
FE7FE7C0
FFDFFF40
6E46F900
ENDCHAR
STARTCHAR x
ENCODING 120
SWIDTH 522 0
DWIDTH 13 0
BBX 14 13 0 0
BITMAP
00002D00
01BD2F00
06BF0B00
083F4E00
243F6C00
302FF000
602FC000
902F8000
807FC050
01DFC090
074FE680
0E07FE00
3802F400
ENDCHAR
STARTCHAR y
ENCODING 121
SWIDTH 486 0
DWIDTH 12 0
BBX 13 18 0 -6
BITMAP
1FC2FC00
2F82F800
3F83F400
3F47F400
7F07F000
BF0BE000
BE0FE000
FD0FD040
FD1FD240
FE7FC700
FFFF9D00
6E7FE000
01BF4000
0BBF0000
28BF0000
34FE0000
2FFC0000
0BE00000
ENDCHAR
STARTCHAR z
ENCODING 122
SWIDTH 428 0
DWIDTH 10 0
BBX 10 12 0 0
BITMAP
07FFF0
1E5FD0
2E1FC0
193F40
00BE00
01FD00
02F800
07F000
0FD140
2FC3D0
3F97C0
BFFE40
ENDCHAR
STARTCHAR braceleft
ENCODING 123
SWIDTH 352 0
DWIDTH 8 0
BBX 9 24 1 -6
BITMAP
002F80
00BE40
01F400
02F000
03E000
03E000
03D000
07D000
07D000
07C000
1F8000
BD0000
6F0000
1F0000
1F0000
2F0000
3E0000
3D0000
7C0000
BC0000
BC0000
BC0000
7E0000
1F4000
ENDCHAR
STARTCHAR bar
ENCODING 124
SWIDTH 532 0
DWIDTH 13 0
BBX 3 24 5 -6
BITMAP
B4
B4
B4
B4
B4
B4
B4
B4
B4
B4
B4
B4
B4
B4
B4
B4
B4
B4
B4
B4
B4
B4
B4
B4
ENDCHAR
STARTCHAR braceright
ENCODING 125
SWIDTH 352 0
DWIDTH 8 0
BBX 9 24 -2 -6
BITMAP
007D00
002F80
000FC0
000FC0
000F80
000F40
001F40
002F00
002E00
003D00
003D00
003D00
001FC0
007D40
00F800
01F400
01F400
01F400
02F000
02F000
03E000
07D000
6FC000
7E0000
ENDCHAR
STARTCHAR asciitilde
ENCODING 126
SWIDTH 431 0
DWIDTH 10 0
BBX 10 3 1 13
BITMAP
055400
2FFFD0
41BE00
ENDCHAR
STARTCHAR uni00A0
ENCODING 160
SWIDTH 217 0
DWIDTH 5 0
BBX 1 1 0 0
BITMAP
00
ENDCHAR
STARTCHAR exclamdown
ENCODING 161
SWIDTH 219 0
DWIDTH 5 0
BBX 8 18 -2 -6
BITMAP
0078
00FD
00FD
00B8
0000
0000
01F0
01E0
02E0
03D0
07D0
0BC0
0FC0
0FC0
1F80
2F80
3F40
7F40
ENDCHAR
STARTCHAR cent
ENCODING 162
SWIDTH 384 0
DWIDTH 9 0
BBX 10 18 0 -1
BITMAP
000600
000A00
001D00
01FFD0
0BEDF0
1F69F0
3F35D0
7D3000
BD7000
BCA000
BC9000
BDD000
3FD600
1BFE00
039000
034000
070000
050000
ENDCHAR
STARTCHAR sterling
ENCODING 163
SWIDTH 455 0
DWIDTH 11 0
BBX 13 18 0 0
BITMAP
0002F900
001FEF00
003F0F40
007E1F00
00FD0400
00FC0000
01FC0000
02F80000
3FFFF000
17F55000
03F00000
07F00000
0BE00000
0BD00000
0F800600
2FFFFE00
7FFFFD00
555BF400
ENDCHAR
STARTCHAR currency
ENCODING 164
SWIDTH 500 0
DWIDTH 12 0
BBX 9 9 2 4
BITMAP
400100
EBEB40
7EBD00
700E00
A00A00
B00A00
796D00
BFFA00
814200
ENDCHAR
STARTCHAR yen
ENCODING 165
SWIDTH 558 0
DWIDTH 13 0
BBX 12 18 2 0
BITMAP
7F800E
3FC01C
2FC028
2FD074
1FE0B0
0FE0D0
0FF1C0
0BF680
07FB00
03FE00
03FD00
7FFFF0
17F950
BFFFD0
5BF540
0FF000
0FE000
1FE000
ENDCHAR
STARTCHAR brokenbar
ENCODING 166
SWIDTH 532 0
DWIDTH 13 0
BBX 3 24 5 -6
BITMAP
B4
B4
B4
B4
B4
B4
B4
B4
B4
B4
B4
00
00
B4
B4
B4
B4
B4
B4
B4
B4
B4
B4
B4
ENDCHAR
STARTCHAR section
ENCODING 167
SWIDTH 542 0
DWIDTH 13 0
BBX 13 19 0 -1
BITMAP
0006FD00
002FAB40
007F0380
00BD0740
00BD0500
01FF0000
07FFC000
0B9FF400
0FC2FD00
0BF0BE00
07FD3F00
01FF1F00
003F9F00
191FED00
7E0FE400
B80BD000
B40BC000
BC1F4000
2FF90000
ENDCHAR
STARTCHAR dieresis
ENCODING 168
SWIDTH 392 0
DWIDTH 9 0
BBX 8 3 1 14
BITMAP
6828
BD7E
782D
ENDCHAR
STARTCHAR copyright
ENCODING 169
SWIDTH 587 0
DWIDTH 14 0
BBX 12 13 1 1
BITMAP
01FF40
0B96E0
2C0028
70BE0D
A2D686
974086
970006
A74006
72D68D
29BF68
0F55B0
02FF80
001400
ENDCHAR
STARTCHAR ordfeminine
ENCODING 170
SWIDTH 345 0
DWIDTH 8 0
BBX 7 7 1 10
BITMAP
1FF8
3DB4
B4B0
B0E0
F2E0
BEF4
1450
ENDCHAR
STARTCHAR guillemotleft
ENCODING 171
SWIDTH 589 0
DWIDTH 14 0
BBX 13 8 0 2
BITMAP
000B02C0
00B92E40
0B92E400
791E4000
7D1B4000
07D1F400
00B81E00
00040100
ENDCHAR
STARTCHAR logicalnot
ENCODING 172
SWIDTH 444 0
DWIDTH 11 0
BBX 10 6 0 1
BITMAP
7FFFD0
155BD0
000BC0
000F80
001F80
000500
ENDCHAR
STARTCHAR uni00AD
ENCODING 173
SWIDTH 290 0
DWIDTH 7 0
BBX 6 2 0 5
BITMAP
7FE0
1540
ENDCHAR
STARTCHAR registered
ENCODING 174
SWIDTH 553 0
DWIDTH 13 0
BBX 12 13 1 1
BITMAP
06FE40
1F56D0
380074
A2FE1C
D2974D
C24749
C2FE09
C29D0D
A2471C
754174
1E56E0
06FF40
001400
ENDCHAR
STARTCHAR macron
ENCODING 175
SWIDTH 446 0
DWIDTH 11 0
BBX 8 2 2 13
BITMAP
FFFE
5554
ENDCHAR
STARTCHAR degree
ENCODING 176
SWIDTH 314 0
DWIDTH 8 0
BBX 6 9 1 8
BITMAP
1FD0
3DE0
B4A0
F0A0
E0E0
E1D0
E680
BE00
1400
ENDCHAR
STARTCHAR plusminus
ENCODING 177
SWIDTH 479 0
DWIDTH 12 0
BBX 11 13 0 2
BITMAP
000400
001E00
001E00
002D00
1FFFF8
1FFFF4
007800
00B400
00B400
006000
000000
7FFFD0
155540
ENDCHAR
STARTCHAR uni00B2
ENCODING 178
SWIDTH 328 0
DWIDTH 8 0
BBX 7 11 1 7
BITMAP
0BE0
2EF4
38B8
28B4
00E0
0280
0A00
2800
7410
BFF0
5540
ENDCHAR
STARTCHAR uni00B3
ENCODING 179
SWIDTH 336 0
DWIDTH 8 0
BBX 7 10 1 8
BITMAP
07E0
1EB8
2C78
1974
01D0
01E0
78B8
B0B8
B1F0
2F80
ENDCHAR
STARTCHAR acute
ENCODING 180
SWIDTH 316 0
DWIDTH 8 0
BBX 5 5 3 13
BITMAP
0640
1E00
3C00
7400
E000
ENDCHAR
STARTCHAR uni00B5
ENCODING 181
SWIDTH 505 0
DWIDTH 12 0
BBX 15 16 -2 -4
BITMAP
01FC2FC0
02F82F80
03F83F40
03F47F40
07F07F00
0BF0BF00
0BE0BE00
0FE0FD04
1FD1FD18
1FE7FD74
2FFDFFE0
2FF47E40
3F400000
7F400000
7F000000
A4000000
ENDCHAR
STARTCHAR paragraph
ENCODING 182
SWIDTH 542 0
DWIDTH 13 0
BBX 11 20 1 -2
BITMAP
00BF90
07FFF4
0FFF7C
2FFF7C
3FFF3C
7FFE7C
7FFE78
3FFDB8
2FFCF4
1FFCF0
07FFF0
00BAE0
00F6E0
01F3D0
01F3C0
02E7C0
02DB80
03DB40
07CF40
07DF00
ENDCHAR
STARTCHAR periodcentered
ENCODING 183
SWIDTH 434 0
DWIDTH 10 0
BBX 5 5 3 4
BITMAP
6D00
FF40
FF40
FF40
7E00
ENDCHAR
STARTCHAR cedilla
ENCODING 184
SWIDTH 227 0
DWIDTH 5 0
BBX 6 7 0 -6
BITMAP
0900
0C00
2FD0
02E0
96D0
7F80
0400
ENDCHAR
STARTCHAR uni00B9
ENCODING 185
SWIDTH 229 0
DWIDTH 6 0
BBX 4 11 1 7
BITMAP
06
BF
6E
1E
2D
3C
3C
78
B8
B4
50
ENDCHAR
STARTCHAR ordmasculine
ENCODING 186
SWIDTH 329 0
DWIDTH 8 0
BBX 6 8 1 10
BITMAP
1B80
3EE0
B8D0
F0D0
F0C0
F280
BF00
1400
ENDCHAR
STARTCHAR guillemotright
ENCODING 187
SWIDTH 586 0
DWIDTH 14 0
BBX 13 8 0 2
BITMAP
0D028000
0791F400
00B82E40
001E02C0
006E1B80
0BD1B900
790F4000
40040000
ENDCHAR
STARTCHAR onequarter
ENCODING 188
SWIDTH 749 0
DWIDTH 18 0
BBX 17 18 1 0
BITMAP
060002C000
BF00074000
6E000B0000
1E001D0000
2D00380000
3C00740000
3C00E00000
7802D00000
B80381D640
B40B01DB40
501E02DF40
002C038F00
0074071E00
00E00FFF40
01D0002D00
0380003C00
0B40003C00
0E00007800
ENDCHAR
STARTCHAR onehalf
ENCODING 189
SWIDTH 745 0
DWIDTH 18 0
BBX 17 18 1 0
BITMAP
060002C000
BF00074000
6E000B0000
1E001D0000
2D00380000
3C00740000
3C00E00000
7802D00000
B80380BE00
B40B02EF40
501E038B80
002C028B40
0074000E00
00E0003800
01D000A000
0380028000
0B400B5600
0E000BFE00
ENDCHAR
STARTCHAR threequarters
ENCODING 190
SWIDTH 836 0
DWIDTH 20 0
BBX 19 18 1 0
BITMAP
07E0002C00
1EB8003800
2C7800B000
197401D000
01D002C000
01E0074000
78B80E0000
B0B81D0000
B1F0381D68
2F80B01EB8
0000E02DB4
0002C038F0
00074071E0
000B00FFF4
001D0002D0
00380003D0
00740003C0
00E0000780
ENDCHAR
STARTCHAR questiondown
ENCODING 191
SWIDTH 439 0
DWIDTH 11 0
BBX 10 18 -1 -6
BITMAP
0007D0
000BE0
000BE0
0007D0
000000
000100
000340
000740
001E00
007C00
01F400
0BD000
1F87D0
3F03E0
7F02E0
7F42D0
2FEB80
07F900
ENDCHAR
STARTCHAR Agrave
ENCODING 192
SWIDTH 668 0
DWIDTH 16 0
BBX 17 26 0 -3
BITMAP
000000F400
000000B400
0000007800
0000003800
0000000000
0000006F40
000002FF40
00000E7F00
000038BF00
0000F0BE00
0002D0FE00
0007C1FD00
1BFFE5FC00
7E6F6FFC00
BC3D03F800
BCBC03F400
10F807F400
02F407F000
03F00BE000
07E00FE000
0BD00FD000
0BD01FC000
0FC02FC000
0FC0000000
0BC0000000
0140000000
ENDCHAR
STARTCHAR Aacute
ENCODING 193
SWIDTH 668 0
DWIDTH 16 0
BBX 18 27 0 -3
BITMAP
00000000A0
00000002E0
00000003D0
0000000780
0000000F00
0000000000
0000006F40
000002FF40
00000E7F00
000038BF00
0000F0BE00
0002D0FE00
0007C1FD00
1BFFE5FC00
7E6F6FFC00
BC3D03F800
BCBC03F400
10F807F400
02F407F000
03F00BE000
07E00FE000
0BD00FD000
0BD01FC000
0FC02FC000
0FC0000000
0BC0000000
0140000000
ENDCHAR
STARTCHAR Acircumflex
ENCODING 194
SWIDTH 668 0
DWIDTH 16 0
BBX 19 27 0 -3
BITMAP
0000000040
00000002D0
0000000BE0
0000003DB0
0000019024
0000000000
0000006F40
000002FF40
00000E7F00
000038BF00
0000F0BE00
0002D0FE00
0007C1FD00
1BFFE5FC00
7E6F6FFC00
BC3D03F800
BCBC03F400
10F807F400
02F407F000
03F00BE000
07E00FE000
0BD00FD000
0BD01FC000
0FC02FC000
0FC0000000
0BC0000000
0140000000
ENDCHAR
STARTCHAR Atilde
ENCODING 195
SWIDTH 668 0
DWIDTH 16 0
BBX 19 25 0 -3
BITMAP
000001BE44
00000BFFF4
0000041540
0000000000
0000006F40
000002FF40
00000E7F00
000038BF00
0000F0BE00
0002D0FE00
0007C1FD00
1BFFE5FC00
7E6F6FFC00
BC3D03F800
BCBC03F400
10F807F400
02F407F000
03F00BE000
07E00FE000
0BD00FD000
0BD01FC000
0FC02FC000
0FC0000000
0BC0000000
0140000000
ENDCHAR
STARTCHAR Adieresis
ENCODING 196
SWIDTH 668 0
DWIDTH 16 0
BBX 18 25 0 -3
BITMAP
000002D1E0
000003E2F0
000002D1E0
0000000000
0000006F40
000002FF40
00000E7F00
000038BF00
0000F0BE00
0002D0FE00
0007C1FD00
1BFFE5FC00
7E6F6FFC00
BC3D03F800
BCBC03F400
10F807F400
02F407F000
03F00BE000
07E00FE000
0BD00FD000
0BD01FC000
0FC02FC000
0FC0000000
0BC0000000
0140000000
ENDCHAR
STARTCHAR Aring
ENCODING 197
SWIDTH 668 0
DWIDTH 16 0
BBX 17 26 0 -3
BITMAP
0000002F00
0000003640
0000006640
0000003F00
0000000400
0000006F40
000002FF40
00000E7F00
000038BF00
0000F0BE00
0002D0FE00
0007C1FD00
1BFFE5FC00
7E6F6FFC00
BC3D03F800
BCBC03F400
10F807F400
02F407F000
03F00BE000
07E00FE000
0BD00FD000
0BD01FC000
0FC02FC000
0FC0000000
0BC0000000
0140000000
ENDCHAR
STARTCHAR AE
ENCODING 198
SWIDTH 764 0
DWIDTH 18 0
BBX 22 21 0 -3
BITMAP
0000006F9050
000002FFFFD0
00001E7FBF80
000038BF0000
0000F0BE0000
0002D0FE0000
0007C1FD0000
1BFF91FC0000
7E6F6FFFF800
BC3D03FEA400
BCBC03F40000
10F807F40000
02F407F00000
03F00BE00000
07E00FE00000
0BD00FFFF800
0BD01FFFF800
0FC02FFFF400
0FC000000000
0BC000000000
014000000000
ENDCHAR
STARTCHAR Ccedilla
ENCODING 199
SWIDTH 497 0
DWIDTH 12 0
BBX 13 23 0 -5
BITMAP
000BF900
007F9B40
01FE0780
03F80780
0BF40B80
1FE00600
2FD00000
3FC00000
3FC00000
7F800000
7F800000
7F400000
BF400000
7F800000
7F800240
3FE01D00
1FFFF400
06FE4000
00240000
003F4000
000B8000
01874000
01B90000
ENDCHAR
STARTCHAR Egrave
ENCODING 200
SWIDTH 459 0
DWIDTH 11 0
BBX 12 24 0 0
BITMAP
000B80
000780
0003C0
0002D0
000000
000000
000BF4
007FAD
00FC0E
02F40E
02F42D
02F414
02F800
00BE00
02FD00
0FF000
2FD000
7F8000
BF4000
BF4001
BF8009
BFD5B4
3FFFD0
0BF900
ENDCHAR
STARTCHAR Eacute
ENCODING 201
SWIDTH 459 0
DWIDTH 11 0
BBX 13 24 0 0
BITMAP
00000F40
00002E00
00003C00
0000B400
00005000
00000000
000BF400
007FAD00
00FC0E00
02F40E00
02F42D00
02F41400
02F80000
00BE0000
02FD0000
0FF00000
2FD00000
7F800000
BF400000
BF400100
BF800900
BFD5B400
3FFFD000
0BF90000
ENDCHAR
STARTCHAR Ecircumflex
ENCODING 202
SWIDTH 459 0
DWIDTH 11 0
BBX 12 24 0 0
BITMAP
000028
0000BC
0002ED
000E4A
001401
000000
000BF4
007FAD
00FC0E
02F40E
02F42D
02F414
02F800
00BE00
02FD00
0FF000
2FD000
7F8000
BF4000
BF4001
BF8009
BFD5B4
3FFFD0
0BF900
ENDCHAR
STARTCHAR Edieresis
ENCODING 203
SWIDTH 459 0
DWIDTH 11 0
BBX 13 23 0 0
BITMAP
000A4740
001F8FC0
000B4B80
00000000
00000000
000BF400
007FAD00
00FC0E00
02F40E00
02F42D00
02F41400
02F80000
00BE0000
02FD0000
0FF00000
2FD00000
7F800000
BF400000
BF400100
BF800900
BFD5B400
3FFFD000
0BF90000
ENDCHAR
STARTCHAR Igrave
ENCODING 204
SWIDTH 375 0
DWIDTH 9 0
BBX 10 23 0 0
BITMAP
002E00
001F00
000F00
000B40
000000
001BD0
01FFD0
0B5FC0
2D2F80
7C3F80
B83F40
B47F00
B4BF00
14BE00
00FE00
00FD00
01FC00
02FC00
02F800
03F400
07F400
07F000
0BE000
ENDCHAR
STARTCHAR Iacute
ENCODING 205
SWIDTH 375 0
DWIDTH 9 0
BBX 12 24 0 0
BITMAP
000019
00007C
0000B4
0001E0
0002D0
000000
001BD0
01FFD0
0B5FC0
2D2F80
7C3F80
B83F40
B47F00
B4BF00
14BE00
00FE00
00FD00
01FC00
02FC00
02F800
03F400
07F400
07F000
0BE000
ENDCHAR
STARTCHAR Icircumflex
ENCODING 206
SWIDTH 375 0
DWIDTH 9 0
BBX 11 24 0 0
BITMAP
000010
0000F0
0007F4
001E68
00640C
000000
001BD0
01FFD0
0B5FC0
2D2F80
7C3F80
B83F40
B47F00
B4BF00
14BE00
00FE00
00FD00
01FC00
02FC00
02F800
03F400
07F400
07F000
0BE000
ENDCHAR
STARTCHAR Idieresis
ENCODING 207
SWIDTH 375 0
DWIDTH 9 0
BBX 12 22 0 0
BITMAP
00382D
007D3E
002829
000000
001BD0
01FFD0
0B5FC0
2D2F80
7C3F80
B83F40
B47F00
B4BF00
14BE00
00FE00
00FD00
01FC00
02FC00
02F800
03F400
07F400
07F000
0BE000
ENDCHAR
STARTCHAR Eth
ENCODING 208
SWIDTH 663 0
DWIDTH 16 0
BBX 16 18 0 0
BITMAP
001BFA40
01FA6BE0
0B8142F4
2E2FC0FC
7C2F80FD
B83F40FD
B47F00FD
74BF00FD
06FFE0FD
01FE41FD
01FD01FC
01FC02F8
02F803F4
02F80BF0
03F41FD0
07F47F80
07FFFF00
0BE6F800
ENDCHAR
STARTCHAR Ntilde
ENCODING 209
SWIDTH 686 0
DWIDTH 16 0
BBX 17 22 0 0
BITMAP
00002FE540
0000AFFE00
0000015400
0000000000
006FD007C0
07FFE007C0
1F5FE00B80
3D2FF00B40
BC2FF40F40
B83FF81F00
B87FF81E00
B87DFC2E00
28B9FD3D00
00F4FD3C00
00F4BE7C00
01F0BF7800
02E07FB800
02E03FF400
03D02FF000
07C02FF000
07801FE000
0B800FD000
ENDCHAR
STARTCHAR Ograve
ENCODING 210
SWIDTH 665 0
DWIDTH 16 0
BBX 16 24 0 0
BITMAP
0002F000
0001F000
0000F400
0000B400
00000000
00000000
0006FF80
00BE9BF4
07E1A0FC
1F4BD0BD
3D2F80BE
7C7F007E
B8BE00BE
79FD00BE
16FC00BE
03F800FD
03F401FC
07F402F8
07F403F4
07F00BE0
07F41FD0
03F87F40
02FFFD00
006FA000
ENDCHAR
STARTCHAR Oacute
ENCODING 211
SWIDTH 665 0
DWIDTH 16 0
BBX 16 24 0 0
BITMAP
00000190
000002E0
00000780
00000F00
00000900
00000000
0006FF80
00BE9BF4
07E1A0FC
1F4BD0BD
3D2F80BE
7C7F007E
B8BE00BE
79FD00BE
16FC00BE
03F800FD
03F401FC
07F402F8
07F403F4
07F00BE0
07F41FD0
03F87F40
02FFFD00
006FA000
ENDCHAR
STARTCHAR Ocircumflex
ENCODING 212
SWIDTH 665 0
DWIDTH 16 0
BBX 16 24 0 0
BITMAP
00000100
00000B40
00002FC0
0001E4D0
00010050
00000000
0006FF80
00BE9BF4
07E1A0FC
1F4BD0BD
3D2F80BE
7C7F007E
B8BE00BE
79FD00BE
16FC00BE
03F800FD
03F401FC
07F402F8
07F403F4
07F00BE0
07F41FD0
03F87F40
02FFFD00
006FA000
ENDCHAR
STARTCHAR Otilde
ENCODING 213
SWIDTH 665 0
DWIDTH 16 0
BBX 16 22 0 0
BITMAP
0000BFAA
0002AFFD
00000150
00000000
0006FF80
00BE9BF4
07E1A0FC
1F4BD0BD
3D2F80BE
7C7F007E
B8BE00BE
79FD00BE
16FC00BE
03F800FD
03F401FC
07F402F8
07F403F4
07F00BE0
07F41FD0
03F87F40
02FFFD00
006FA000
ENDCHAR
STARTCHAR Odieresis
ENCODING 214
SWIDTH 665 0
DWIDTH 16 0
BBX 16 22 0 0
BITMAP
0002D1E0
0003E2F0
0002D1E0
00000000
0006FF80
00BE9BF4
07E1A0FC
1F4BD0BD
3D2F80BE
7C7F007E
B8BE00BE
79FD00BE
16FC00BE
03F800FD
03F401FC
07F402F8
07F403F4
07F00BE0
07F41FD0
03F87F40
02FFFD00
006FA000
ENDCHAR
STARTCHAR multiply
ENCODING 215
SWIDTH 414 0
DWIDTH 10 0
BBX 8 8 1 4
BITMAP
2018
B87D
2EF8
0BE0
1FE0
7EB8
B82D
1004
ENDCHAR
STARTCHAR Oslash
ENCODING 216
SWIDTH 658 0
DWIDTH 16 0
BBX 15 19 0 -1
BITMAP
00000A00
001AFE40
01BE9FE0
0BD6EDF4
2F1F98FC
7C3F28FC
B8BE34FC
B8FD34FC
7AFC70FC
03F861F8
03F4A2F8
07F0D3F4
07F0C7E0
07F1CBD0
07F29F40
07F6BE00
02FFF400
00BF4000
00060000
ENDCHAR
STARTCHAR Ugrave
ENCODING 217
SWIDTH 716 0
DWIDTH 17 0
BBX 18 24 0 0
BITMAP
00000F4000
00000B4000
0000078000
000003C000
0000000000
0000000000
001BF007F0
02EFE00BE0
0F4FD00BE0
3D1FD00FD0
B81FC01FD0
F42F801FC0
F03F402F80
B07F003F80
107F003F40
00BE007F00
00FD00BE00
00FC00FE00
01FC01FD00
01FC02FC00
01FC03F400
01FE5FE000
00BFFF8000
002FF90000
ENDCHAR
STARTCHAR Uacute
ENCODING 218
SWIDTH 716 0
DWIDTH 17 0
BBX 18 24 0 0
BITMAP
0000007C00
000000F400
000001E000
000002D000
0000024000
0000000000
001BF007F0
02EFE00BE0
0F4FD00BE0
3D1FD00FD0
B81FC01FD0
F42F801FC0
F03F402F80
B07F003F80
107F003F40
00BE007F00
00FD00BE00
00FC00FE00
01FC01FD00
01FC02FC00
01FC03F400
01FE5FE000
00BFFF8000
002FF90000
ENDCHAR
STARTCHAR Ucircumflex
ENCODING 219
SWIDTH 716 0
DWIDTH 17 0
BBX 18 24 0 0
BITMAP
0000002400
000000F800
000007EC00
00001E0D00
0000100100
0000000000
001BF007F0
02EFE00BE0
0F4FD00BE0
3D1FD00FD0
B81FC01FD0
F42F801FC0
F03F402F80
B07F003F80
107F003F40
00BE007F00
00FD00BE00
00FC00FE00
01FC01FD00
01FC02FC00
01FC03F400
01FE5FE000
00BFFF8000
002FF90000
ENDCHAR
STARTCHAR Udieresis
ENCODING 220
SWIDTH 716 0
DWIDTH 17 0
BBX 18 23 0 0
BITMAP
00001D0A00
00003F2F40
00002E1E00
0000000000
0000000000
001BF007F0
02EFE00BE0
0F4FD00BE0
3D1FD00FD0
B81FC01FD0
F42F801FC0
F03F402F80
B07F003F80
107F003F40
00BE007F00
00FD00BE00
00FC00FE00
01FC01FD00
01FC02FC00
01FC03F400
01FE5FE000
00BFFF8000
002FF90000
ENDCHAR
STARTCHAR Yacute
ENCODING 221
SWIDTH 620 0
DWIDTH 15 0
BBX 17 24 0 0
BITMAP
0000000A40
0000002F00
0000003D00
0000007800
000000F000
0000000000
001BE00380
01FFF00700
0B4BF00E00
2D0BF41D00
7C07F82800
B803F83400
B402FC7000
B402FDD000
1401FEC000
0000FF8000
0000BF0000
0000FF0000
0000FE0000
0001FD0000
0002FD0000
0002FC0000
0003FC0000
0007F80000
ENDCHAR
STARTCHAR Thorn
ENCODING 222
SWIDTH 583 0
DWIDTH 14 0
BBX 15 18 0 0
BITMAP
00069000
001FD000
001FC000
006FFE00
02FF9FC0
1F7F43E0
3D7F42F0
B87F01F4
B4BE02F0
B4FE03F0
74FD07D0
01FC1F80
02FD7E00
02FFF800
03F90000
07F40000
07F00000
0BF00000
ENDCHAR
STARTCHAR germandbls
ENCODING 223
SWIDTH 480 0
DWIDTH 12 0
BBX 13 23 -2 -6
BITMAP
0006F800
001FAE00
003F0F00
00BE0F00
00FD1E00
01FC2D00
02FC3800
02F8B000
03F4F400
07F47D00
07F02F00
0BE01F40
0FE01F40
0FD02F40
1FD03F00
1FCABD00
2F8BE400
3F800000
3F400000
7F000000
BF000000
BE000000
94000000
ENDCHAR
STARTCHAR agrave
ENCODING 224
SWIDTH 526 0
DWIDTH 13 0
BBX 15 18 -1 0
BITMAP
000B8000
0007C000
0003C000
0002D000
00000000
00000000
006F7F40
02FDFF40
07F07F00
0FD0BE00
2FC0FE00
3F80FD00
3F41FC00
7F42FC04
7F43F824
7F9BFD60
2FF9FFC0
0BE0BE00
ENDCHAR
STARTCHAR aacute
ENCODING 225
SWIDTH 526 0
DWIDTH 13 0
BBX 15 18 -1 0
BITMAP
00007D00
0000B800
0000F000
0002D000
00028000
00000000
006F7F40
02FDFF40
07F07F00
0FD0BE00
2FC0FE00
3F80FD00
3F41FC00
7F42FC04
7F43F824
7F9BFD60
2FF9FFC0
0BE0BE00
ENDCHAR
STARTCHAR acircumflex
ENCODING 226
SWIDTH 526 0
DWIDTH 13 0
BBX 15 18 -1 0
BITMAP
00002400
0000B800
0002FC00
000E4900
00240100
00000000
006F7F40
02FDFF40
07F07F00
0FD0BE00
2FC0FE00
3F80FD00
3F41FC00
7F42FC04
7F43F824
7F9BFD60
2FF9FFC0
0BE0BE00
ENDCHAR
STARTCHAR atilde
ENCODING 227
SWIDTH 526 0
DWIDTH 13 0
BBX 15 17 -1 0
BITMAP
001BE450
007FFFC0
0056FE00
00000000
00000000
006F7F40
02FDFF40
07F07F00
0FD0BE00
2FC0FE00
3F80FD00
3F41FC00
7F42FC04
7F43F824
7F9BFD60
2FF9FFC0
0BE0BE00
ENDCHAR
STARTCHAR adieresis
ENCODING 228
SWIDTH 526 0
DWIDTH 13 0
BBX 15 17 -1 0
BITMAP
001E0B40
002F5F80
001A0A00
00000000
00000000
006F7F40
02FDFF40
07F07F00
0FD0BE00
2FC0FE00
3F80FD00
3F41FC00
7F42FC04
7F43F824
7F9BFD60
2FF9FFC0
0BE0BE00
ENDCHAR
STARTCHAR aring
ENCODING 229
SWIDTH 526 0
DWIDTH 13 0
BBX 15 17 -1 0
BITMAP
0002E000
0007A400
00066400
0003F000
00004000
006F7F40
02FDFF40
07F07F00
0FD0BE00
2FC0FE00
3F80FD00
3F41FC00
7F42FC04
7F43F824
7F9BFD60
2FF9FFC0
0BE0BE00
ENDCHAR
STARTCHAR ae
ENCODING 230
SWIDTH 650 0
DWIDTH 16 0
BBX 16 12 0 0
BITMAP
01BE4BF4
0B9FFFBC
0407FD2C
0007F83C
0007F4B8
1BFFF6E0
7F9FFF80
FE0FE400
FD1FE002
FE7FE009
FFE7F9B4
2F81FE40
ENDCHAR
STARTCHAR ccedilla
ENCODING 231
SWIDTH 384 0
DWIDTH 9 0
BBX 11 17 -1 -5
BITMAP
006F80
02FAE0
07F0E0
0FD0D0
2FC000
3F8000
3F4000
7F4004
7F4024
3F81A0
2FFF40
0BF800
003000
00BF00
000F40
014B00
02A800
ENDCHAR
STARTCHAR egrave
ENCODING 232
SWIDTH 384 0
DWIDTH 9 0
BBX 11 18 -1 0
BITMAP
003D00
002E00
001E00
000F00
000000
000000
006F80
02FAE0
07F0E0
0FD1E0
2FC3D0
3F9F40
3FF900
7F4000
7F4018
3F4060
2FEA80
0BF900
ENDCHAR
STARTCHAR eacute
ENCODING 233
SWIDTH 384 0
DWIDTH 9 0
BBX 11 18 -1 0
BITMAP
0000B8
0000F0
0002E0
0003C0
000640
000000
006F80
02FAE0
07F0E0
0FD1E0
2FC3D0
3F9F40
3FF900
7F4000
7F4018
3F4060
2FEA80
0BF900
ENDCHAR
STARTCHAR ecircumflex
ENCODING 234
SWIDTH 384 0
DWIDTH 9 0
BBX 11 18 -1 0
BITMAP
000090
0003E0
001FF0
007934
009014
000000
006F80
02FAE0
07F0E0
0FD1E0
2FC3D0
3F9F40
3FF900
7F4000
7F4018
3F4060
2FEA80
0BF900
ENDCHAR
STARTCHAR edieresis
ENCODING 235
SWIDTH 384 0
DWIDTH 9 0
BBX 11 17 -1 0
BITMAP
00B478
00F8BC
00B478
000000
000000
006F80
02FAE0
07F0E0
0FD1E0
2FC3D0
3F9F40
3FF900
7F4000
7F4018
3F4060
2FEA80
0BF900
ENDCHAR
STARTCHAR igrave
ENCODING 236
SWIDTH 267 0
DWIDTH 6 0
BBX 7 18 0 0
BITMAP
1F00
0F00
0B40
0740
0000
0000
1FC0
2F80
3F80
3F40
7F00
BF00
BE00
FD04
FD0C
FE68
FFE0
6E40
ENDCHAR
STARTCHAR iacute
ENCODING 237
SWIDTH 267 0
DWIDTH 6 0
BBX 7 18 0 0
BITMAP
007C
00F4
01E0
03C0
0240
0000
1FC0
2F80
3F80
3F40
7F00
BF00
BE00
FD04
FD0C
FE68
FFE0
6E40
ENDCHAR
STARTCHAR icircumflex
ENCODING 238
SWIDTH 267 0
DWIDTH 6 0
BBX 7 18 0 0
BITMAP
0060
02F0
0BB4
2928
5004
0000
1FC0
2F80
3F80
3F40
7F00
BF00
BE00
FD04
FD0C
FE68
FFE0
6E40
ENDCHAR
STARTCHAR idieresis
ENCODING 239
SWIDTH 267 0
DWIDTH 6 0
BBX 8 17 0 0
BITMAP
7838
BD7D
6828
0000
0000
1FC0
2F80
3F80
3F40
7F00
BF00
BE00
FD04
FD0C
FE68
FFE0
6E40
ENDCHAR
STARTCHAR eth
ENCODING 240
SWIDTH 526 0
DWIDTH 13 0
BBX 15 18 -1 0
BITMAP
00006000
0001F860
0000BFE0
000BFF00
00093F00
00003F40
006F7F40
02FDFF40
07F07F00
0FD0BE00
2FC0FE00
3F80FD00
3F41FC00
7F42FC00
7F43F824
7F9BFD60
2FFDFFC0
0BE0BE00
ENDCHAR
STARTCHAR ntilde
ENCODING 241
SWIDTH 505 0
DWIDTH 12 0
BBX 14 17 -1 0
BITMAP
002F9040
01FFFF00
0117F800
00000000
00000000
07F6F400
0BFAFC00
0FE0FD00
0FD1FD00
1FC1FC00
2FC2FC00
2F82F800
3F43F410
7F43F460
7F03F5D0
BF03FF80
BE01BD00
ENDCHAR
STARTCHAR ograve
ENCODING 242
SWIDTH 433 0
DWIDTH 10 0
BBX 14 18 -1 0
BITMAP
002F0000
001F0000
000B4000
00074000
00000000
00000000
006F8000
02FAE000
0BE0F010
1FD1F5A0
2F81FE40
3F40F000
7F41E000
7F02E000
7F03D000
7F5B8000
3FFE0000
0BE40000
ENDCHAR
STARTCHAR oacute
ENCODING 243
SWIDTH 439 0
DWIDTH 11 0
BBX 15 18 -1 0
BITMAP
0000B800
0000F400
0002E000
0003C000
00064000
00000000
006F8000
02FEE000
07F0B014
0FD1F5A0
2FC1FE40
3F80F000
3F40F000
7F41E000
7F43D000
7F8B8000
2FFE0000
0BF40000
ENDCHAR
STARTCHAR ocircumflex
ENCODING 244
SWIDTH 433 0
DWIDTH 10 0
BBX 14 18 -1 0
BITMAP
0001C000
0007D000
001FE000
00787000
01802000
00000000
006F8000
02FAE000
0BE0F010
1FD1F5A0
2F81FE40
3F40F000
7F41E000
7F02E000
7F03D000
7F5B8000
3FFE0000
0BE40000
ENDCHAR
STARTCHAR otilde
ENCODING 245
SWIDTH 433 0
DWIDTH 10 0
BBX 14 17 -1 0
BITMAP
01BE4100
07FFFC00
056FE000
00010000
00000000
006F8000
02FAE000
0BE0F010
1FD1F5A0
2F81FE40
3F40F000
7F41E000
7F02E000
7F03D000
7F5B8000
3FFE0000
0BE40000
ENDCHAR
STARTCHAR odieresis
ENCODING 246
SWIDTH 433 0
DWIDTH 10 0
BBX 14 17 -1 0
BITMAP
00F0B400
01F4F800
00A0B400
00000000
00000000
006F8000
02FAE000
0BE0F010
1FD1F5A0
2F81FE40
3F40F000
7F41E000
7F02E000
7F03D000
7F5B8000
3FFE0000
0BE40000
ENDCHAR
STARTCHAR divide
ENCODING 247
SWIDTH 415 0
DWIDTH 10 0
BBX 9 12 1 2
BITMAP
00B400
02FC00
02FC00
00B400
000000
BFFF80
555500
000000
078000
0FE000
0FE000
078000
ENDCHAR
STARTCHAR oslash
ENCODING 248
SWIDTH 428 0
DWIDTH 10 0
BBX 13 14 -2 -2
BITMAP
001BE1C0
007FBB00
01FC2D00
03F42D00
0BF0BD00
0FE2BD00
0FDA7C00
1FEC7800
1FF0F400
0FE6E000
0BFF8000
0EF90000
38000000
50000000
ENDCHAR
STARTCHAR ugrave
ENCODING 249
SWIDTH 505 0
DWIDTH 12 0
BBX 13 18 0 0
BITMAP
007C0000
003D0000
002D0000
001E0000
00000000
00000000
1FC2FC00
2F82F800
3F83F400
3F47F400
7F07F000
BF0BF000
BE0FE000
FD0FD040
FD1FD180
FE7FE740
FFDFFE00
6E47E400
ENDCHAR
STARTCHAR uacute
ENCODING 250
SWIDTH 505 0
DWIDTH 12 0
BBX 13 18 0 0
BITMAP
0001F000
0002D000
00078000
000B4000
00090000
00000000
1FC2FC00
2F82F800
3F83F400
3F47F400
7F07F000
BF0BF000
BE0FE000
FD0FD040
FD1FD180
FE7FE740
FFDFFE00
6E47E400
ENDCHAR
STARTCHAR ucircumflex
ENCODING 251
SWIDTH 505 0
DWIDTH 12 0
BBX 13 18 0 0
BITMAP
00018000
000BC000
002ED000
00A4A000
01401000
00000000
1FC2FC00
2F82F800
3F83F400
3F47F400
7F07F000
BF0BF000
BE0FE000
FD0FD040
FD1FD180
FE7FE740
FFDFFE00
6E47E400
ENDCHAR
STARTCHAR udieresis
ENCODING 252
SWIDTH 505 0
DWIDTH 12 0
BBX 13 17 0 0
BITMAP
01E0F000
02F1F400
01A0A000
00000000
00000000
1FC2FC00
2F82F800
3F83F400
3F47F400
7F07F000
BF0BF000
BE0FE000
FD0FD040
FD1FD180
FE7FE740
FFDFFE00
6E47E400
ENDCHAR
STARTCHAR yacute
ENCODING 253
SWIDTH 505 0
DWIDTH 12 0
BBX 13 24 0 -6
BITMAP
0001F000
0002D000
00078000
000B4000
00090000
00000000
1FC2FC00
2F82F800
3F83F400
3F47F400
7F07F000
BF0BE000
BE0FE000
FD0FD040
FD1FD240
FE7FC700
FFFF9D00
6E7FE000
01BF4000
0BBF0000
28BF0000
34FE0000
2FFC0000
0BE00000
ENDCHAR
STARTCHAR thorn
ENCODING 254
SWIDTH 473 0
DWIDTH 11 0
BBX 13 24 -2 -6
BITMAP
001A4000
007F0000
00BF0000
00BE0000
00FD0000
01FC0000
01FDBD00
02FEBF40
03F82F40
03F42F80
07F02F80
0BF02F40
0BE03F40
0FD07F00
1FD0BE00
1FC1FC00
2FEBF400
2FAF8000
3F400000
7F400000
7F000000
BE000000
FE000000
90000000
ENDCHAR
STARTCHAR ydieresis
ENCODING 255
SWIDTH 505 0
DWIDTH 12 0
BBX 13 23 0 -6
BITMAP
02D1E000
03E2F000
02D1A000
00000000
00000000
1FC2FC00
2F82F800
3F83F400
3F47F400
7F07F000
BF0BE000
BE0FE000
FD0FD040
FD1FD240
FE7FC700
FFFF9D00
6E7FE000
01BF4000
0BBF0000
28BF0000
34FE0000
2FFC0000
0BE00000
ENDCHAR
STARTCHAR Amacron
ENCODING 256
SWIDTH 668 0
DWIDTH 16 0
BBX 19 25 0 -3
BITMAP
000003FFF8
0000015550
0000000000
0000000000
0000006F40
000002FF40
00000E7F00
000038BF00
0000F0BE00
0002D0FE00
0007C1FD00
1BFFE5FC00
7E6F6FFC00
BC3D03F800
BCBC03F400
10F807F400
02F407F000
03F00BE000
07E00FE000
0BD00FD000
0BD01FC000
0FC02FC000
0FC0000000
0BC0000000
0140000000
ENDCHAR
STARTCHAR amacron
ENCODING 257
SWIDTH 526 0
DWIDTH 13 0
BBX 15 17 -1 0
BITMAP
003FFFC0
00155540
00000000
00000000
00000000
006F7F40
02FDFF40
07F07F00
0FD0BE00
2FC0FE00
3F80FD00
3F41FC00
7F42FC04
7F43F824
7F9BFD60
2FF9FFC0
0BE0BE00
ENDCHAR
STARTCHAR Abreve
ENCODING 258
SWIDTH 668 0
DWIDTH 16 0
BBX 20 26 0 -3
BITMAP
0000018019
000002E07D
000000BFE4
0000000500
0000000000
0000006F40
000002FF40
00000E7F00
000038BF00
0000F0BE00
0002D0FE00
0007C1FD00
1BFFE5FC00
7E6F6FFC00
BC3D03F800
BCBC03F400
10F807F400
02F407F000
03F00BE000
07E00FE000
0BD00FD000
0BD01FC000
0FC02FC000
0FC0000000
0BC0000000
0140000000
ENDCHAR
STARTCHAR abreve
ENCODING 259
SWIDTH 526 0
DWIDTH 13 0
BBX 15 18 -1 0
BITMAP
00640180
007C03C0
003E1F40
001FF900
00004000
00000000
006F7F40
02FDFF40
07F07F00
0FD0BE00
2FC0FE00
3F80FD00
3F41FC00
7F42FC04
7F43F824
7F9BFD60
2FF9FFC0
0BE0BE00
ENDCHAR
STARTCHAR Aogonek
ENCODING 260
SWIDTH 668 0
DWIDTH 16 0
BBX 17 23 0 -5
BITMAP
0000006F40
000002FF40
00000E7F00
000038BF00
0000F0BE00
0002D0FE00
0007C1FD00
1BFFE5FC00
7E6F6FFC00
BC3D03F800
BCBC03F400
10F807F400
02F407F000
03F00BE000
07E00FE000
0BD00FD000
0BD01FC000
0FC02FC000
0FC01D0000
07C0380000
01407D4000
00003F4000
0000040000
ENDCHAR
STARTCHAR aogonek
ENCODING 261
SWIDTH 526 0
DWIDTH 13 0
BBX 15 17 -1 -5
BITMAP
006F7F40
02FDFF40
07F07F00
0FD0BE00
2FC0FE00
3F80FD00
3F41FC00
7F42FC04
7F43F824
7F9BFD60
2FF9FF80
0BE0BE00
00003400
0000B000
0000F540
0000BE00
00001000
ENDCHAR
STARTCHAR Cacute
ENCODING 262
SWIDTH 497 0
DWIDTH 12 0
BBX 13 24 0 0
BITMAP
00000F40
00001E00
00003D00
00007800
00005000
00000000
000BF900
007F9B40
01FE0780
03F80780
0BF40B80
1FE00600
2FD00000
3FC00000
3FC00000
7F800000
7F800000
7F400000
BF400000
7F800000
7FC00200
3FE56D00
1FFFF400
06FE4000
ENDCHAR
STARTCHAR cacute
ENCODING 263
SWIDTH 384 0
DWIDTH 9 0
BBX 12 18 -1 0
BITMAP
00007D
0000B8
0000F0
0002D0
000280
000000
006F80
02FAE0
07F0E0
0FD1E0
2FC000
3F8000
3F4000
7F4000
7F4018
3F4060
2FEA80
0BF900
ENDCHAR
STARTCHAR Ccircumflex
ENCODING 264
SWIDTH 497 0
DWIDTH 12 0
BBX 13 24 0 0
BITMAP
00002800
0000BC00
0002ED00
000E4A00
00140100
00000000
000BF900
007F9B40
01FE0780
03F80780
0BF40B80
1FE00600
2FD00000
3FC00000
3FC00000
7F800000
7F800000
7F400000
BF400000
7F800000
7FC00200
3FE56D00
1FFFF400
06FE4000
ENDCHAR
STARTCHAR ccircumflex
ENCODING 265
SWIDTH 384 0
DWIDTH 9 0
BBX 11 18 -1 0
BITMAP
000090
0003E0
000FF0
007934
009014
000000
006F80
02FAE0
07F0E0
0FD1E0
2FC000
3F8000
3F4000
7F4000
7F4018
3F4060
2FEA80
0BF900
ENDCHAR
STARTCHAR Cdotaccent
ENCODING 266
SWIDTH 497 0
DWIDTH 12 0
BBX 13 24 0 0
BITMAP
00001E00
00003F40
00003F40
00002E00
00000000
00000000
000BF900
007F9B40
01FE0780
03F80780
0BF40B80
1FE00600
2FD00000
3FC00000
3FC00000
7F800000
7F800000
7F400000
BF400000
7F800000
7FC00200
3FE56D00
1FFFF400
06FE4000
ENDCHAR
STARTCHAR cdotaccent
ENCODING 267
SWIDTH 384 0
DWIDTH 9 0
BBX 11 18 -1 0
BITMAP
0007D0
000BF0
000BF0
0007D0
000000
000000
006F80
02FAE0
07F0E0
0FD1E0
2FC000
3F8000
3F4000
7F4000
7F4018
3F4060
2FEA80
0BF900
ENDCHAR
STARTCHAR Ccaron
ENCODING 268
SWIDTH 497 0
DWIDTH 12 0
BBX 14 24 0 0
BITMAP
00024190
0002DB40
0001FD00
0000F400
00004000
00000000
000BF900
007F9B40
01FE0780
03F80780
0BF40B80
1FE00600
2FD00000
3FC00000
3FC00000
7F800000
7F800000
7F400000
BF400000
7F800000
7FC00200
3FE56D00
1FFFF400
06FE4000
ENDCHAR
STARTCHAR ccaron
ENCODING 269
SWIDTH 384 0
DWIDTH 9 0
BBX 13 18 -1 0
BITMAP
00080640
000E6D00
000BF000
0007C000
00020000
00000000
006F8000
02FAE000
07F0E000
0FD0D000
2FC00000
3F800000
3F400000
7F400400
7F402400
3F81A000
2FFF8000
0BF90000
ENDCHAR
STARTCHAR Dcaron
ENCODING 270
SWIDTH 663 0
DWIDTH 16 0
BBX 16 24 0 0
BITMAP
000240A0
0001DB80
0000FD00
0000B400
00005000
00000000
001BFE40
01FA6FD0
0B8142F4
2E2FC1FC
7C2F80FD
B83F40FD
B47F40FD
B47F00FD
14BE00FD
00FE01FD
00FD01FC
01FC02F8
02FC03F4
02F80BF0
03F40FD0
07F47F80
07FFFF00
0BE6F800
ENDCHAR
STARTCHAR dcaron
ENCODING 271
SWIDTH 525 0
DWIDTH 13 0
BBX 18 18 -1 0
BITMAP
00000007C0
00000157D0
00000FD3C0
00001FC280
00002FC600
00002F8000
006F7F4000
02FEFF4000
07F0BF0000
0FD0BE0000
2FC0FE0000
3F80FD0000
3F41FC0000
7F42FC0000
7F43F82400
7F9BFDA000
2FFEFFC000
0BE0BE0000
ENDCHAR
STARTCHAR Dcroat
ENCODING 272
SWIDTH 663 0
DWIDTH 16 0
BBX 16 18 0 0
BITMAP
001BFA40
01FA6BE0
0B8142F4
2E2FC0FC
7C2F80FD
B83F40FD
B47F00FD
74BF00FD
06FFE0FD
01FE41FD
01FD01FC
01FC02F8
02F803F4
02F80BF0
03F41FD0
07F47F80
07FFFF00
0BE6F800
ENDCHAR
STARTCHAR dcroat
ENCODING 273
SWIDTH 525 0
DWIDTH 13 0
BBX 15 16 -1 0
BITMAP
00000FD0
00001FD0
0002FFF8
00016F94
006F7F80
02FEFF40
07F0BF00
0FD0BF00
2FC0FE00
3F80FD00
3F41FD00
7F42FC00
7F43F824
7F9BF9A0
2FFEFFC0
0BE0BE00
ENDCHAR
STARTCHAR Emacron
ENCODING 274
SWIDTH 459 0
DWIDTH 11 0
BBX 14 22 0 0
BITMAP
001FFFD0
00155540
00000000
00000000
000BF400
007FAD00
00FC0E00
02F40E00
02F42D00
02F41400
02F80000
00BE0000
02FD0000
0FF00000
2FD00000
7F800000
BF400000
BF400100
BF800900
BFD5B400
3FFFD000
0BF90000
ENDCHAR
STARTCHAR emacron
ENCODING 275
SWIDTH 384 0
DWIDTH 9 0
BBX 11 17 -1 0
BITMAP
03FFFC
015554
000000
000000
000000
006F80
02FAE0
07F0E0
0FD1E0
2FC3D0
3F9F40
3FF900
7F4000
7F4018
3F4060
2FEA80
0BF900
ENDCHAR
STARTCHAR Ebreve
ENCODING 276
SWIDTH 459 0
DWIDTH 11 0
BBX 14 23 0 0
BITMAP
002E01F0
001F47D0
000BFE40
00005000
00000000
000BF400
007FAD00
00FC0E00
02F40E00
02F42D00
02F41400
02F80000
00BE0000
02FD0000
0FF00000
2FD00000
7F800000
BF400000
BF400100
BF800900
BFD5B400
3FFFD000
0BF90000
ENDCHAR
STARTCHAR ebreve
ENCODING 277
SWIDTH 384 0
DWIDTH 9 0
BBX 12 18 -1 0
BITMAP
024019
03C03C
02E1B4
00BFD0
000400
000000
006F80
02FAE0
07F0E0
0FD1E0
2FC3D0
3F9F40
3FF900
7F4000
7F4018
3F4060
2FEA80
0BF900
ENDCHAR
STARTCHAR Edotaccent
ENCODING 278
SWIDTH 459 0
DWIDTH 11 0
BBX 12 24 0 0
BITMAP
0000B8
0000FD
0001FD
0000B8
000000
000000
000BF4
007FAD
00FC0E
02F40E
02F42D
02F414
02F800
00BE00
02FD00
0FF000
2FD000
7F8000
BF4000
BF4001
BF8009
BFD5B4
3FFFD0
0BF900
ENDCHAR
STARTCHAR edotaccent
ENCODING 279
SWIDTH 384 0
DWIDTH 9 0
BBX 11 18 -1 0
BITMAP
0007D0
000BE0
000BE0
0007D0
000000
000000
006F80
02FAE0
07F0E0
0FD1E0
2FC3D0
3F9F40
3FF900
7F4000
7F4018
3F4060
2FEA80
0BF900
ENDCHAR
STARTCHAR Eogonek
ENCODING 280
SWIDTH 459 0
DWIDTH 11 0
BBX 12 23 0 -5
BITMAP
006FE4
01FE6D
07F40F
0BE00F
0BE02E
0BE018
03F400
01FE00
01FE00
0FF400
3FD000
7F8000
BF8000
BF8000
BFC009
7FE468
1FFFE0
06FF40
000A00
001D00
002E50
001FD0
000100
ENDCHAR
STARTCHAR eogonek
ENCODING 281
SWIDTH 384 0
DWIDTH 9 0
BBX 11 17 -1 -5
BITMAP
006F80
02FAE0
07F0E0
0FD1E0
2FC3D0
3F9F40
3FF900
7F4000
7F4018
3F80A0
2FFF80
0BFD00
007400
00F000
00F540
00BE00
001000
ENDCHAR
STARTCHAR Ecaron
ENCODING 282
SWIDTH 459 0
DWIDTH 11 0
BBX 14 24 0 0
BITMAP
000240A0
0001DB80
0000FD00
0000B400
00005000
00000000
000BF400
007FAD00
00FC0E00
02F40E00
02F42D00
02F41400
02F80000
00BE0000
02FD0000
0FF00000
2FD00000
7F800000
BF400000
BF400100
BF800900
BFD5B400
3FFFD000
0BF90000
ENDCHAR
STARTCHAR ecaron
ENCODING 283
SWIDTH 384 0
DWIDTH 9 0
BBX 13 18 -1 0
BITMAP
00180640
000D7C00
000BF000
00078000
00020000
00000000
006F8000
02FAE000
07F0E000
0FD1E000
2FC2C000
3F9B4000
3FF80000
7F400000
7F401800
3F406000
2FEA8000
0BF90000
ENDCHAR
STARTCHAR Gcircumflex
ENCODING 284
SWIDTH 578 0
DWIDTH 14 0
BBX 14 29 0 -5
BITMAP
00000600
00002F00
0000BF40
0002D280
00050080
00000000
001AFE00
00BF9BD0
03FD02E0
0BF403E0
1FE00780
3FC00000
7F800000
7F400540
BF400FC0
7F401F80
7F402F40
3F807F40
1FD5FF00
07FEBE00
0050BE00
0000BD00
0050FC00
07F9F800
0F46F400
1E03F000
0F5BD000
07FF4000
00540000
ENDCHAR
STARTCHAR gcircumflex
ENCODING 285
SWIDTH 507 0
DWIDTH 12 0
BBX 14 24 -1 -6
BITMAP
00002400
0000B800
0002FC00
000E4900
00240100
00000000
006F7F40
02FDFF40
07F07F00
0FD0BE00
2FC0FE00
3F80FD00
3F41FC00
7F42FC10
7F43F830
7F9BF490
2FFFF680
0BEBFE00
002FF000
01EFE000
074FD000
071FC000
07BF4000
01F90000
ENDCHAR
STARTCHAR Gbreve
ENCODING 286
SWIDTH 578 0
DWIDTH 14 0
BBX 16 28 0 -5
BITMAP
0007C02D
0003E1B8
0001FFD0
00000400
00000000
001AFE00
00BF9BC0
03FD02E0
0BF402E0
1FE007D0
3FC00140
7F800000
7F400000
BF400FC0
7F401F80
7F402F80
3F807F40
1FD5FF00
07FEBF00
0050BE00
0000BD00
0050FC00
07F9FC00
0F46F400
1E03F000
0F5BD000
07FF4000
00540000
ENDCHAR
STARTCHAR gbreve
ENCODING 287
SWIDTH 507 0
DWIDTH 12 0
BBX 14 23 -1 -6
BITMAP
007C03D0
003D1B80
001FFD00
00004000
00000000
006F7F40
02FDFF40
07F07F00
0FD0BE00
2FC0FE00
3F80FD00
3F41FC00
7F42FC10
7F43F830
7F9BF490
2FFFF680
0BEBFE00
002FF000
01EFE000
074FD000
071FC000
07BF4000
01F90000
ENDCHAR
STARTCHAR Gdotaccent
ENCODING 288
SWIDTH 578 0
DWIDTH 14 0
BBX 14 29 0 -5
BITMAP
00007D00
0000BE00
0000BE00
00007D00
00000000
00000000
001AFE00
00BF9BC0
03FD02E0
0BF402E0
1FE007D0
3FC00140
7F800000
7F400000
BF400FC0
7F401F80
7F402F80
3F807F40
1FD5FF00
07FEBF00
0050BE00
0000BD00
0050FC00
07F9FC00
0F46F400
1E03F000
0F5BD000
07FF4000
00540000
ENDCHAR
STARTCHAR gdotaccent
ENCODING 289
SWIDTH 507 0
DWIDTH 12 0
BBX 14 24 -1 -6
BITMAP
0000B400
0002FC00
0002FC00
0000B400
00000000
00000000
006F7F40
02FDFF40
07F07F00
0FD0BE00
2FC0FE00
3F80FD00
3F41FC00
7F42FC10
7F43F830
7F9BF490
2FFFF680
0BEBFE00
002FF000
01EFE000
074FD000
071FC000
07BF4000
01F90000
ENDCHAR
STARTCHAR Gcommaaccent
ENCODING 290
SWIDTH 578 0
DWIDTH 14 0
BBX 13 24 0 -6
BITMAP
000BF800
007FAF00
01FD0B80
07F80B80
0FF01F40
1FE00500
3FC00000
7F800000
7F800000
BF400F80
BF401F80
FF402F40
BF003F00
BF407F00
7F40BE00
3F81FD00
1FEBFD00
06F9FC00
00000000
00140000
003D0000
002D0000
00180000
00200000
ENDCHAR
STARTCHAR gcommaaccent
ENCODING 291
SWIDTH 507 0
DWIDTH 12 0
BBX 14 24 -1 -6
BITMAP
00006000
0000D000
0002D000
0002F000
00005000
00000000
006F7F40
02FDFF40
07F07F00
0FD0BE00
2FC0FE00
3F80FD00
3F41FC00
7F42FC10
7F43F830
7F9BF490
2FFFF680
0BEBFE00
002FF000
01EFE000
074FD000
071FC000
07BF4000
01F90000
ENDCHAR
STARTCHAR Hcircumflex
ENCODING 292
SWIDTH 665 0
DWIDTH 16 0
BBX 17 24 0 0
BITMAP
0000001000
000000F000
000007F400
00001E6800
0000640C00
0000000000
001BE03F80
01FFD03F40
0B9FC07F00
2E1FC0BF00
7C2F80BE00
B83F80FD00
B83F41FD00
787FAAFC00
14BFFFFC00
00BE02F800
00FD03F400
01FD07F400
01FC07F000
02F80BE000
03F80FE000
03F40FD000
07F41FC000
07F02FC000
ENDCHAR
STARTCHAR hcircumflex
ENCODING 293
SWIDTH 505 0
DWIDTH 12 0
BBX 14 22 -1 0
BITMAP
00010000
000B4000
002F8000
00B6C000
02409000
00040000
01FC0000
02F80000
03F40000
07F40000
07F6F400
0BFFFC00
0FF5FD00
0FE0FD00
1FC1FC00
1FC1FC00
2F82F800
3F83F410
3F43F460
7F03F5D0
BF03FF80
BE01BD00
ENDCHAR
STARTCHAR Hbar
ENCODING 294
SWIDTH 665 0
DWIDTH 16 0
BBX 18 18 0 0
BITMAP
001BE03F80
01FFD03F40
079FD07F40
1E1FC07F00
7D2F80BE00
B8FFFFFFE0
B87F55FD40
B87F41FD00
287FFFFC00
00BE57F800
00FE03F800
00FD07F400
01FC07F000
02FC0BF000
02F80FE000
03F40FD000
07F41FD000
07F02FC000
ENDCHAR
STARTCHAR hbar
ENCODING 295
SWIDTH 505 0
DWIDTH 12 0
BBX 14 18 -1 0
BITMAP
00040000
01FC0000
02F80000
2FFFC000
17F94000
07F40000
0BF6F400
0BFFFC00
0FF5FD00
0FE0FD00
1FC1FC00
2FC1FC00
2F82F800
3F83F410
7F43F460
7F03F5D0
BF03FF80
BE01BD00
ENDCHAR
STARTCHAR Itilde
ENCODING 296
SWIDTH 375 0
DWIDTH 9 0
BBX 13 22 0 0
BITMAP
006F9040
01FFFE00
01055400
00000000
001BD000
01FFD000
0B5FC000
2D2F8000
7C3F8000
B83F4000
B47F0000
B4BF0000
14BE0000
00FE0000
00FD0000
01FC0000
02FC0000
02F80000
03F40000
07F40000
07F00000
0BE00000
ENDCHAR
STARTCHAR itilde
ENCODING 297
SWIDTH 267 0
DWIDTH 6 0
BBX 7 17 0 0
BITMAP
1F94
3FF8
47E0
0000
0000
1FC0
2F80
3F80
3F40
7F00
BF00
BE00
FD04
FD0C
FE68
FFE0
6E40
ENDCHAR
STARTCHAR Imacron
ENCODING 298
SWIDTH 375 0
DWIDTH 9 0
BBX 12 22 0 0
BITMAP
00FFFE
005554
000000
000000
001BD0
01FFD0
0B5FC0
2D2F80
7C3F80
B83F40
B47F00
B4BF00
14BE00
00FE00
00FD00
01FC00
02FC00
02F800
03F400
07F400
07F000
0BE000
ENDCHAR
STARTCHAR imacron
ENCODING 299
SWIDTH 267 0
DWIDTH 6 0
BBX 7 17 0 0
BITMAP
7FFC
5554
0000
0000
0000
1FC0
2F80
3F80
3F40
7F00
BF00
BE00
FD04
FD0C
FE68
FFE0
6E40
ENDCHAR
STARTCHAR Ibreve
ENCODING 300
SWIDTH 375 0
DWIDTH 9 0
BBX 13 23 0 0
BITMAP
00640240
00B91F40
002FF900
00014000
00000000
001BD000
01FFD000
0B5FC000
2D2F8000
7C3F8000
B83F4000
B47F0000
B4BF0000
14BE0000
00FE0000
00FD0000
01FC0000
02FC0000
02F80000
03F40000
07F40000
07F00000
0BE00000
ENDCHAR
STARTCHAR ibreve
ENCODING 301
SWIDTH 267 0
DWIDTH 6 0
BBX 8 18 0 0
BITMAP
2405
380E
2D6C
1FE4
0100
0000
1FC0
2F80
3F80
3F40
7F00
BF00
BE00
FD04
FD0C
FE68
FFE0
6E40
ENDCHAR
STARTCHAR Iogonek
ENCODING 302
SWIDTH 375 0
DWIDTH 9 0
BBX 10 29 0 -6
BITMAP
00B800
007C00
003C00
002D00
000000
001BD0
01FFD0
0B5FC0
2D2F80
7C3F80
B83F40
B47F00
B4BF00
14BE00
00FE00
00FD00
01FC00
02FC00
02F800
03F400
07F400
07F000
0BE000
070000
1E0000
2D0000
1E5800
0FE000
014000
ENDCHAR
STARTCHAR iogonek
ENCODING 303
SWIDTH 267 0
DWIDTH 6 0
BBX 8 23 -1 -6
BITMAP
01F4
02F8
02F8
01F4
0000
07F0
0BE0
0FE0
0FD0
1FC0
2FC0
2F80
3F41
3F43
3F9A
3FF8
1F90
2400
B000
F000
F990
7F40
0400
ENDCHAR
STARTCHAR Idotaccent
ENCODING 304
SWIDTH 375 0
DWIDTH 9 0
BBX 11 23 0 0
BITMAP
0002E0
0007F4
0007F4
0002E0
000000
001BD0
01FFD0
0B5FC0
2D2F80
7C3F80
B83F40
B47F00
B4BF00
14BE00
00FE00
00FD00
01FC00
02FC00
02F800
03F400
07F400
07F000
0BE000
ENDCHAR
STARTCHAR dotlessi
ENCODING 305
SWIDTH 267 0
DWIDTH 6 0
BBX 7 12 0 0
BITMAP
1FC0
2F80
3F80
3F40
7F00
BF00
BE00
FD04
FD0C
FE68
FFE0
6E40
ENDCHAR
STARTCHAR IJ
ENCODING 306
SWIDTH 663 0
DWIDTH 16 0
BBX 16 23 0 -5
BITMAP
001BD01B
01FFD0BE
0B5FC0FE
2D2F80FD
7C3F81FD
B83F42FC
B47F02F8
B4BF03F8
14BE07F4
00FE07F0
00FD0BF0
01FC0FE0
02FC0FD0
02F81FD0
03F42FC0
07F42F80
07F43F80
0BFD7F40
03D1BF00
0780FD00
03D6F800
01FFE000
00150000
ENDCHAR
STARTCHAR ij
ENCODING 307
SWIDTH 507 0
DWIDTH 12 0
BBX 13 23 0 -6
BITMAP
07D02D00
0BE0BF00
0BE0BF00
07D02D00
00000000
1FC0FD00
2F81FD00
3F81FC00
3F42F800
7F03F800
BF03F400
BE07F000
FD0BF040
FD0BE1C0
FE4FD240
FF8FDA00
6E1FF400
00BFC000
07BF8000
0D3F4000
1CBF0000
1FFD0000
07E40000
ENDCHAR
STARTCHAR Jcircumflex
ENCODING 308
SWIDTH 536 0
DWIDTH 13 0
BBX 15 29 0 -5
BITMAP
00000070
000001F4
000007F8
00002D1C
00005004
00000000
00001BE0
0001BFE0
00079FD0
001E1FC0
003D2FC0
007C2F80
00783F40
00787F40
00187F00
0000BE00
0000FE00
0000FD00
0001FC00
0002FC00
0003F800
0003F400
0547F400
2FEBF000
781BE000
B40FD000
7D6F8000
2FFD0000
01400000
ENDCHAR
STARTCHAR jcircumflex
ENCODING 309
SWIDTH 240 0
DWIDTH 6 0
BBX 12 24 -5 -6
BITMAP
000028
0000B8
0003EC
001E49
001401
000000
0007F0
000BE0
000FE0
000FD0
001FD0
002FC0
002F80
003F80
003F46
007F0C
00BF24
00BF90
06FE00
2FFD00
75FC00
A2F800
BBF000
2F8000
ENDCHAR
STARTCHAR Kcommaaccent
ENCODING 310
SWIDTH 601 0
DWIDTH 14 0
BBX 16 23 0 -5
BITMAP
001BD03D
02EFD0B8
1F5FC2E0
3D2F8780
B83F5E00
B43F7800
B47FE000
24BFFE00
00BE2F80
00FD1FC0
00FD1FC0
01FC1FC0
02F82F80
02F83F40
03F43F40
07F47F00
07F07F00
0BE02F40
00000000
000B4000
000F8000
00074000
000A0000
ENDCHAR
STARTCHAR kcommaaccent
ENCODING 311
SWIDTH 518 0
DWIDTH 12 0
BBX 14 23 -1 -6
BITMAP
00580000
02FC0000
02F80000
03F40000
07F40000
07F02E00
0BE0B400
0FE78000
0FEF9000
1FFFF800
2FE6FC00
2F82FC00
3F82F800
3F43F830
7F03F9A0
BF02FFC0
BE00BE00
00000000
00140000
00BC0000
00780000
00340000
00500000
ENDCHAR
STARTCHAR kgreenlandic
ENCODING 312
SWIDTH 518 0
DWIDTH 12 0
BBX 14 12 -1 0
BITMAP
07F02E00
0BE0B400
0FE78000
0FEF9000
1FFFF800
2FE6FC00
2F82FC00
3F82F800
7F43F830
7F03F9A0
BF02FFC0
BE00BE00
ENDCHAR
STARTCHAR Lacute
ENCODING 313
SWIDTH 379 0
DWIDTH 9 0
BBX 16 30 0 -6
BITMAP
00001900
00003D00
00007800
0000F000
0001D000
00000000
001BD000
01FFD000
0B5FC000
2D2F8000
7C3F8000
B83F4000
B47F0000
74BF0000
14BE0000
00FD0000
01FD0000
01FC0000
02F80000
03F80000
03F40000
07F00000
0BF00000
0BF90000
007F8000
000BE400
0001FE41
00007FFE
00000BFD
000001F8
ENDCHAR
STARTCHAR lacute
ENCODING 314
SWIDTH 267 0
DWIDTH 6 0
BBX 9 23 0 0
BITMAP
000A40
001F00
003D00
007800
00F000
000000
01A000
0BF000
0FE000
0FD000
1FD000
1FC000
2F8000
3F8000
3F4000
7F0000
BF0000
BE0000
FD0400
FD0C00
FEB800
FFE000
6E4000
ENDCHAR
STARTCHAR Lcommaaccent
ENCODING 315
SWIDTH 379 0
DWIDTH 9 0
BBX 16 24 0 -6
BITMAP
001BD000
01FFD000
0B5FC000
2D2F8000
7C3F8000
B83F4000
B47F0000
74BF0000
14BE0000
00FD0000
01FD0000
01FC0000
02F80000
03F80000
03F40000
07F00000
0BF00000
0BF90000
007F8000
050BE400
0F41FE41
0B407FFE
07000BFD
080001F8
ENDCHAR
STARTCHAR lcommaaccent
ENCODING 316
SWIDTH 267 0
DWIDTH 6 0
BBX 7 23 0 -6
BITMAP
01A0
0BF0
0FE0
0FD0
1FD0
1FC0
2F80
3F80
3F40
7F00
BF00
BE00
FD04
FD0C
FEB8
FFE0
6E40
0000
5000
F800
B400
7000
8000
ENDCHAR
STARTCHAR Lcaron
ENCODING 317
SWIDTH 379 0
DWIDTH 9 0
BBX 16 30 0 -6
BITMAP
00010050
00034680
0002EE00
0001F400
0000D000
00000000
001BD000
01FFD000
0B5FC000
2D2F8000
7C3F8000
B83F4000
B47F0000
74BF0000
14BE0000
00FD0000
01FD0000
01FC0000
02F80000
03F80000
03F40000
07F00000
0BF00000
0BF90000
007F8000
000BE400
0001FE41
00007FFE
00000BFD
000001F8
ENDCHAR
STARTCHAR lcaron
ENCODING 318
SWIDTH 267 0
DWIDTH 6 0
BBX 10 18 0 0
BITMAP
0002D0
0057E0
0BF2D0
0BE1C0
0FD240
1FD000
1FC000
2F8000
3F8000
3F4000
7F0000
BF0000
BE0000
FD0400
FD0C00
FE6800
FFE000
6E4000
ENDCHAR
STARTCHAR Ldot
ENCODING 319
SWIDTH 605 0
DWIDTH 15 0
BBX 16 24 0 -6
BITMAP
001BD000
01FFD000
0B9FC000
2E2F8000
7C3F8000
B83F4000
B47F0000
B4BF0000
24BE0000
00FD0000
01FD0B80
01FC1FD0
02F81FD0
03F80B80
03F40000
07F40000
0BF00000
0BF80000
007F4000
000BE400
0001FE41
00007FFE
00000BFD
000001F8
ENDCHAR
STARTCHAR ldot
ENCODING 320
SWIDTH 353 0
DWIDTH 8 0
BBX 9 17 0 0
BITMAP
06F000
0BE000
0FE000
0FD000
1FD000
2FC000
2F8000
3F9E00
3F6F40
7F1E00
BF0000
BE0000
FD0000
FD0000
FE4000
FF8000
6E0000
ENDCHAR
STARTCHAR Lslash
ENCODING 321
SWIDTH 392 0
DWIDTH 9 0
BBX 16 24 0 -6
BITMAP
001BD000
01FFD000
0B5FC000
2D2F8000
7C3F8000
B83F5C00
B47FF400
74BF8000
14BE0000
02FD0000
0AFD0000
01FC0000
02F80000
02F80000
03F40000
07F00000
0BF00000
0BF90000
007F8000
000BE400
0001FE41
00007FFE
00000BFD
000001F8
ENDCHAR
STARTCHAR lslash
ENCODING 322
SWIDTH 286 0
DWIDTH 7 0
BBX 9 17 -1 0
BITMAP
006800
02FC00
03F800
03F400
07F440
07FB80
0BF900
0FE000
1FD000
BFC000
6FC000
2F8000
3F4100
3F4300
3FAE00
3FF800
1B9000
ENDCHAR
STARTCHAR Nacute
ENCODING 323
SWIDTH 702 0
DWIDTH 17 0
BBX 17 24 0 0
BITMAP
0000000640
0000001F00
0000003D00
0000007800
000000F000
0000000000
006FD007C0
07FFE007C0
1F5FE00B80
3D2FF00B40
BC2FF40F40
B83FF81F00
B87FF81E00
B87DFC2E00
28B9FD3D00
00F4FD3C00
00F4BE7C00
01F0BF7800
02E07FB800
02E03FF400
03D02FF000
07C02FF000
07801FE000
0B800FD000
ENDCHAR
STARTCHAR nacute
ENCODING 324
SWIDTH 505 0
DWIDTH 12 0
BBX 14 18 -1 0
BITMAP
00002E00
00007C00
0000B400
0000E000
00019000
00000000
07F6F400
0BFAFC00
0FE0FD00
0FD1FD00
1FC1FC00
2FC2FC00
2F82F800
3F43F410
7F43F460
7F03F5D0
BF03FF80
BE01BD00
ENDCHAR
STARTCHAR Ncommaaccent
ENCODING 325
SWIDTH 668 0
DWIDTH 16 0
BBX 17 24 0 -6
BITMAP
006FD007C0
07FFE007C0
1F5FE00B80
3D2FF00B40
BC2FF40F40
B83FF81F00
B87FF81E00
B87DFC2E00
28B9FD3D00
00F4FD3C00
00F4BE7C00
01F0BF7800
02E07FB800
02E03FF400
03D02FF000
07C02FF000
07801FE000
0B800FD000
0000000000
0005000000
000F400000
000B400000
0006000000
0008000000
ENDCHAR
STARTCHAR ncommaaccent
ENCODING 326
SWIDTH 505 0
DWIDTH 12 0
BBX 14 18 -1 -6
BITMAP
07F6F400
0BFAFC00
0FE0FD00
0FD1FD00
1FC1FC00
2FC2FC00
2F82F800
3F43F410
7F43F460
7F03F5D0
BF03FF80
BE01BD00
00000000
00500000
01F00000
00F00000
00A00000
00800000
ENDCHAR
STARTCHAR Ncaron
ENCODING 327
SWIDTH 668 0
DWIDTH 16 0
BBX 17 24 0 0
BITMAP
0000050040
0000030740
000002FD00
000001F400
000000D000
0000000000
006FD007C0
07FFE007C0
1F5FE00B80
3D2FF00B40
BC2FF40F40
B83FF81F00
B87FF81E00
B87DFC2E00
28B9FD3D00
00F4FD3C00
00F4BE7C00
01F0BF7800
02E07FB800
02E03FF400
03D02FF000
07C02FF000
07801FE000
0B800FD000
ENDCHAR
STARTCHAR ncaron
ENCODING 328
SWIDTH 505 0
DWIDTH 12 0
BBX 14 18 -1 0
BITMAP
00240A00
001DB800
000FE000
000B4000
00050000
00000000
07F6F400
0BFAFC00
0FE0FD00
0FD1FD00
1FC1FC00
2FC2FC00
2F82F800
3F43F410
7F43F460
7F03F5D0
BF03FF80
BE01BD00
ENDCHAR
STARTCHAR napostrophe
ENCODING 329
SWIDTH 505 0
DWIDTH 12 0
BBX 14 18 -1 0
BITMAP
0B400000
0F800000
07800000
07000000
09000000
00000000
07F6F400
0BFAFC00
0FE0FD00
0FD1FD00
1FC1FC00
2FC2FC00
2F82F800
3F43F410
7F43F460
7F03F5D0
BF03FF80
BE01BD00
ENDCHAR
STARTCHAR Eng
ENCODING 330
SWIDTH 723 0
DWIDTH 17 0
BBX 18 22 1 -4
BITMAP
006FD003D0
06FFE003C0
1F9FF007C0
3E1FF40B80
7C2FF40B40
B83FF80F40
B83FFC1F00
B87DFC1E00
28B8FD2E00
00B8BE3D00
00F4BE3C00
01F07F7800
01F03FB800
02E02FF400
03D01FF000
03C01FF000
07C00FE000
0B800BD000
00290BC000
007C0F4000
003C2E0000
001FF40000
ENDCHAR
STARTCHAR eng
ENCODING 331
SWIDTH 505 0
DWIDTH 12 0
BBX 11 18 -1 -6
BITMAP
07F6F4
0BFFFC
0FF5FC
0FD1FC
1FC1FC
2FC1F8
2F82F8
3F43F4
7F43F4
7F07F0
BF0BE0
FE0BE0
006FD0
029FC0
051FC0
083F40
0ABE00
02F800
ENDCHAR
STARTCHAR Omacron
ENCODING 332
SWIDTH 665 0
DWIDTH 16 0
BBX 16 22 0 0
BITMAP
0007FFF4
00015550
00000000
00000000
0006FF80
00BE9BF4
07E1A0FC
1F4BD0BD
3D2F80BE
7C7F007E
B8BE00BE
79FD00BE
16FC00BE
03F800FD
03F401FC
07F402F8
07F403F4
07F00BE0
07F41FD0
03F87F40
02FFFD00
006FA000
ENDCHAR
STARTCHAR omacron
ENCODING 333
SWIDTH 433 0
DWIDTH 10 0
BBX 14 17 -1 0
BITMAP
01FFFD00
01555400
00000000
00000000
00000000
006F8000
02FAE000
0BE0F010
1FD1F5A0
2F81FE40
3F40F000
7F41E000
7F02E000
7F03D000
7F5B8000
3FFE0000
0BE40000
ENDCHAR
STARTCHAR Obreve
ENCODING 334
SWIDTH 665 0
DWIDTH 16 0
BBX 16 23 0 0
BITMAP
00019009
0001F46E
0000BFE4
00000500
00000000
0006FF80
00BE9BF4
07E1A0FC
1F4BD0BD
3D2F80BE
7C7F007E
B8BE00BE
79FD00BE
16FC00BE
03F800FD
03F401FC
07F402F8
07F403F4
07F00BE0
07F41FD0
03F87F40
02FFFD00
006FA000
ENDCHAR
STARTCHAR obreve
ENCODING 335
SWIDTH 433 0
DWIDTH 10 0
BBX 14 18 -1 0
BITMAP
01900600
01F01F00
00F47D00
007FE400
00010000
00000000
006F8000
02FAE000
0BE0F010
1FD1F5A0
2F81FE40
3F40F000
7F41E000
7F02E000
7F03D000
7F5B8000
3FFE0000
0BE40000
ENDCHAR
STARTCHAR Ohungarumlaut
ENCODING 336
SWIDTH 665 0
DWIDTH 16 0
BBX 17 23 0 0
BITMAP
000007D7C0
00000B4F40
00001D1D00
0000283800
0000000000
0006FF8000
00BE9BF400
07E1A0FC00
1F4BD0BD00
3D2F80BE00
7C7F007E00
B8BE00BE00
79FD00BE00
16FC00BE00
03F800FD00
03F401FC00
07F402F800
07F403F400
07F00BE000
07F41FD000
03F87F4000
02FFFD0000
006FA00000
ENDCHAR
STARTCHAR ohungarumlaut
ENCODING 337
SWIDTH 433 0
DWIDTH 10 0
BBX 14 18 -1 0
BITMAP
000B8B80
001E1E00
002C3800
00747000
00000000
00000000
006F8000
02FAE000
0BE0F010
1FD1F5A0
2F81FE40
3F40F000
7F41E000
7F02E000
7F03D000
7F5B8000
3FFE0000
0BE40000
ENDCHAR
STARTCHAR OE
ENCODING 338
SWIDTH 846 0
DWIDTH 20 0
BBX 22 18 0 0
BITMAP
0006FFAFFFE0
00BE9BFFFFD0
07E1A0FD6A40
1F4BD0BD0000
3D2F80BE0000
7C7F007E0000
B8FE00BE0000
79FD00BE0000
16FC00BFF800
03F800FEA400
03F801FC0000
07F402F80000
07F403F40000
07F007F00000
07F40FD00000
03F42FEAA400
02FEBFFFF400
006FFFFFF000
ENDCHAR
STARTCHAR oe
ENCODING 339
SWIDTH 663 0
DWIDTH 16 0
BBX 17 12 0 0
BITMAP
01BE06F800
0BEBAFEE00
2F83FF0A00
7F0BFD0E00
BE0BFC1C00
FD03F87400
FD03FF8000
FC07F40080
FC0BF40240
FE5FF80A00
BFF9FFB800
2FD06F9000
ENDCHAR
STARTCHAR Racute
ENCODING 340
SWIDTH 601 0
DWIDTH 14 0
BBX 14 24 0 0
BITMAP
000007D0
00000B80
00001F00
00002D00
00001400
00000000
001BFA00
02FA6FD0
0F8542E0
3D2F82F0
BC3F82E0
B83F47D0
B47F6F40
247FFF40
00BE6FC0
00FD1FC0
00FD1FC0
01FC1FC0
02F82F80
02F83F40
03F43F40
07F47F00
07F07F00
0BE02F40
ENDCHAR
STARTCHAR racute
ENCODING 341
SWIDTH 376 0
DWIDTH 9 0
BBX 11 18 -1 0
BITMAP
0000F4
0002E0
0003C0
000B40
000900
000000
07F6E0
0BFFF4
0FE1E0
0FD000
1FC000
2FC000
2F8000
3F4000
7F4000
7F0000
BF0000
BE0000
ENDCHAR
STARTCHAR Rcommaaccent
ENCODING 342
SWIDTH 601 0
DWIDTH 14 0
BBX 14 23 0 -5
BITMAP
001BFA00
02FA6FD0
0F8542E0
3D2F82F0
BC3F82E0
B83F47D0
B47F6F40
247FFF40
00BE6FC0
00FD1FC0
00FD1FC0
01FC1FC0
02F82F80
02F83F40
03F43F40
07F47F00
07F07F00
0BE02F40
00000000
001E0000
001F0000
000A0000
000C0000
ENDCHAR
STARTCHAR rcommaaccent
ENCODING 343
SWIDTH 376 0
DWIDTH 9 0
BBX 11 18 -1 -6
BITMAP
07F6E0
0BFFF4
0FE1E0
0FD000
1FC000
2FC000
2F8000
3F4000
7F4000
7F0000
BF0000
BE0000
000000
050000
0F8000
078000
070000
090000
ENDCHAR
STARTCHAR Rcaron
ENCODING 344
SWIDTH 601 0
DWIDTH 14 0
BBX 15 24 0 0
BITMAP
00009028
000076E0
00003F40
00002D00
00001400
00000000
001BFA00
02FA6FD0
0F8542E0
3D2F82F0
BC3F82E0
B83F47D0
B47F6F40
247FFF40
00BE6FC0
00FD1FC0
00FD1FC0
01FC1FC0
02F82F80
02F83F40
03F43F40
07F47F00
07F07F00
0BE02F40
ENDCHAR
STARTCHAR rcaron
ENCODING 345
SWIDTH 376 0
DWIDTH 9 0
BBX 11 18 -1 0
BITMAP
008064
00A6D0
007F40
003D00
001000
000000
07F6E0
0BFFF4
0FE1E0
0FD000
1FC000
2FC000
2F8000
3F4000
7F4000
7F0000
BF0000
BE0000
ENDCHAR
STARTCHAR Sacute
ENCODING 346
SWIDTH 570 0
DWIDTH 14 0
BBX 13 24 1 0
BITMAP
00001F00
00003D00
00007800
0000F000
00009000
00000000
002BE400
01FEBE00
03F40F00
07F00F40
07F42F00
03F81900
02FD0000
00FF4000
007FD000
001FF000
1A4BF800
7FC2FC00
FD01FD00
F801FD00
F802FC00
FC07F400
7FAFD000
0BFA0000
ENDCHAR
STARTCHAR sacute
ENCODING 347
SWIDTH 382 0
DWIDTH 9 0
BBX 11 18 -1 0
BITMAP
0000F4
0001F0
0003D0
000780
000600
001600
00BF00
00FF00
01FF00
03BF40
077F40
0D3F40
1C3F40
7C3F80
BC3FA8
A07FD0
7AFE00
1BE400
ENDCHAR
STARTCHAR Scircumflex
ENCODING 348
SWIDTH 570 0
DWIDTH 14 0
BBX 13 24 1 0
BITMAP
00001800
0000BC00
0002ED00
000A4600
00140100
00000000
002BE400
01FEBE00
03F40F00
07F00F40
07F42F00
03F81900
02FD0000
00FF4000
007FD000
001FF000
1A4BF800
7FC2FC00
FD01FD00
F801FD00
F802FC00
FC07F400
7FAFD000
0BFA0000
ENDCHAR
STARTCHAR scircumflex
ENCODING 349
SWIDTH 382 0
DWIDTH 9 0
BBX 11 18 -1 0
BITMAP
000240
000B80
003FC0
01E4D0
024050
001600
00BF00
00FF00
01FF00
03BF40
077F40
0D3F40
1C3F40
7C3F80
BC3FA8
A07FD0
7AFE00
1BE400
ENDCHAR
STARTCHAR Scedilla
ENCODING 350
SWIDTH 570 0
DWIDTH 14 0
BBX 13 24 1 -6
BITMAP
002BE400
01FEBE00
03F41F00
07F00F40
07F42F00
07F81900
02FD0000
00FF4000
007FD000
001FF000
050BF800
7FC3FC00
BE01FD00
F801FD00
F801FC00
FC03F400
7EAFE000
1BFE4000
00900000
01FD0000
002F0000
056E0000
03FC0000
00500000
ENDCHAR
STARTCHAR scedilla
ENCODING 351
SWIDTH 382 0
DWIDTH 9 0
BBX 11 19 -1 -6
BITMAP
005A00
00BF00
00FF00
02FF40
037F40
067F40
0D3F40
183F40
7C3F84
BC3FA4
A0BFD0
7FFE00
1FE400
060000
0FE000
00F400
25F000
2FD000
050000
ENDCHAR
STARTCHAR Scaron
ENCODING 352
SWIDTH 570 0
DWIDTH 14 0
BBX 14 24 1 0
BITMAP
000240A0
0001DB80
0000FE00
0000B400
00001000
00000000
002BE400
01FEBE00
03F40F00
07F00F40
07F42F00
03F81900
02FD0000
00FF4000
007FD000
001FF000
1A4BF800
7FC2FC00
FD01FD00
F801FD00
F802FC00
FC07F400
7FAFD000
0BFA0000
ENDCHAR
STARTCHAR scaron
ENCODING 353
SWIDTH 369 0
DWIDTH 9 0
BBX 11 18 -1 0
BITMAP
009028
0076E0
003F80
002D00
001400
001600
00BF00
00FF00
02FF40
037F40
067F40
0D3F40
1C3F40
7C3F84
B83FA4
A0BFD0
7FFE00
1BE400
ENDCHAR
STARTCHAR uni0162
ENCODING 354
SWIDTH 481 0
DWIDTH 12 0
BBX 17 24 0 -6
BITMAP
006FFA4080
07E7FFFFC0
1E03FFFF80
3C07FAAA00
7807F40000
B40BF00000
B40FE00000
B40FE00000
681FD00000
001FC00000
002FC00000
003F800000
003F400000
007F400000
00BF000000
00BE000000
00FE000000
00FD000000
0030000000
007A000000
005F800000
025B400000
01FE000000
0010000000
ENDCHAR
STARTCHAR uni0163
ENCODING 355
SWIDTH 267 0
DWIDTH 6 0
BBX 8 22 -1 -6
BITMAP
0168
02F8
03F4
07F4
1FFD
0BF5
0BE0
0FD0
1FD0
1FC0
2F80
3F80
3F43
3F9A
3FF8
1F90
0C00
1F80
16E0
96D0
7F80
0400
ENDCHAR
STARTCHAR Tcaron
ENCODING 356
SWIDTH 481 0
DWIDTH 12 0
BBX 17 24 0 0
BITMAP
0000401400
0000D1E000
0000BF4000
00007D0000
0000340000
0000000000
006FFA4080
07E7FFFFC0
1E03FFFF80
3C07FAAA00
7807F40000
B40BF00000
B40FE00000
B40FE00000
681FD00000
001FC00000
002FC00000
003F800000
003F400000
007F400000
00BF000000
00BE000000
00FE000000
00FD000000
ENDCHAR
STARTCHAR tcaron
ENCODING 357
SWIDTH 267 0
DWIDTH 6 0
BBX 10 18 0 0
BITMAP
0002E0
0003F0
0151E0
0BE1C0
0FD240
1FD000
7FF400
2FD400
2F8000
3F4000
7F4000
7F0000
BE0000
FE0000
FD0C00
FE6800
FFE000
7E4000
ENDCHAR
STARTCHAR Tbar
ENCODING 358
SWIDTH 481 0
DWIDTH 12 0
BBX 17 18 0 0
BITMAP
006FFA4080
07E7FFFFC0
2E03FFFF80
7C07F46A00
B807F00000
B40BF00000
B40FE00000
740FD00000
141FD00000
002FC00000
0FFFFF8000
057F950000
003F400000
007F000000
00BF000000
00BE000000
00FE000000
00FD000000
ENDCHAR
STARTCHAR tbar
ENCODING 359
SWIDTH 267 0
DWIDTH 6 0
BBX 8 16 -1 0
BITMAP
0168
02F8
03F4
07F4
1FFD
1FF9
7FFD
1FD4
1FC0
2FC0
2F80
3F41
3F43
3F9E
3FF8
1B90
ENDCHAR
STARTCHAR Utilde
ENCODING 360
SWIDTH 716 0
DWIDTH 17 0
BBX 18 22 0 0
BITMAP
00001BFA90
00006BFF80
0000005400
0000000000
001BF007F0
02EFE00BE0
0F4FD00BE0
3D1FD00FD0
B81FC01FD0
F42F801FC0
F03F402F80
B07F003F80
107F003F40
00BE007F00
00FD00BE00
00FC00FE00
01FC01FD00
01FC02FC00
01FC03F400
01FE5FE000
00BFFF8000
002FF90000
ENDCHAR
STARTCHAR utilde
ENCODING 361
SWIDTH 505 0
DWIDTH 12 0
BBX 13 17 0 0
BITMAP
00BE4100
07FFFC00
045FE000
00000000
00000000
1FC2FC00
2F82F800
3F83F400
3F47F400
7F07F000
BF0BF000
BE0FE000
FD0FD040
FD1FD180
FE7FE740
FFDFFE00
6E47E400
ENDCHAR
STARTCHAR Umacron
ENCODING 362
SWIDTH 716 0
DWIDTH 17 0
BBX 18 22 0 0
BITMAP
00003FFF80
0000155540
0000000000
0000000000
001BF007F0
02EFE00BE0
0F4FD00BE0
3D1FD00FD0
B81FC01FD0
F42F801FC0
F03F402F80
B07F003F80
107F003F40
00BE007F00
00FD00BE00
00FC00FE00
01FC01FD00
01FC02FC00
01FC03F400
01FE5FE000
00BFFF8000
002FF90000
ENDCHAR
STARTCHAR umacron
ENCODING 363
SWIDTH 505 0
DWIDTH 12 0
BBX 13 17 0 0
BITMAP
03FFF800
01555400
00000000
00000000
00000000
1FC2FC00
2F82F800
3F83F400
3F47F400
7F07F000
BF0BF000
BE0FE000
FD0FD040
FD1FD180
FE7FE740
FFDFFE00
6E47E400
ENDCHAR
STARTCHAR Ubreve
ENCODING 364
SWIDTH 716 0
DWIDTH 17 0
BBX 18 23 0 0
BITMAP
0000180190
00002E07D0
00001BFE00
0000005000
0000000000
001BF007F0
02EFE00BE0
0F4FD00BE0
3D1FD00FD0
B81FC01FD0
F42F801FC0
F03F402F80
B07F003F80
107F003F40
00BE007F00
00FD00BE00
00FC00FE00
01FC01FD00
01FC02FC00
01FC03F400
01FE5FE000
00BFFF8000
002FF90000
ENDCHAR
STARTCHAR ubreve
ENCODING 365
SWIDTH 505 0
DWIDTH 12 0
BBX 13 18 0 0
BITMAP
02401900
03C03D00
02E1B800
00BFD000
00040000
00000000
1FC2FC00
2F82F800
3F83F400
3F47F400
7F07F000
BF0BF000
BE0FE000
FD0FD040
FD1FD180
FE7FE740
FFDFFE00
6E47E400
ENDCHAR
STARTCHAR Uring
ENCODING 366
SWIDTH 716 0
DWIDTH 17 0
BBX 18 23 0 0
BITMAP
000001F000
0000036800
0000036800
000002F000
0000004000
001BF007F0
02EFE00BE0
0F4FD00BE0
3D1FD00FD0
B81FC01FD0
F42F801FC0
F03F402F80
B07F003F80
107F003F40
00BE007F00
00FD00BE00
00FC00FE00
01FC01FD00
01FC02FC00
01FC03F400
01FE5FE000
00BFFF8000
002FF90000
ENDCHAR
STARTCHAR uring
ENCODING 367
SWIDTH 505 0
DWIDTH 12 0
BBX 13 17 0 0
BITMAP
001E0000
003A4000
00364000
003F0000
00040000
1FC2FC00
2F82F800
3F83F400
3F47F400
7F07F000
BF0BF000
BE0FE000
FD0FD040
FD1FD180
FE7FE740
FFDFFE00
6E47E400
ENDCHAR
STARTCHAR Uhungarumlaut
ENCODING 368
SWIDTH 716 0
DWIDTH 17 0
BBX 19 24 0 0
BITMAP
000000F4F4
000002E2D0
0000038780
00000A0A00
0000000000
0000000000
001BF007F0
02EFE00BE0
0F4FD00BE0
3D1FD00FD0
B81FC01FD0
F42F801FC0
F03F402F80
B07F003F80
107F003F40
00BE007F00
00FD00BE00
00FC00FE00
01FC01FD00
01FC02FC00
01FC03F400
01FE5FE000
00BFFF8000
002FF90000
ENDCHAR
STARTCHAR uhungarumlaut
ENCODING 369
SWIDTH 505 0
DWIDTH 12 0
BBX 13 18 0 0
BITMAP
002E2E00
003C7800
00B4B000
01D1D000
00000000
00000000
1FC2FC00
2F82F800
3F83F400
3F47F400
7F07F000
BF0BF000
BE0FE000
FD0FD040
FD1FD180
FE7FE740
FFDFFE00
6E47E400
ENDCHAR
STARTCHAR Uogonek
ENCODING 370
SWIDTH 716 0
DWIDTH 17 0
BBX 18 29 0 -6
BITMAP
00000F4000
00000B4000
0000078000
000003C000
0000000000
001BF007F0
02EFE00BE0
0F4FD00BE0
3D0FD00FD0
B81FC01FD0
F42F801FC0
F03F402F80
F07F003F80
107F003F40
00BE007F00
00FD00BF00
00FC00FE00
01FC00FD00
01FC02FC00
01FC03F400
01FE5BE000
00BFFFC000
002FF90000
0003400000
000B000000
000F000000
000F580000
0007F40000
0000400000
ENDCHAR
STARTCHAR uogonek
ENCODING 371
SWIDTH 505 0
DWIDTH 12 0
BBX 13 17 0 -5
BITMAP
1FC2FC00
2F82F800
3F83F400
3F47F400
7F07F000
BF0BF000
BE0FE000
FD0FD040
FD1FD180
FE7FE740
FFDFFE00
6E47E400
00034000
000B0000
000F0000
000FAC00
0007E000
ENDCHAR
STARTCHAR Wcircumflex
ENCODING 372
SWIDTH 962 0
DWIDTH 23 0
BBX 25 24 0 0
BITMAP
00000000140000
00000000780000
00000001FC0000
000000079D0000
00000029060000
00000000000000
001BE007F00380
01FFE00BF00740
0B4FE00FF00B00
2D0FE01FF00D00
7C0FE02FF01C00
B80FE03FF02800
B40FE07BF03400
B40FE0ABF07000
140FE0DBF0A000
000FE1CBF0D000
000FE28BF1C000
000BE34BF28000
000BE707F30000
000BE907FA0000
000BFC07FD0000
000BF807FC0000
000BF407F80000
000BF007F40000
ENDCHAR
STARTCHAR wcircumflex
ENCODING 373
SWIDTH 661 0
DWIDTH 16 0
BBX 16 18 0 0
BITMAP
00001C00
00007D00
0001FD00
00078A00
00190200
00000000
1FC2FC7C
2F82F87D
3F83F40D
3F47F40D
7F07F01D
BF0BF02C
BE0FE038
FD0FD074
FD1FD0E0
FE7FE7C0
FFDFFF40
6E46F900
ENDCHAR
STARTCHAR Ycircumflex
ENCODING 374
SWIDTH 620 0
DWIDTH 15 0
BBX 17 24 0 0
BITMAP
0000001000
000000B000
000002F400
00001F6800
0000640C00
0000000000
001BE00380
01FFF00700
0B4BF00E00
2D0BF41D00
7C07F82800
B803F83400
B402FC7000
B402FDD000
1401FEC000
0000FF8000
0000BF0000
0000FF0000
0000FE0000
0001FD0000
0002FD0000
0002FC0000
0003FC0000
0007F80000
ENDCHAR
STARTCHAR ycircumflex
ENCODING 375
SWIDTH 505 0
DWIDTH 12 0
BBX 13 24 0 -6
BITMAP
00028000
000BC000
002ED000
00A4A000
01401000
00000000
1FC2FC00
2F82F800
3F83F400
3F47F400
7F07F000
BF0BE000
BE0FE000
FD0FD040
FD1FD240
FE7FC700
FFFF9D00
6E7FE000
01BF4000
0BBF0000
28BF0000
34FE0000
2FFC0000
0BE00000
ENDCHAR
STARTCHAR Ydieresis
ENCODING 376
SWIDTH 620 0
DWIDTH 15 0
BBX 17 22 0 0
BITMAP
00001E1E00
00003F2F40
00001D1A00
0000000000
001BE00380
01FFF00700
0B4BF00E00
2D0BF41D00
7C07F82800
B803F83400
B402FC7000
B402FDD000
1401FEC000
0000FF8000
0000BF0000
0000FF0000
0000FE0000
0001FD0000
0002FD0000
0002FC0000
0003FC0000
0007F80000
ENDCHAR
STARTCHAR Zacute
ENCODING 377
SWIDTH 542 0
DWIDTH 13 0
BBX 13 24 0 0
BITMAP
00000280
00000B80
00000F00
00002D00
00003800
00000000
02FFFFC0
0BA5BF40
0F80FF00
0B41FD00
0003FC00
0007F400
000FF000
001FD000
003FC000
007F4000
00FF0000
01FD0000
03FC0000
07F40000
0FF01E00
1FD02F00
3FE5AE00
7FFFF800
ENDCHAR
STARTCHAR zacute
ENCODING 378
SWIDTH 428 0
DWIDTH 10 0
BBX 10 18 0 0
BITMAP
0001F0
0003D0
000780
000F00
000900
000000
07FFF0
1E5FD0
2E1FC0
193F40
00BE00
01FD00
02F800
07F000
0FD140
2FC3D0
3F97C0
BFFE40
ENDCHAR
STARTCHAR Zdotaccent
ENCODING 379
SWIDTH 530 0
DWIDTH 13 0
BBX 13 22 0 0
BITMAP
0001E000
0002F000
0001E000
00000000
02FFFFC0
0BA5BF40
0F80FF00
0B41FD00
0003FC00
0007F400
000FF000
001FD000
003FC000
007F4000
00FF0000
01FD0000
03FC0000
07F40000
0FF01E00
1FD02F00
3FE5AE00
7FFFF800
ENDCHAR
STARTCHAR zdotaccent
ENCODING 380
SWIDTH 428 0
DWIDTH 10 0
BBX 10 17 0 0
BITMAP
001E00
002F00
001E00
000000
000000
07FFF0
1E5FD0
2E1FC0
193F40
00BE00
01FD00
02F800
07F000
0FD140
2FC3D0
3F97C0
BFFE40
ENDCHAR
STARTCHAR Zcaron
ENCODING 381
SWIDTH 542 0
DWIDTH 13 0
BBX 14 24 0 0
BITMAP
00010010
000182D0
0000EF40
0000B800
00006000
00000000
02FFFFC0
0BA5BF40
0F80FF00
0B41FD00
0003FC00
0007F400
000FF000
001FD000
003FC000
007F4000
00FF0000
01FD0000
03FC0000
07F40000
0FF01E00
1FD02F00
3FE5AE00
7FFFF800
ENDCHAR
STARTCHAR zcaron
ENCODING 382
SWIDTH 428 0
DWIDTH 10 0
BBX 11 18 0 0
BITMAP
006028
0035E0
002F80
001E00
000400
000000
07FFF0
1E5FD0
2E1FC0
193F40
00BE00
01FD00
02F800
07F000
0FD140
2FC3D0
3F97C0
BFFE40
ENDCHAR
STARTCHAR longs
ENCODING 383
SWIDTH 267 0
DWIDTH 6 0
BBX 15 24 -5 -6
BITMAP
00002F90
0000BEB0
0001F834
0002F810
0003F400
0007F000
002FF000
001BE000
000BD000
000FD000
001FC000
001FC000
002F8000
003F4000
003F4000
007F0000
00BE0000
00BE0000
06FD0000
75FD0000
91FC0000
E7F80000
BFF00000
2F800000
ENDCHAR
STARTCHAR uni018F
ENCODING 399
SWIDTH 544 0
DWIDTH 13 0
BBX 13 18 0 0
BITMAP
006FE000
03FFFD00
0BFFFF00
0B40BF40
05007F80
00003FC0
00003FC0
00003FC0
001BFF80
01FEBF80
07E0BF40
1F80FF00
3F01FD00
7E02F800
7E07F400
7E0FD000
3FBF4000
0BE80000
ENDCHAR
STARTCHAR florin
ENCODING 402
SWIDTH 267 0
DWIDTH 6 0
BBX 17 24 -6 -6
BITMAP
000001BE00
000007EF40
00001FCB40
00002F4F00
00007F0000
0000BE0000
000BFFF400
0006FE5000
0001FC0000
0002F80000
0003F40000
0007F40000
000BF00000
000BE00000
000FD00000
001FC00000
002F800000
003F400000
007F000000
00BE000000
74FD000000
F5F8000000
F7E0000000
6F80000000
ENDCHAR
STARTCHAR Ohorn
ENCODING 416
SWIDTH 665 0
DWIDTH 16 0
BBX 18 21 0 0
BITMAP
00000002D0
00000003D0
00000003C0
0006FE4780
00BE9BEF00
07E1A0FC00
1F4BD0BD00
3D2F80BE00
7C7F007E00
B8BE00BE00
79FD00BE00
16FC00BE00
03F800FD00
03F401FC00
07F402F800
07F403F400
07F00BF000
07F41FD000
03F87F4000
02FFFD0000
006FA00000
ENDCHAR
STARTCHAR ohorn
ENCODING 417
SWIDTH 439 0
DWIDTH 11 0
BBX 13 15 -1 0
BITMAP
00000780
00000780
00000740
006F9F00
01FEFC00
07F0B400
0FD0B400
2FC0B400
3F80F400
7F40F000
7F42E000
7F43D000
3F9F8000
2FFE0000
0BE40000
ENDCHAR
STARTCHAR Uhorn
ENCODING 431
SWIDTH 716 0
DWIDTH 17 0
BBX 21 22 0 0
BITMAP
000000000780
0000000007C0
000000000780
000000000F00
001BF007FD00
02EFE00BF400
0F4FD00BE000
3D1FD00FD000
B81FC01FD000
F42F801FC000
F03F402F8000
B07F003F8000
107F003F4000
00BE007F0000
00FD00BF0000
00FC00FE0000
01FC01FD0000
01FC02FC0000
01FC03F40000
01FE5FE00000
00BFFF800000
002FF9000000
ENDCHAR
STARTCHAR uhorn
ENCODING 432
SWIDTH 505 0
DWIDTH 12 0
BBX 13 16 0 0
BITMAP
000002C0
000003C0
00000380
00000740
1FC2FD00
2F82F800
3F83F400
3F47F400
7F07F000
BF0BE000
BE0FE000
FD0FD040
FD1FD180
FE7FE740
FFDFFE00
6E47E400
ENDCHAR
STARTCHAR uni01B7
ENCODING 439
SWIDTH 555 0
DWIDTH 13 0
BBX 14 18 0 0
BITMAP
01FFFFD0
07E57F80
0BC0BF00
0781FD00
0003F400
000BE000
002FC000
003F9000
006FF800
0002FE00
0000FF00
0000FF00
0400FF00
3D00FE00
7C01FD00
7C03F800
3E6FE000
0BFE4000
ENDCHAR
STARTCHAR uni01CD
ENCODING 461
SWIDTH 668 0
DWIDTH 16 0
BBX 20 27 0 -3
BITMAP
0000001401
0000001C1D
0000000EF4
0000000BD0
0000000700
0000000000
0000006F40
000002FF40
00000E7F00
000038BF00
0000F0BE00
0002D0FE00
0007C1FD00
1BFFE5FC00
7E6F6FFC00
BC3D03F800
BCBC03F400
10F807F400
02F407F000
03F00BE000
07E00FE000
0BD00FD000
0BD01FC000
0FC02FC000
0FC0000000
0BC0000000
0140000000
ENDCHAR
STARTCHAR uni01CE
ENCODING 462
SWIDTH 526 0
DWIDTH 13 0
BBX 15 18 -1 0
BITMAP
00060190
00035F00
0002F800
0001E000
00008000
00000000
006F7F40
02FDFF40
07F07F00
0FD0BE00
2FC0FE00
3F80FD00
3F41FC00
7F42FC04
7F43F824
7F9BFD60
2FF9FFC0
0BE0BE00
ENDCHAR
STARTCHAR uni01CF
ENCODING 463
SWIDTH 375 0
DWIDTH 9 0
BBX 13 24 0 0
BITMAP
00040040
00060B40
0003BD00
0002F000
00018000
00000000
001BD000
01FFD000
0B5FC000
2D2F8000
7C3F8000
B83F4000
B47F0000
B4BF0000
14BE0000
00FE0000
00FD0000
01FC0000
02FC0000
02F80000
03F40000
07F40000
07F00000
0BE00000
ENDCHAR
STARTCHAR uni01D0
ENCODING 464
SWIDTH 267 0
DWIDTH 6 0
BBX 9 18 0 0
BITMAP
0C0640
0A6D00
07F400
038000
010000
000000
1FC000
2F8000
3F8000
3F4000
7F0000
BF0000
BE0000
FD0400
FD0C00
FE6800
FFE000
6E4000
ENDCHAR
STARTCHAR uni01D1
ENCODING 465
SWIDTH 665 0
DWIDTH 16 0
BBX 17 24 0 0
BITMAP
0000040140
00000D1E00
00000BF400
000003C000
0000010000
0000000000
0006FF8000
00BE9BF400
07E1A0FC00
1F4BD0BD00
3D2F80BE00
7C7F007E00
B8BE00BE00
79FD00BE00
16FC00BE00
03F800FD00
03F401FC00
07F402F800
07F403F400
07F00BE000
07F41FD000
03F87F4000
02FFFD0000
006FA00000
ENDCHAR
STARTCHAR uni01D2
ENCODING 466
SWIDTH 433 0
DWIDTH 10 0
BBX 14 18 -1 0
BITMAP
00240A00
001DB800
000FE000
000B8000
00050000
00000000
006F8000
02FAE000
0BE0F010
1FD1F5A0
2F81FE40
3F40F000
7F41E000
7F02E000
7F03D000
7F5B8000
3FFE0000
0BE40000
ENDCHAR
STARTCHAR uni01D3
ENCODING 467
SWIDTH 716 0
DWIDTH 17 0
BBX 18 24 0 0
BITMAP
00000241A0
000001DB40
000000FD00
000000B400
0000004000
0000000000
001BF007F0
02EFE00BE0
0F4FD00BE0
3D1FD00FD0
B81FC01FD0
F42F801FC0
F03F402F80
B07F003F80
107F003F40
00BE007F00
00FD00BE00
00FC00FE00
01FC01FD00
01FC02FC00
01FC03F400
01FE5FE000
00BFFF8000
002FF90000
ENDCHAR
STARTCHAR uni01D4
ENCODING 468
SWIDTH 505 0
DWIDTH 12 0
BBX 13 18 0 0
BITMAP
00201900
0029F400
001FC000
000E0000
00040000
00000000
1FC2FC00
2F82F800
3F83F400
3F47F400
7F07F000
BF0BF000
BE0FE000
FD0FD040
FD1FD180
FE7FE740
FFDFFE00
6E47E400
ENDCHAR
STARTCHAR uni01D5
ENCODING 469
SWIDTH 716 0
DWIDTH 17 0
BBX 18 24 0 0
BITMAP
00001FFFD0
0000155540
00001D0740
00003F0FC0
00002E0780
0000000000
001BF007F0
02EFE00BE0
0F4FD00BE0
3D1FD00FD0
B81FC01FD0
F42F801FC0
F03F402F80
B07F003F80
107F003F40
00BE007F00
00FD00BE00
00FC00FE00
01FC01FD00
01FC02FC00
01FC03F400
01FE5FE000
00BFFF8000
002FF90000
ENDCHAR
STARTCHAR uni01D6
ENCODING 470
SWIDTH 505 0
DWIDTH 12 0
BBX 13 20 0 0
BITMAP
01FFFD00
00555400
00000000
01E0F000
02F1F400
01A0A000
00000000
00000000
1FC2FC00
2F82F800
3F83F400
3F47F400
7F07F000
BF0BF000
BE0FE000
FD0FD040
FD1FD180
FE7FE740
FFDFFE00
6E47E400
ENDCHAR
STARTCHAR uni01D7
ENCODING 471
SWIDTH 716 0
DWIDTH 17 0
BBX 18 24 0 0
BITMAP
0000003D00
0000B4B9A0
0000F8F2F0
0000B6D1E0
0000014000
0000000000
001BF007F0
02EFE00BE0
0F4FD00BE0
3D1FD00FD0
B81FC01FD0
F42F801FC0
F03F402F80
B07F003F80
107F003F40
00BE007F00
00FD00BE00
00FC00FE00
01FC01FD00
01FC02FC00
01FC03F400
01FE5FE000
00BFFF8000
002FF90000
ENDCHAR
STARTCHAR uni01D8
ENCODING 472
SWIDTH 505 0
DWIDTH 12 0
BBX 13 23 0 0
BITMAP
00006400
0000F400
0002E000
0003C000
000B4000
00000000
01E0F000
02F1F400
01A0A000
00000000
00000000
1FC2FC00
2F82F800
3F83F400
3F47F400
7F07F000
BF0BF000
BE0FE000
FD0FD040
FD1FD180
FE7FE740
FFDFFE00
6E47E400
ENDCHAR
STARTCHAR uni01D9
ENCODING 473
SWIDTH 716 0
DWIDTH 17 0
BBX 18 24 0 0
BITMAP
0000020640
000066AD90
0000FAF6F0
0000B5C1E0
0000000000
0000000000
001BF007F0
02EFE00BE0
0F4FD00BE0
3D1FD00FD0
B81FC01FD0
F42F801FC0
F03F402F80
B07F003F80
107F003F40
00BE007F00
00FD00BE00
00FC00FE00
01FC01FD00
01FC02FC00
01FC03F400
01FE5FE000
00BFFF8000
002FF90000
ENDCHAR
STARTCHAR uni01DA
ENCODING 474
SWIDTH 505 0
DWIDTH 12 0
BBX 13 22 0 0
BITMAP
00240A00
001DB800
000FE000
000B4000
00010000
01E0F000
02F1F400
01A0A000
00000000
00000000
1FC2FC00
2F82F800
3F83F400
3F47F400
7F07F000
BF0BF000
BE0FE000
FD0FD040
FD1FD180
FE7FE740
FFDFFE00
6E47E400
ENDCHAR
STARTCHAR uni01DB
ENCODING 475
SWIDTH 716 0
DWIDTH 17 0
BBX 18 24 0 0
BITMAP
000002F000
0000B5F1A0
0000F8F6F0
0000B4B5E0
0000000000
0000000000
001BF007F0
02EFE00BE0
0F4FD00BE0
3D1FD00FD0
B81FC01FD0
F42F801FC0
F03F402F80
B07F003F80
107F003F40
00BE007F00
00FD00BE00
00FC00FE00
01FC01FD00
01FC02FC00
01FC03F400
01FE5FE000
00BFFF8000
002FF90000
ENDCHAR
STARTCHAR uni01DC
ENCODING 476
SWIDTH 505 0
DWIDTH 12 0
BBX 13 22 0 0
BITMAP
007C0000
003D0000
002E0000
001E0000
00000000
01E0F000
02F1F400
01A0A000
00000000
00000000
1FC2FC00
2F82F800
3F83F400
3F47F400
7F07F000
BF0BF000
BE0FE000
FD0FD040
FD1FD180
FE7FE740
FFDFFE00
6E47E400
ENDCHAR
STARTCHAR uni01E4
ENCODING 484
SWIDTH 601 0
DWIDTH 14 0
BBX 14 23 0 -5
BITMAP
001AFE00
00BF9BC0
03FD02E0
0BF402E0
1FE007D0
3FC00140
7F800000
7F400540
BF400FC0
7F43FFF0
7F416F80
3F807F40
1FD5FF00
07FEBE00
0050BE00
0000BD00
0050FC00
07F9F800
0F46F400
1E03F000
0F5BD000
07FF4000
00540000
ENDCHAR
STARTCHAR uni01E5
ENCODING 485
SWIDTH 507 0
DWIDTH 12 0
BBX 14 18 -1 -6
BITMAP
006F7F40
02FDFF40
07F07F00
0FD0BE00
2FC0FE00
3F80FD00
3F41FC00
7F42FC10
7F43F830
7F9BF490
2FFFF680
0BEBFE00
002FF000
01EFE000
1FFFFC00
0B6FD000
07BF4000
02F90000
ENDCHAR
STARTCHAR Gcaron
ENCODING 486
SWIDTH 578 0
DWIDTH 14 0
BBX 15 29 0 -5
BITMAP
00006028
000035E0
00002F80
00001E00
00000400
00000000
001AFE00
00BF9BC0
03FD02E0
0BF402E0
1FE007D0
3FC00140
7F800000
7F400000
BF400FC0
7F401F80
7F402F80
3F807F40
1FD5FF00
07FEBF00
0050BE00
0000BD00
0050FC00
07F9FC00
0F46F400
1E03F000
0F5BD000
07FF4000
00540000
ENDCHAR
STARTCHAR gcaron
ENCODING 487
SWIDTH 507 0
DWIDTH 12 0
BBX 14 24 -1 -6
BITMAP
00060190
00035F00
0002F800
0001E000
00008000
00000000
006F7F40
02FDFF40
07F07F00
0FD0BE00
2FC0FE00
3F80FD00
3F41FC00
7F42FC10
7F43F830
7F9BF490
2FFFF680
0BEBFE00
002FF000
01EFE000
074FD000
071FC000
07BF4000
01F90000
ENDCHAR
STARTCHAR uni01E8
ENCODING 488
SWIDTH 601 0
DWIDTH 14 0
BBX 17 24 0 0
BITMAP
0000040140
00000A1B00
000007B800
000003E000
0000028000
0000000000
001BD03D00
02EFD0B800
1F5FC2E000
3D2F878000
B83F5E0000
B43F780000
B47FE00000
24BFFE0000
00BE2F8000
00FD1FC000
00FD1FC000
01FC1FC000
02F82F8000
02F83F4000
03F43F4000
07F47F0000
07F07F0000
0BE02F4000
ENDCHAR
STARTCHAR uni01E9
ENCODING 489
SWIDTH 518 0
DWIDTH 12 0
BBX 14 22 -1 0
BITMAP
00010010
000182D0
0000EF00
0000B800
00006000
00580000
02FC0000
02F80000
03F40000
07F40000
07F02E00
0BE0B400
0FE78000
0FEF9000
1FFFF800
2FE6FC00
2F82FC00
3F82F800
3F43F830
7F03F9A0
BF02FFC0
BE00BE00
ENDCHAR
STARTCHAR uni01EA
ENCODING 490
SWIDTH 665 0
DWIDTH 16 0
BBX 16 30 0 -6
BITMAP
0002E000
0001E000
0000F000
0000B000
00000000
00000000
0006FF80
00BE9BF4
07E1A0FC
1F4BD0BD
3D2F80BE
7C7F007E
B8BE00BE
79FD00BE
16FC00BE
03F800FD
03F401FC
07F402F8
07F403F4
07F00BE0
07F41FD0
03F87F40
02FFFD00
006FA000
00280000
00B40000
00B00000
00B99000
007F8000
00040000
ENDCHAR
STARTCHAR uni01EB
ENCODING 491
SWIDTH 433 0
DWIDTH 10 0
BBX 14 18 -1 -6
BITMAP
006F8000
02FAE000
0BE0F010
1FD1F5A0
2F81FE40
3F40F000
7F41E000
7F02E000
7F03D000
7F5B8000
3FFE0000
0BE40000
0A000000
1D000000
2D000000
2E680000
1FE00000
01000000
ENDCHAR
STARTCHAR uni01EE
ENCODING 494
SWIDTH 525 0
DWIDTH 13 0
BBX 14 24 0 0
BITMAP
00010050
00034680
0002EE00
0001F400
0000D000
00000000
01FFFFD0
07E57F80
0BC0BF00
0781FD00
0003F400
000BE000
002FC000
003F9000
006FF800
0002FE00
0000FF00
0000FF00
0400FF00
3D00FE00
7C01FD00
7C03F800
3E6FE000
0BFE4000
ENDCHAR
STARTCHAR uni01EF
ENCODING 495
SWIDTH 600 0
DWIDTH 14 0
BBX 12 24 0 -6
BITMAP
005004
0070B4
003BD0
002F40
001C00
000000
1BFFD0
3D6FC0
7C3F40
24BE00
01FC00
02F800
07F000
0BD000
07F009
02F80C
01FC24
01FED0
02FE00
1FFC00
B5FC00
D2F800
EBF000
6F8000
ENDCHAR
STARTCHAR uni01F4
ENCODING 500
SWIDTH 578 0
DWIDTH 14 0
BBX 14 29 0 -5
BITMAP
000003D0
00000B80
00000F00
00001E00
00002800
00000000
001AFE00
00BF9BD0
03FD02E0
0BF403E0
1FE00780
3FC00000
7F800000
7F400540
BF400FC0
7F401F80
7F402F40
3F807F40
1FD5FF00
07FEBE00
0050BE00
0000BD00
0050FC00
07F9F800
0F46F400
1E03F000
0F5BD000
07FF4000
00540000
ENDCHAR
STARTCHAR uni01F5
ENCODING 501
SWIDTH 507 0
DWIDTH 12 0
BBX 14 24 -1 -6
BITMAP
00007D00
0000B800
0000F000
0002D000
00028000
00000000
006F7F40
02FDFF40
07F07F00
0FD0BE00
2FC0FE00
3F80FD00
3F41FC00
7F42FC10
7F43F830
7F9BF490
2FFFF680
0BEBFE00
002FF000
01EFE000
074FD000
071FC000
07BF4000
01F90000
ENDCHAR
STARTCHAR Aringacute
ENCODING 506
SWIDTH 668 0
DWIDTH 16 0
BBX 19 27 0 -3
BITMAP
0000000064
00000000F4
00000002D0
0000000F80
0000002AC0
0000002A80
0000001F40
000001BF40
00000A7F40
000028BF00
0000B0BE00
0002D0FE00
0007C1FD00
1BFFE5FC00
7E6F6FFC00
BC3D03F800
BCBC03F400
10F807F400
02F407F000
03F00BE000
07E00FE000
0BD00FD000
0BD01FD000
0FC02FC000
0FC0000000
0BC0000000
0140000000
ENDCHAR
STARTCHAR aringacute
ENCODING 507
SWIDTH 526 0
DWIDTH 13 0
BBX 15 19 -1 0
BITMAP
00002D00
00007800
0001B000
00022400
00066400
0003F000
00004000
006F7F40
02FDFF40
07F07F00
0FD0BE00
2FC0FE00
3F80FD00
3F41FC00
7F42FC04
7F43F824
7F9BFD60
2FF9FFC0
0BE0BE00
ENDCHAR
STARTCHAR AEacute
ENCODING 508
SWIDTH 764 0
DWIDTH 18 0
BBX 22 27 0 -3
BITMAP
000000001900
000000003D00
00000000B400
00000000E000
00000002C000
000000000000
0000006F9050
000002FFFFD0
00001E7FBF80
000038BF0000
0000F0BE0000
0002D0FE0000
0007C1FD0000
1BFF91FC0000
7E6F6FFFF800
BC3D03FEA400
BCBC03F40000
10F807F40000
02F407F00000
03F00BE00000
07E00FE00000
0BD00FFFF800
0BD01FFFF800
0FC02FFFF400
0FC000000000
0BC000000000
014000000000
ENDCHAR
STARTCHAR aeacute
ENCODING 509
SWIDTH 650 0
DWIDTH 16 0
BBX 16 18 0 0
BITMAP
000002E0
000007C0
00000B40
00001E00
00001900
00000000
01BE4BF4
0B9FFFBC
0407FD2C
0007F83C
0007F4B8
1BFFF6E0
7F9FFF80
FE0FE400
FD1FE002
FE7FE009
FFE7F9B4
2F81FE40
ENDCHAR
STARTCHAR Oslashacute
ENCODING 510
SWIDTH 658 0
DWIDTH 16 0
BBX 15 25 0 -1
BITMAP
00000064
000000F4
000001E0
000003C0
00000640
00000000
00000A00
001AFE40
01BE9FE0
0BD6EDF4
2F1F98FC
7C3F28FC
B8BE34FC
B8FD34FC
7AFC70FC
03F861F8
03F4A2F8
07F0D3F4
07F0C7E0
07F1CBD0
07F29F40
07F6BE00
02FFF400
00BF4000
00060000
ENDCHAR
STARTCHAR oslashacute
ENCODING 511
SWIDTH 428 0
DWIDTH 10 0
BBX 13 20 -2 -2
BITMAP
00001F00
00002D00
00007C00
0000B400
00009000
00000000
001BE1C0
007FBB00
01FC2D00
03F42D00
0BF0BD00
0FE2BD00
0FDA7C00
1FEC7800
1FF0F400
0FE6E000
0BFF8000
0EF90000
38000000
50000000
ENDCHAR
STARTCHAR uni0200
ENCODING 512
SWIDTH 668 0
DWIDTH 16 0
BBX 17 26 0 -3
BITMAP
00007D7C00
00001E1E00
0000074B40
000002C280
0000000000
0000006F40
000002FF40
00000E7F00
000038BF00
0000F0BE00
0002D0FE00
0007C1FD00
1BFFE5FC00
7E6F6FFC00
BC3D03F800
BCBC03F400
10F807F400
02F407F000
03F00BE000
07E00FE000
0BD00FD000
0BD01FC000
0FC02FC000
0FC0000000
0BC0000000
0140000000
ENDCHAR
STARTCHAR uni0201
ENCODING 513
SWIDTH 526 0
DWIDTH 13 0
BBX 15 18 -1 0
BITMAP
02E3D000
00F1F000
00787400
001D1C00
00000000
00000000
006F7F40
02FDFF40
07F07F00
0FD0BE00
2FC0FE00
3F80FD00
3F41FC00
7F42FC04
7F43F824
7F9BFD60
2FF9FFC0
0BE0BE00
ENDCHAR
STARTCHAR uni0202
ENCODING 514
SWIDTH 668 0
DWIDTH 16 0
BBX 20 26 0 -3
BITMAP
0000006FE4
000001F5BC
000003C03D
0000014014
0000000000
0000006F40
000002FF40
00000E7F00
000038BF00
0000F0BE00
0002D0FE00
0007C1FD00
1BFFE5FC00
7E6F6FFC00
BC3D03F800
BCBC03F400
10F807F400
02F407F000
03F00BE000
07E00FE000
0BD00FD000
0BD01FC000
0FC02FC000
0FC0000000
0BC0000000
0140000000
ENDCHAR
STARTCHAR uni0203
ENCODING 515
SWIDTH 526 0
DWIDTH 13 0
BBX 15 17 -1 0
BITMAP
0006F900
003E6F00
00B40B40
00A00640
00000000
006F7F40
02FDFF40
07F07F00
0FD0BE00
2FC0FE00
3F80FD00
3F41FC00
7F42FC04
7F43F824
7F9BFD60
2FF9FFC0
0BE0BE00
ENDCHAR
STARTCHAR uni0204
ENCODING 516
SWIDTH 459 0
DWIDTH 11 0
BBX 12 24 0 0
BITMAP
03D7D0
01F1E0
007474
001C2C
000000
000000
000BF4
007FAD
00FC0E
02F40E
02F42D
02F414
02F800
00BE00
02FD00
0FF000
2FD000
7F8000
BF4000
BF4001
BF8009
BFD5B4
3FFFD0
0BF900
ENDCHAR
STARTCHAR uni0205
ENCODING 517
SWIDTH 384 0
DWIDTH 9 0
BBX 11 18 -1 0
BITMAP
1F1F00
0B8B40
02C2C0
00A0E0
000000
000000
006F80
02FAE0
07F0E0
0FD1E0
2FC3D0
3F9F40
3FF900
7F4000
7F4028
3F81A0
2FFF80
0BF900
ENDCHAR
STARTCHAR uni0206
ENCODING 518
SWIDTH 459 0
DWIDTH 11 0
BBX 14 23 0 0
BITMAP
0002FF40
001F9BC0
003D02D0
00140140
00000000
000BF400
007FAD00
00FC0E00
02F40E00
02F42D00
02F41400
02F80000
00BE0000
02FD0000
0FF00000
2FD00000
7F800000
BF400000
BF400100
BF800900
BFD5B400
3FFFD000
0BF90000
ENDCHAR
STARTCHAR uni0207
ENCODING 519
SWIDTH 384 0
DWIDTH 9 0
BBX 11 17 -1 0
BITMAP
006F90
02EAF4
0780B8
064064
000000
006F80
02FAE0
07F0E0
0FD1E0
2FC3D0
3F9F40
3FF900
7F4000
7F4018
3F4060
2FEA80
0BF900
ENDCHAR
STARTCHAR uni0208
ENCODING 520
SWIDTH 375 0
DWIDTH 9 0
BBX 10 23 0 0
BITMAP
0F5F40
078780
01D1D0
00B0A0
000000
001BD0
01FFD0
0BEFC0
2E2F80
7C2F80
B83F40
B47F00
B47F00
64BE00
00FE00
00FD00
01FC00
02FC00
02F800
03F400
07F400
07F000
0BE000
ENDCHAR
STARTCHAR uni0209
ENCODING 521
SWIDTH 267 0
DWIDTH 6 0
BBX 9 18 -2 0
BITMAP
F4F400
3C7C00
1E1D00
070B00
000000
000000
01FC00
02F800
03F800
03F400
07F000
0BF000
0BE000
0FD040
0FD0C0
0FE680
0FFE00
06E400
ENDCHAR
STARTCHAR uni020A
ENCODING 522
SWIDTH 375 0
DWIDTH 9 0
BBX 12 23 0 0
BITMAP
001FF8
00B97D
02E01E
014005
000000
001BD0
01FFD0
0B5FC0
2D2F80
7C3F80
B83F40
B47F00
B4BF00
14BE00
00FE00
00FD00
01FC00
02FC00
02F800
03F400
07F400
07F000
0BE000
ENDCHAR
STARTCHAR uni020B
ENCODING 523
SWIDTH 267 0
DWIDTH 6 0
BBX 7 17 0 0
BITMAP
1BE0
7EB8
F02C
5014
0000
1FC0
2F80
3F80
3F40
7F00
BF00
BE00
FD04
FD0C
FE68
FFE0
6E40
ENDCHAR
STARTCHAR uni020C
ENCODING 524
SWIDTH 665 0
DWIDTH 16 0
BBX 16 24 0 0
BITMAP
003D7D00
001F1E00
00074740
0002C2C0
00000000
00000000
0006FF80
00BE9BF4
07E1A0FC
1F4BD0BD
3D2F80BE
7C7F007E
B8BE00BE
79FD00BE
16FC00BE
03F800FD
03F401FC
07F402F8
07F403F4
07F00BE0
07F41FD0
03F87F40
02FFFD00
006FA000
ENDCHAR
STARTCHAR uni020D
ENCODING 525
SWIDTH 433 0
DWIDTH 10 0
BBX 14 18 -1 0
BITMAP
1F2E0000
0B4B4000
02C3C000
00E0D000
00000000
00000000
006F8000
02FAE000
0BE0F010
1FD1F5A0
2F81FE40
3F40F000
7F41E000
7F02E000
7F03D000
7F5B8000
3FFE0000
0BE40000
ENDCHAR
STARTCHAR uni020E
ENCODING 526
SWIDTH 665 0
DWIDTH 16 0
BBX 16 23 0 0
BITMAP
00002FF4
0001F9BD
0002D02E
00014005
00000000
0006FF80
00BE9BF4
07E1A0FC
1F4BD0BD
3D2F80BE
7C7F007E
B8BE00BE
79FD00BE
16FC00BE
03F800FD
03F401FC
07F402F8
07F403F4
07F00BE0
07F41FD0
03F87F40
02FFFD00
006FA000
ENDCHAR
STARTCHAR uni020F
ENCODING 527
SWIDTH 433 0
DWIDTH 10 0
BBX 14 17 -1 0
BITMAP
002FE000
01F9BC00
03D03D00
02801900
00000000
006F8000
02FAE000
0BE0F010
1FD1F5A0
2F81FE40
3F40F000
7F41E000
7F02E000
7F03D000
7F5B8000
3FFE0000
0BE40000
ENDCHAR
STARTCHAR uni0210
ENCODING 528
SWIDTH 601 0
DWIDTH 14 0
BBX 14 24 0 0
BITMAP
02E3D000
00F0F000
00387800
001D1C00
00000000
00000000
001BFA00
02FA6FD0
0F8542E0
3D2F82F0
BC3F82E0
B83F47D0
B47F6F40
247FFF40
00BE6FC0
00FD1FC0
00FD1FC0
01FC1FC0
02F82F80
02F83F40
03F43F40
07F47F00
07F07F00
0BE02F40
ENDCHAR
STARTCHAR uni0211
ENCODING 529
SWIDTH 376 0
DWIDTH 9 0
BBX 11 18 -1 0
BITMAP
7CB800
2E2D00
0B0B00
028340
000000
000000
07F6E0
0BFFF4
0FE1E0
0FD000
1FC000
2FC000
2F8000
3F4000
7F4000
7F0000
BF0000
BE0000
ENDCHAR
STARTCHAR uni0212
ENCODING 530
SWIDTH 601 0
DWIDTH 14 0
BBX 14 23 0 0
BITMAP
0002FF40
001F9BC0
003D02D0
00140140
00000000
001BFA00
02FA6FD0
0F8542E0
3D2F82F0
BC3F82E0
B83F47D0
B47F6F40
247FFF40
00BE6FC0
00FD1FC0
00FD1FC0
01FC1FC0
02F82F80
02F83F40
03F43F40
07F47F00
07F07F00
0BE02F40
ENDCHAR
STARTCHAR uni0213
ENCODING 531
SWIDTH 376 0
DWIDTH 9 0
BBX 11 17 -1 0
BITMAP
006FD0
02FAF4
07807C
054014
000000
07F6E0
0BFFF4
0FE1E0
0FD000
1FC000
2FC000
2F8000
3F4000
7F4000
7F0000
BF0000
BE0000
ENDCHAR
STARTCHAR uni0214
ENCODING 532
SWIDTH 716 0
DWIDTH 17 0
BBX 18 24 0 0
BITMAP
0003D7D000
0001F1E000
0000747400
00001C2C00
0000000000
0000000000
001BF007F0
02EFE00BE0
0F4FD00BE0
3D1FD00FD0
B81FC01FD0
F42F801FC0
F03F402F80
B07F003F80
107F003F40
00BE007F00
00FD00BE00
00FC00FE00
01FC01FD00
01FC02FC00
01FC03F400
01FE5FE000
00BFFF8000
002FF90000
ENDCHAR
STARTCHAR uni0215
ENCODING 533
SWIDTH 505 0
DWIDTH 12 0
BBX 13 18 0 0
BITMAP
7D7C0000
1E1E0000
074B4000
02C28000
00000000
00000000
1FC2FC00
2F82F800
3F83F400
3F47F400
7F07F000
BF0BF000
BE0FE000
FD0FD040
FD1FD180
FE7FE740
FFDFFE00
6E47E400
ENDCHAR
STARTCHAR uni0216
ENCODING 534
SWIDTH 716 0
DWIDTH 17 0
BBX 18 23 0 0
BITMAP
000006FE00
00002E5F80
00007807C0
0000500140
0000000000
001BF007F0
02EFE00BE0
0F4FD00BE0
3D1FD00FD0
B81FC01FD0
F42F801FC0
F03F402F80
B07F003F80
107F003F40
00BE007F00
00FD00BE00
00FC00FE00
01FC01FD00
01FC02FC00
01FC03F400
01FE5FE000
00BFFF8000
002FF90000
ENDCHAR
STARTCHAR uni0217
ENCODING 535
SWIDTH 505 0
DWIDTH 12 0
BBX 13 17 0 0
BITMAP
006F9000
02EAF400
0B80B800
05005400
00000000
1FC2FC00
2F82F800
3F83F400
3F47F400
7F07F000
BF0BF000
BE0FE000
FD0FD040
FD1FD180
FE7FE740
FFDFFE00
6E47E400
ENDCHAR
STARTCHAR Scommaaccent
ENCODING 536
SWIDTH 570 0
DWIDTH 14 0
BBX 13 23 1 -5
BITMAP
002BE400
01FEBE00
03F40F00
07F00F40
07F42F00
03F81900
02FD0000
00FF4000
007FD000
001FF000
1A4BF800
7FC2FC00
FD01FD00
F801FD00
F802FC00
FC07F400
7FAFD000
0BFA0000
00000000
02D00000
03D00000
01C00000
02400000
ENDCHAR
STARTCHAR scommaaccent
ENCODING 537
SWIDTH 382 0
DWIDTH 9 0
BBX 11 19 -1 -6
BITMAP
005A00
00FF00
01FF00
02FF40
037F40
067F40
0D3F40
183F40
7C3F84
BC3FA4
A07F90
7AFE00
1BE400
000000
010000
0B8000
078000
034000
050000
ENDCHAR
STARTCHAR uni021A
ENCODING 538
SWIDTH 481 0
DWIDTH 12 0
BBX 17 24 0 -6
BITMAP
006FFA4080
07E7FFFFC0
1E03FFFF80
3C07FAAA00
7807F40000
B40BF00000
B40FE00000
B40FE00000
681FD00000
001FC00000
002FC00000
003F800000
003F400000
007F400000
00BF000000
00BE000000
00FE000000
00FD000000
0000000000
0050000000
00F4000000
00B4000000
0060000000
0080000000
ENDCHAR
STARTCHAR uni021B
ENCODING 539
SWIDTH 267 0
DWIDTH 6 0
BBX 7 22 0 -6
BITMAP
05A0
0BE0
0FD0
1FD0
7FF4
2FD4
2F80
3F40
7F40
7F00
BE00
FE00
FD0C
FE68
FFE0
7E40
0000
5000
F800
B400
7000
8000
ENDCHAR
STARTCHAR uni021E
ENCODING 542
SWIDTH 665 0
DWIDTH 16 0
BBX 17 24 0 0
BITMAP
0000040140
00000A1B00
000007B800
000003E000
0000028000
0000000000
001BE03F80
01FFD03F40
0B9FC07F00
2E1FC0BF00
7C2F80BE00
B83F80FD00
B83F41FD00
787FAAFC00
14BFFFFC00
00BE02F800
00FD03F400
01FD07F400
01FC07F000
02F80BE000
03F80FE000
03F40FD000
07F41FC000
07F02FC000
ENDCHAR
STARTCHAR uni021F
ENCODING 543
SWIDTH 600 0
DWIDTH 14 0
BBX 15 22 -1 0
BITMAP
00004014
0000D1E0
0000BF80
00007D00
00003400
00580000
02FC0000
02F80000
03F40000
07F40000
07F6F400
0BFFFC00
0FF5FD00
0FE0FD00
1FC1FC00
2FC1FC00
2F82F800
3F83F410
3F43F460
7F03F5D0
BF03FF80
BE01BD00
ENDCHAR
STARTCHAR uni0237
ENCODING 567
SWIDTH 240 0
DWIDTH 6 0
BBX 12 18 -5 -6
BITMAP
0007F0
000BE0
000FE0
000FD0
001FD0
002FC0
002F80
003F80
003F46
007F0C
00BF24
00BF90
06FE00
2FFD00
75FC00
A2F800
BBF000
2F8000
ENDCHAR
STARTCHAR uni0259
ENCODING 601
SWIDTH 404 0
DWIDTH 10 0
BBX 10 12 0 0
BITMAP
06F900
2EBF40
202FC0
001FD0
001FD0
06FFC0
1FAFC0
7C3F80
B47F00
F0FD00
BAF400
6F8000
ENDCHAR
STARTCHAR uni0292
ENCODING 658
SWIDTH 442 0
DWIDTH 11 0
BBX 12 18 0 -6
BITMAP
1BFFD0
3D6FC0
7C3F40
24BE00
01FC00
02F800
07F000
0BD000
07F009
02F80C
01FC24
01FED0
02FE00
1FFC00
B5FC00
D2F800
EBF000
6F8000
ENDCHAR
STARTCHAR uni02BB
ENCODING 699
SWIDTH 241 0
DWIDTH 6 0
BBX 4 6 3 12
BITMAP
04
28
74
FC
FD
B8
ENDCHAR
STARTCHAR uni02BC
ENCODING 700
SWIDTH 228 0
DWIDTH 5 0
BBX 4 5 3 13
BITMAP
3D
7D
2D
28
20
ENDCHAR
STARTCHAR circumflex
ENCODING 710
SWIDTH 293 0
DWIDTH 7 0
BBX 7 5 0 13
BITMAP
0010
00F0
07F4
1E78
6408
ENDCHAR
STARTCHAR caron
ENCODING 711
SWIDTH 294 0
DWIDTH 7 0
BBX 7 5 2 13
BITMAP
5004
70B4
3BD0
2F00
1800
ENDCHAR
STARTCHAR uni02C9
ENCODING 713
SWIDTH 421 0
DWIDTH 10 0
BBX 8 2 3 13
BITMAP
FFFE
5555
ENDCHAR
STARTCHAR uni02CA
ENCODING 714
SWIDTH 256 0
DWIDTH 6 0
BBX 4 5 3 13
BITMAP
0A
2E
3C
74
D0
ENDCHAR
STARTCHAR uni02CB
ENCODING 715
SWIDTH 274 0
DWIDTH 7 0
BBX 3 4 4 13
BITMAP
F4
B8
38
2C
ENDCHAR
STARTCHAR breve
ENCODING 728
SWIDTH 431 0
DWIDTH 10 0
BBX 9 5 1 13
BITMAP
140140
7C03C0
3E5F40
1FF900
004000
ENDCHAR
STARTCHAR dotaccent
ENCODING 729
SWIDTH 250 0
DWIDTH 6 0
BBX 4 4 1 14
BITMAP
2D
BF
BF
2D
ENDCHAR
STARTCHAR ring
ENCODING 730
SWIDTH 156 0
DWIDTH 4 0
BBX 4 5 0 12
BITMAP
7D
EA
DA
BD
10
ENDCHAR
STARTCHAR ogonek
ENCODING 731
SWIDTH 291 0
DWIDTH 7 0
BBX 6 6 1 -5
BITMAP
0400
2800
B000
F000
BAD0
6E40
ENDCHAR
STARTCHAR tilde
ENCODING 732
SWIDTH 403 0
DWIDTH 10 0
BBX 9 3 1 13
BITMAP
055000
7FFFC0
41BE00
ENDCHAR
STARTCHAR hungarumlaut
ENCODING 733
SWIDTH 436 0
DWIDTH 10 0
BBX 9 4 2 13
BITMAP
0F4F40
2E2D00
387800
A0A000
ENDCHAR
STARTCHAR gravecomb
ENCODING 768
SWIDTH 0 0
DWIDTH 0 0
BBX 3 4 -4 13
BITMAP
F4
B8
38
2C
ENDCHAR
STARTCHAR acutecomb
ENCODING 769
SWIDTH 0 0
DWIDTH 0 0
BBX 5 5 -5 13
BITMAP
0640
0F40
1D00
3800
7000
ENDCHAR
STARTCHAR uni0302
ENCODING 770
SWIDTH 0 0
DWIDTH 0 0
BBX 8 5 -7 13
BITMAP
0010
00B4
02F8
0F6C
6409
ENDCHAR
STARTCHAR tildecomb
ENCODING 771
SWIDTH 0 0
DWIDTH 0 0
BBX 10 3 -9 13
BITMAP
055410
2FFFD0
41BE40
ENDCHAR
STARTCHAR uni0304
ENCODING 772
SWIDTH 0 0
DWIDTH 0 0
BBX 8 2 -7 13
BITMAP
FFFE
5555
ENDCHAR
STARTCHAR uni0306
ENCODING 774
SWIDTH 0 0
DWIDTH 0 0
BBX 9 5 -8 13
BITMAP
100140
7807C0
7D5F40
1FF900
004000
ENDCHAR
STARTCHAR uni0307
ENCODING 775
SWIDTH 0 0
DWIDTH 0 0
BBX 4 4 -3 14
BITMAP
7D
BE
BF
7D
ENDCHAR
STARTCHAR uni0308
ENCODING 776
SWIDTH 0 0
DWIDTH 0 0
BBX 8 3 -7 14
BITMAP
2829
7D3E
7C2D
ENDCHAR
STARTCHAR hookabovecomb
ENCODING 777
SWIDTH 0 0
DWIDTH 0 0
BBX 6 6 -6 13
BITMAP
7F80
26D0
01D0
0680
1C00
0400
ENDCHAR
STARTCHAR uni030A
ENCODING 778
SWIDTH 0 0
DWIDTH 0 0
BBX 4 5 -3 12
BITMAP
7D
EA
DA
BD
10
ENDCHAR
STARTCHAR uni030B
ENCODING 779
SWIDTH 0 0
DWIDTH 0 0
BBX 8 4 -7 13
BITMAP
1F1F
3D3C
74B4
E0D0
ENDCHAR
STARTCHAR uni030C
ENCODING 780
SWIDTH 0 0
DWIDTH 0 0
BBX 7 5 -6 13
BITMAP
4004
60B4
3BD0
2E00
1800
ENDCHAR
STARTCHAR uni030F
ENCODING 783
SWIDTH 0 0
DWIDTH 0 0
BBX 8 4 -8 13
BITMAP
B8B4
3D3C
0E1E
0747
ENDCHAR
STARTCHAR uni0311
ENCODING 785
SWIDTH 0 0
DWIDTH 0 0
BBX 9 4 -8 13
BITMAP
1BF900
7D6F00
F00F40
500500
ENDCHAR
STARTCHAR uni031B
ENCODING 795
SWIDTH 0 0
DWIDTH 0 0
BBX 4 5 -3 11
BITMAP
1D
1E
2D
38
A0
ENDCHAR
STARTCHAR dotbelowcomb
ENCODING 803
SWIDTH 0 0
DWIDTH 0 0
BBX 5 4 -5 -5
BITMAP
2E00
7F40
7F40
2E00
ENDCHAR
STARTCHAR uni0324
ENCODING 804
SWIDTH 0 0
DWIDTH 0 0
BBX 8 3 -11 -5
BITMAP
2829
7D3E
3C2D
ENDCHAR
STARTCHAR uni0326
ENCODING 806
SWIDTH 0 0
DWIDTH 0 0
BBX 3 4 -6 -5
BITMAP
78
B8
38
60
ENDCHAR
STARTCHAR uni0327
ENCODING 807
SWIDTH 0 0
DWIDTH 0 0
BBX 6 7 -9 -6
BITMAP
0600
0D00
1FD0
02E0
56E0
7F80
0500
ENDCHAR
STARTCHAR uni0328
ENCODING 808
SWIDTH 0 0
DWIDTH 0 0
BBX 6 6 -9 -5
BITMAP
0500
2C00
7400
B400
7EA0
2F40
ENDCHAR
STARTCHAR uni032E
ENCODING 814
SWIDTH 0 0
DWIDTH 0 0
BBX 7 3 -10 -4
BITMAP
5014
F5B8
7FE0
ENDCHAR
STARTCHAR uni0331
ENCODING 817
SWIDTH 0 0
DWIDTH 0 0
BBX 8 2 -11 -5
BITMAP
BFFF
5555
ENDCHAR
STARTCHAR uni0335
ENCODING 821
SWIDTH 0 0
DWIDTH 0 0
BBX 8 2 -9 5
BITMAP
FFFF
5555
ENDCHAR
STARTCHAR uni0394
ENCODING 916
SWIDTH 619 0
DWIDTH 15 0
BBX 15 18 0 0
BITMAP
00002F40
00007F40
0000BF80
0001EB80
0003DBC0
000B87C0
000F07C0
002D07D0
007C03D0
00B403E0
01E002E0
03D002F0
0B8001F0
0F0001F4
2D0001F4
7C0000F8
BFFFFFF8
BFFFFFF8
ENDCHAR
STARTCHAR uni03A9
ENCODING 937
SWIDTH 745 0
DWIDTH 18 0
BBX 17 18 0 0
BITMAP
00006FE400
0007FFFD00
001F907F00
007D000F40
00F4000B80
02E0000780
03C0000780
0780000780
0B40000B80
0B40000B40
0B40000F00
0B40002D00
0780003800
03C000B000
02D002D000
00B40B4000
3FF82FFD00
7FF43FFD00
ENDCHAR
STARTCHAR uni03BC
ENCODING 956
SWIDTH 505 0
DWIDTH 12 0
BBX 15 16 -2 -4
BITMAP
01FC2FC0
02F82F80
03F83F40
03F47F40
07F07F00
0BF0BF00
0BE0BE00
0FD0FD04
1FD1FD18
1FE7FD74
2FFDFFE0
2FF47E40
3F400000
7F400000
7F000000
A5000000
ENDCHAR
STARTCHAR pi
ENCODING 960
SWIDTH 530 0
DWIDTH 13 0
BBX 14 13 -1 -1
BITMAP
3FFFFFE0
7FFFFFD0
03C03C00
07807800
07407400
0B40B400
0F00F000
0E00E000
1E01E000
2D02D000
2C02D000
3C01F400
10000000
ENDCHAR
STARTCHAR uni0400
ENCODING 1024
SWIDTH 459 0
DWIDTH 11 0
BBX 12 23 0 0
BITMAP
0007C0
0003C0
0002D0
0000D0
000000
000BF4
007FAD
00FC0E
02F40E
02F42D
02F414
02F800
00BE00
02FD00
0FF000
2FD000
7F8000
BF4000
BF4001
BF8009
BFD5B4
3FFFD0
0BF900
ENDCHAR
STARTCHAR uni0401
ENCODING 1025
SWIDTH 459 0
DWIDTH 11 0
BBX 13 23 0 0
BITMAP
000A0B40
001F4F80
000F4B40
00000000
00000000
000BF400
007FAD00
00FC0E00
02F40E00
02F42D00
02F41400
02F80000
00BE0000
02FD0000
0FF00000
2FD00000
7F800000
BF400000
BF400100
BF800900
BFD5B400
3FFFD000
0BF90000
ENDCHAR
STARTCHAR uni0402
ENCODING 1026
SWIDTH 725 0
DWIDTH 17 0
BBX 18 23 0 -5
BITMAP
006BFA4050
07E7FFFFD0
1F03FFFF80
3D03F86A00
7807F40000
B80BF00000
B80BF00000
B80FE00000
280FEBF800
001FE5FD00
002FC0BE00
002F80BE00
003F80BE00
007F40FD00
007F01FD00
00BF01FC00
00BE02F800
00FD03F400
000007F000
00000FD000
00056F8000
0007FE0000
0002F80000
ENDCHAR
STARTCHAR uni0403
ENCODING 1027
SWIDTH 400 0
DWIDTH 10 0
BBX 15 24 0 0
BITMAP
00000064
000000F0
000002D0
00000380
00000A00
00000000
006FFFFC
07FFFFF8
1F5FEAA4
3D1FC000
7C2F8000
B83F8000
B83F4000
787F0000
14BF0000
00BE0000
00FD0000
01FD0000
01FC0000
02FC0000
02F80000
03F40000
07F40000
07F00000
ENDCHAR
STARTCHAR uni0404
ENCODING 1028
SWIDTH 497 0
DWIDTH 12 0
BBX 13 18 0 0
BITMAP
000BF900
007F9B40
01FD0780
03F80780
0BF00B40
1FE00100
2FD00000
3FFFE000
3F954000
7F800000
7F800000
7F400000
BF400000
7F800140
7FC00700
3FE56D00
1FFFF400
06FE4000
ENDCHAR
STARTCHAR uni0405
ENCODING 1029
SWIDTH 570 0
DWIDTH 14 0
BBX 13 18 1 0
BITMAP
002BE400
01FEBE00
03F40F00
07F00F40
07F42F00
03F81900
02FD0000
00FF4000
007FD000
001FF000
1A4BF800
7FC2FC00
FD01FD00
F801FD00
F802FC00
FC07F400
7FAFD000
0BFA0000
ENDCHAR
STARTCHAR uni0406
ENCODING 1030
SWIDTH 374 0
DWIDTH 9 0
BBX 10 18 0 0
BITMAP
001BE0
01FFD0
0B9FC0
2E2FC0
7C2F80
B83F80
B83F40
787F00
14BF00
00BE00
00FD00
01FD00
01FC00
02F800
03F800
03F400
07F400
07F000
ENDCHAR
STARTCHAR uni0407
ENCODING 1031
SWIDTH 375 0
DWIDTH 9 0
BBX 12 23 0 0
BITMAP
00282D
007D3E
003C2D
000000
000000
001BD0
01FFD0
0B5FC0
2D2F80
7C3F80
B83F40
B47F00
B4BF00
14BE00
00FE00
00FD00
01FC00
02FC00
02F800
03F400
07F400
07F000
0BE000
ENDCHAR
STARTCHAR uni0408
ENCODING 1032
SWIDTH 536 0
DWIDTH 13 0
BBX 14 23 0 -5
BITMAP
00001BE0
0001BFE0
00079FD0
001E1FC0
003D2FC0
007C2F80
00783F40
00787F40
00187F00
0000BE00
0000FE00
0000FD00
0001FC00
0002FC00
0003F800
0003F400
0547F400
2FEBF000
781BE000
B40FD000
7D6F8000
2FFD0000
01400000
ENDCHAR
STARTCHAR uni0409
ENCODING 1033
SWIDTH 817 0
DWIDTH 20 0
BBX 20 21 -1 -3
BITMAP
000006F800
00002FF800
0000B7F400
0002C7F000
000B4BF000
001E0BE000
003D0FD000
00B80FFFE0
01F41FD6FC
02E02F80FD
07D02F80BE
0BC03F40BE
1F807F40BE
2F407F00FD
3F00BE01FC
7E00FE96F8
BD00FDBFE0
BD01FD6F80
BD00000000
7D00000000
1500000000
ENDCHAR
STARTCHAR uni040A
ENCODING 1034
SWIDTH 931 0
DWIDTH 22 0
BBX 22 18 0 0
BITMAP
001BE03F8000
01FFD03F4000
0B5FC07F0000
2D2FC0BF0000
7C2F80BE0000
B83F40FD0000
B83F41FC0000
287FFFFFFE00
00BE57FD7F80
00BE03F81FD0
00FD03F40FD0
01FC07F00FD0
01FC0BF00FD0
02F80BE00FC0
03F80FE01F80
03F40FD97F40
07F01FCFFE00
07F02FC7F400
ENDCHAR
STARTCHAR uni040B
ENCODING 1035
SWIDTH 745 0
DWIDTH 18 0
BBX 18 18 0 0
BITMAP
006FFFFFD0
07E7FFFFC0
1E03F9BE40
3C03F40000
B807F40000
B80BF00000
B80BE00000
280FEBF800
000FE5FD00
001FC0BE00
002FC0BE00
002F80BE00
003F40FD00
007F41FD00
007F01FC00
00BF02FC00
00BE02F800
00FD01FD00
ENDCHAR
STARTCHAR uni040C
ENCODING 1036
SWIDTH 635 0
DWIDTH 15 0
BBX 17 24 0 0
BITMAP
0000006400
000000F000
000002D000
0000038000
00000A0000
0000000000
001BE06E00
01FFD2FF40
0B5FC79E00
3D2FDE0000
7C2FB80000
B83FB00000
B87FE00000
287FFE4000
00BE2FC000
00BE0FC000
00FD0FC000
01FC1FC000
01FC1F8000
02F82F8000
03F83F4000
03F43F0000
07F07F0000
07F02F4000
ENDCHAR
STARTCHAR uni040D
ENCODING 1037
SWIDTH 705 0
DWIDTH 17 0
BBX 18 23 0 0
BITMAP
00001F0000
00000B4000
0000074000
0000038000
0000000000
001BE00FE0
01FFD02FD0
0B9FC07FC0
2E2FC0BFC0
7C2F81FF80
B83F83FF40
B83F47BF40
787F0F7F00
14BF2DBE00
00BE38FE00
00FDB4FD00
01FEE1FD00
01FFC1FC00
02FF42F800
03FF03F800
03FD03F400
07F807F000
07F00BF000
ENDCHAR
STARTCHAR uni040E
ENCODING 1038
SWIDTH 644 0
DWIDTH 15 0
BBX 17 23 0 0
BITMAP
0000290180
00007E0340
00007E6E00
00002FF400
0000010000
001BE002C0
01FFF00380
0B8BF40700
2E07F40E00
7C07F81D00
B803FC2800
B802FC3400
7801FDB000
2400FEE000
0000FFC000
0000BF8000
00007F4000
00003F0000
00002D0000
00002C0000
002E340000
003FE00000
001F800000
ENDCHAR
STARTCHAR uni040F
ENCODING 1039
SWIDTH 665 0
DWIDTH 16 0
BBX 17 26 0 -8
BITMAP
001BE03F80
01FFD03F40
0B9FC07F00
2E2FC0BF00
7C2F80BE00
B83F80FD00
B83F41FD00
787F01FC00
14BF02FC00
00BE02F800
00FD03F400
01FD07F400
01FC07F000
02F80BE000
03F80FE000
03F40FD000
07FAAFC000
07FFFFC000
0005000000
002D000000
003F000000
002F800000
001FC00000
000BC00000
0007800000
0005000000
ENDCHAR
STARTCHAR uni0410
ENCODING 1040
SWIDTH 668 0
DWIDTH 16 0
BBX 17 21 0 -3
BITMAP
0000006F40
000002FF40
00000E7F00
000038BF00
0000F0BE00
0002D0FE00
0007C1FD00
1BFFE5FC00
7E6F6FFC00
BC3D03F800
BCBC03F400
10F807F400
02F407F000
03F00BE000
07E00FE000
0BD00FD000
0BD01FC000
0FC02FC000
0FC0000000
0BC0000000
0140000000
ENDCHAR
STARTCHAR uni0411
ENCODING 1041
SWIDTH 638 0
DWIDTH 15 0
BBX 15 18 0 0
BITMAP
006FFFFC
0BFFFFF8
2E2FDAA4
7C3F8000
B83F4000
B47F0000
B47F0000
24BFFF40
00FE6FD0
00FD0BF0
01FC07F0
02F807F0
02F807F0
03F407E0
07F40BD0
07F66FC0
0BE7FF40
0FE2F900
ENDCHAR
STARTCHAR uni0412
ENCODING 1042
SWIDTH 641 0
DWIDTH 15 0
BBX 15 18 0 0
BITMAP
001BFE00
01FA6FD0
0B9542F0
2E1FC1F0
7C2F82F0
B83F43D0
B83F5F40
787FFF80
04BF5FF0
00BE07F4
00FD03F4
01FD02F4
01FC03F4
02F803F0
03F807E0
03F65FD0
07F7FF80
07F1F900
ENDCHAR
STARTCHAR uni0413
ENCODING 1043
SWIDTH 400 0
DWIDTH 10 0
BBX 15 18 0 0
BITMAP
006FFFFC
07FFFFF8
1F5FEAA4
3D1FC000
7C2F8000
B83F8000
B83F4000
787F0000
14BF0000
00BE0000
00FD0000
01FD0000
01FC0000
02FC0000
02F80000
03F40000
07F40000
07F00000
ENDCHAR
STARTCHAR uni0414
ENCODING 1044
SWIDTH 669 0
DWIDTH 16 0
BBX 17 18 -1 0
BITMAP
0006FF9000
00BE9BF800
02E550BD00
0B87F03F00
1F0BE02F40
2E0FE02F80
2E1FD02F80
0A1FC02F80
002FC03F40
003F803F40
007F407F00
007F40BF00
1FFF00FE00
39FE01FC00
70FE03F800
B6FE1BE000
7FFBFFC000
1F90BE0000
ENDCHAR
STARTCHAR uni0415
ENCODING 1045
SWIDTH 459 0
DWIDTH 11 0
BBX 12 18 0 0
BITMAP
000BF4
007FAD
00FC0E
02F40E
02F42D
02F414
02F800
00BE00
02FD00
0FF000
2FD000
7F8000
BF4000
BF4001
BF8009
BFD5B4
3FFFD0
0BF900
ENDCHAR
STARTCHAR uni0416
ENCODING 1046
SWIDTH 777 0
DWIDTH 19 0
BBX 21 18 -1 0
BITMAP
01B801A02F40
02FF0BF0FF80
01EB4BE2DB40
00034FD78000
00039FDB0000
00029FDD0000
0002AFAC0000
0002BFA80000
006FFFFF8000
02FEBFAFE000
03F47F0BE000
0BE0BE0BE000
0BD0FE0BD000
0FD0FD0FD000
0FC1FC1FC000
1FC2FC2F8000
2F82F82F8000
7E03F41FC000
ENDCHAR
STARTCHAR uni0417
ENCODING 1047
SWIDTH 525 0
DWIDTH 13 0
BBX 13 18 -1 0
BITMAP
000BF900
0079BF40
01C03F80
02402FC0
00003F80
0000BF40
0006FD00
003FE000
0017FD00
0000FF00
0000BF40
0000BF40
0500BF40
3E00BF00
7D01FE00
3D02FC00
2F5FE000
06FE4000
ENDCHAR
STARTCHAR uni0418
ENCODING 1048
SWIDTH 705 0
DWIDTH 17 0
BBX 18 18 0 0
BITMAP
001BE00FE0
01FFD02FD0
0B9FC07FC0
2E2FC0BFC0
7C2F81FF80
B83F83FF40
B83F47BF40
787F0F7F00
14BF2DBE00
00BE38FE00
00FDB4FD00
01FEE1FD00
01FFC1FC00
02FF42F800
03FF03F800
03FD03F400
07F807F000
07F00BF000
ENDCHAR
STARTCHAR uni0419
ENCODING 1049
SWIDTH 705 0
DWIDTH 17 0
BBX 18 23 0 0
BITMAP
0000280240
0000BD0700
0000BD6D00
00002FE400
0000010000
001BE00FE0
01FFD02FD0
0B9FC07FC0
2E2FC0BFC0
7C2F81FF80
B83F83FF40
B83F47BF40
787F0F7F00
14BF2DBE00
00BE38FE00
00FDB4FD00
01FEE1FD00
01FFC1FC00
02FF42F800
03FF03F800
03FD03F400
07F807F000
07F00BF000
ENDCHAR
STARTCHAR uni041A
ENCODING 1050
SWIDTH 635 0
DWIDTH 15 0
BBX 17 18 0 0
BITMAP
001BE06E00
01FFD2FF40
0B5FC79E00
3D2FDE0000
7C2FB80000
B83FB00000
B87FE00000
287FFE4000
00BE2FC000
00BE0FC000
00FD0FC000
01FC1FC000
01FC1F8000
02F82F8000
03F83F4000
03F43F0000
07F07F0000
07F02F4000
ENDCHAR
STARTCHAR uni041B
ENCODING 1051
SWIDTH 549 0
DWIDTH 13 0
BBX 15 21 -1 -3
BITMAP
000006F8
00002FF8
0000B7F4
0002D7F4
000B47F0
001E0BE0
003D0FE0
00B80FD0
01F41FC0
02E02FC0
07D02F80
0BC03F40
1F807F40
2F407F00
3F00BF00
7E00BE00
BD00FD00
BD01FD00
BD000000
7D000000
15000000
ENDCHAR
STARTCHAR uni041C
ENCODING 1052
SWIDTH 787 0
DWIDTH 19 0
BBX 19 18 1 0
BITMAP
001BF007F4
01FBF00BF0
078BF01FF0
1E0FF02FE0
3D1FF03FE0
7C2FF07FE0
7C7FF0BFD0
3CBFE1FFD0
04FBE2EFC0
01EBE3DFC0
02DBE76F80
03CBEF2F80
078BFE3F80
0B0BFD3F40
0E0BF87F40
1D0FF47F00
3C0FF07F00
780FE0BF00
ENDCHAR
STARTCHAR uni041D
ENCODING 1053
SWIDTH 665 0
DWIDTH 16 0
BBX 17 18 0 0
BITMAP
001BE03F80
01FFD03F40
0B9FC07F00
2E1FC0BF00
7C2F80BE00
B83F80FD00
B83F41FD00
787FAAFC00
14BFFFFC00
00BE02F800
00FD03F400
01FD07F400
01FC07F000
02F80BE000
03F80FE000
03F40FD000
07F41FC000
07F02FC000
ENDCHAR
STARTCHAR uni041E
ENCODING 1054
SWIDTH 665 0
DWIDTH 16 0
BBX 16 18 0 0
BITMAP
0006FF80
00BE9BF4
07E1A0FC
1F4BD0BD
3D2F80BE
7C7F007E
B8BE00BE
79FD00BE
16FC00BE
03F800FD
03F401FC
07F402F8
07F403F4
07F00BE0
07F41FD0
03F87F40
02FFFD00
006FA000
ENDCHAR
STARTCHAR uni041F
ENCODING 1055
SWIDTH 688 0
DWIDTH 17 0
BBX 19 18 0 0
BITMAP
006BFA5018
07FFFFFFF8
1FFFFFFFF4
3F1FC5BF90
7C2FC0BF00
B83F80BE00
B83F40FD00
B87F41FD00
28BF01FC00
00BE02F800
00FE03F800
00FD03F400
01FC07F000
02FC0BF000
02F80BE000
03F40FD000
07F41FD000
07F01FC000
ENDCHAR
STARTCHAR uni0420
ENCODING 1056
SWIDTH 573 0
DWIDTH 14 0
BBX 15 18 0 0
BITMAP
001BF900
01FA6F80
0B8047E0
2E2FC2F0
7C2F81F4
B83F42F0
B47F42F0
B47F03E0
24BE0BC0
00FE2F00
00FEF800
01FD0000
02FC0000
02F80000
03F40000
07F40000
07F00000
0BE00000
ENDCHAR
STARTCHAR uni0421
ENCODING 1057
SWIDTH 497 0
DWIDTH 12 0
BBX 13 18 0 0
BITMAP
000BF900
007F9B40
01FE0780
03F80780
0BF40B80
1FE00600
2FD00000
3FC00000
3FC00000
7F800000
7F800000
7F400000
BF400000
7F800000
7FC00200
3FE56D00
1FFFF400
06FE4000
ENDCHAR
STARTCHAR uni0422
ENCODING 1058
SWIDTH 481 0
DWIDTH 12 0
BBX 17 18 0 0
BITMAP
006FFA4080
07E7FFFFC0
1E03FFFF80
3C07FAAA00
7807F40000
B40BF00000
B40FE00000
B40FE00000
681FD00000
001FC00000
002FC00000
003F800000
003F400000
007F400000
00BF000000
00BE000000
00FE000000
00FD000000
ENDCHAR
STARTCHAR uni0423
ENCODING 1059
SWIDTH 644 0
DWIDTH 15 0
BBX 17 18 0 0
BITMAP
001BE002C0
01FFF00380
0B8BF40700
2E07F40E00
7C07F81D00
B803FC2800
B802FC3400
7801FDB000
2400FEE000
0000FFC000
0000BF8000
00007F4000
00003F0000
00002D0000
00002C0000
002E340000
003FE00000
001F800000
ENDCHAR
STARTCHAR uni0424
ENCODING 1060
SWIDTH 786 0
DWIDTH 19 0
BBX 18 19 0 0
BITMAP
006FFF8000
02F96FC000
03D02F8000
03C03F8000
00407F8000
0064BFFD00
02D0BF1F80
0F80FE07E0
2F01FD03F0
7F01FC03F0
7E02FC07F0
BE03F80BE0
7F03F40FD0
3F47F42F80
1FDBF5FE00
07FFFFE400
001FE50000
000FD00000
001FD00000
ENDCHAR
STARTCHAR uni0425
ENCODING 1061
SWIDTH 620 0
DWIDTH 15 0
BBX 15 18 0 0
BITMAP
001BE038
01FFE074
0B4FF0E0
2D0BF6C0
7C07FB40
B807FF00
B403FD00
B402FC00
1402FD00
0001FD00
0002FE00
0003FF00
000BBF00
001DBF40
00287F80
00743F80
00E03FC0
01C02FC0
ENDCHAR
STARTCHAR uni0426
ENCODING 1062
SWIDTH 692 0
DWIDTH 17 0
BBX 17 22 0 -4
BITMAP
001BE03F80
01FFD03F40
0B9FC07F00
2E2FC0BF00
7C2F80BE00
B83F80FD00
B83F41FD00
787F01FC00
14BF02FC00
00BE02F800
00FD03F400
01FD07F400
01FC07F000
02F80BE000
03F80FE000
03F40FD000
07FA5FC000
07FFFFC000
0006FFD040
00002FFFC0
000007FF80
000000BE00
ENDCHAR
STARTCHAR uni0427
ENCODING 1063
SWIDTH 695 0
DWIDTH 17 0
BBX 18 18 0 0
BITMAP
001BE01FD0
01FFD01FC0
0B9FC02FC0
2E2FC02F80
7C2F803F40
B83F807F40
B83F407F00
783F40BE00
143F81FE00
002FFFFD00
000BFAFC00
000001FC00
000002F800
000003F800
000003F400
000007F000
00000BF000
00000BE000
ENDCHAR
STARTCHAR uni0428
ENCODING 1064
SWIDTH 906 0
DWIDTH 22 0
BBX 23 18 0 0
BITMAP
001BE0BE03F4
01FFD0FE07F0
0B9FC0FD0BF0
2E2FC1FD0BE0
7C2F81FC0FD0
B83F82F81FD0
B83F43F81FC0
787F03F42FC0
14BF07F02F80
00BE0BF03F40
00FD0BE07F40
01FD0FD07F00
01FC1FD0BE00
02F81FC0FE00
03F82FC0FD00
03F42F81FC00
07FABFEBFC00
07FFFFFFF800
ENDCHAR
STARTCHAR uni0429
ENCODING 1065
SWIDTH 934 0
DWIDTH 22 0
BBX 23 22 0 -4
BITMAP
001BE0BE03F4
01FFD0FE07F0
0B9FC0FD0BF0
2E2FC1FD0BE0
7C2F81FC0FD0
B83F82F81FD0
B83F43F81FC0
787F03F42FC0
14BF07F02F80
00BE0BF03F40
00FD0BE07F40
01FD0FD07F00
01FC1FD0BE00
02F81FC0FE00
03F82FC0FD00
03F42F81FC00
07FABF42FC00
07FFFFA6F800
0005BFFFF804
000006FFFFF8
0000001BFFF4
000000006BE0
ENDCHAR
STARTCHAR uni042A
ENCODING 1066
SWIDTH 714 0
DWIDTH 17 0
BBX 17 18 0 0
BITMAP
006BFD0000
06A6FC0000
1D02FC0000
3C03F80000
7803F40000
B807F40000
B807F00000
7D0BFFF800
040FE6FE00
000FD07F00
001FC03F40
002FC03F40
002F803F40
003F807F00
003F40BE00
007F65FC00
00BF7FF400
00BE2F9000
ENDCHAR
STARTCHAR uni042B
ENCODING 1067
SWIDTH 909 0
DWIDTH 22 0
BBX 23 18 0 0
BITMAP
001BE00003F4
01FFD00007F4
0B5FC00007F0
2D2FC0000BE0
7C2F80000FE0
B83F40000FD0
B83F40001FC0
287FBF802FC0
00BF5FE02F80
00BE07F43F80
00FD03F47F40
01FC03F47F00
01FC03F4BF00
02F803F4BE00
03F807F0FD00
03F65FD1FD00
07F7FF81FC00
07F1FD02F800
ENDCHAR
STARTCHAR uni042C
ENCODING 1068
SWIDTH 640 0
DWIDTH 15 0
BBX 15 18 0 0
BITMAP
001BE000
01FFD000
0B5FC000
2D2FC000
7C2F8000
B83F4000
B83F4000
287FBF80
00BF5FE0
00BE07F4
00FD03F4
01FC03F4
01FC03F4
02F803F4
03F807F0
03F65FD0
07F7FF80
07F1FD00
ENDCHAR
STARTCHAR uni042D
ENCODING 1069
SWIDTH 544 0
DWIDTH 13 0
BBX 14 18 -1 0
BITMAP
001BF900
00AAFF80
02402FD0
06001FE0
00001FE0
00000FE0
00001FE0
007FFFE0
00156FE0
00002FD0
00003FC0
00007F80
1500BF40
3D00FF00
7C02FD00
3C07F400
2D1FD000
07FA0000
ENDCHAR
STARTCHAR uni042E
ENCODING 1070
SWIDTH 946 0
DWIDTH 23 0
BBX 23 18 0 0
BITMAP
001BE00BF900
01FFD03AAFC0
0B9FC0564BE0
2E1FC02F03F0
7C2F80BD02F4
B83F82F802F4
B83F43F402F4
787FAFF003F4
14BFFFE003F4
00BE0FD007F0
00FD1FD007E0
01FD2FC00FD0
01FC2FC01FC0
02F82FC02F80
03F82FC07F00
03F41FD1FD00
07F40BFFF400
07F002FE4000
ENDCHAR
STARTCHAR uni042F
ENCODING 1071
SWIDTH 630 0
DWIDTH 15 0
BBX 18 18 -1 0
BITMAP
0001AFE800
000BE9AF40
003E0157D0
00BC0FE2E0
00F40FD2E0
01F41FC2C0
01F42FC000
00F82F8000
007E7F4000
00BFFF4000
02FDBF0000
07F0BE0000
0BE0BE0000
0FD0FD0000
0FC1FC0000
1F81FC0000
2F82F80000
7E03F80000
ENDCHAR
STARTCHAR uni0430
ENCODING 1072
SWIDTH 526 0
DWIDTH 13 0
BBX 15 12 -1 0
BITMAP
006F7F40
02FDFF40
07F07F00
0FD0BE00
2FC0FE00
3F80FD00
3F41FC00
7F42FC04
7F43F824
7F9BFD60
2FF9FFC0
0BE0BE00
ENDCHAR
STARTCHAR uni0431
ENCODING 1073
SWIDTH 430 0
DWIDTH 10 0
BBX 15 18 -1 0
BITMAP
00000024
002FFFF0
007FFFE0
003FFF80
002F0000
000B8000
0002D000
00BFE000
02F9F000
0BE0B400
1FC0B400
3F80F400
3F40F000
7F41E000
7F42D000
3F8B8000
2FFE0000
0BF80000
ENDCHAR
STARTCHAR uni0432
ENCODING 1074
SWIDTH 449 0
DWIDTH 11 0
BBX 14 18 -1 0
BITMAP
000BE000
002FB400
007D2800
00F83800
02F43800
07F07400
0BE07000
0FD0A000
1FC1D010
2FCBD1A0
3F8FFE40
3F4AF400
7F40F400
7F40F400
7F41F000
3F97D000
2FFF4000
07F90000
ENDCHAR
STARTCHAR uni0433
ENCODING 1075
SWIDTH 375 0
DWIDTH 9 0
BBX 11 12 -1 0
BITMAP
01BE00
07FFC0
1D6FC0
281FC0
203F80
01FF40
0BF800
2FD000
7F4014
7F4060
7FDB40
1BF900
ENDCHAR
STARTCHAR uni0434
ENCODING 1076
SWIDTH 507 0
DWIDTH 12 0
BBX 14 18 -1 -6
BITMAP
006F7F40
02FDFF40
07F07F00
0FD0BE00
2FC0FE00
3F80FD00
3F41FC00
7F42FC10
7F43F830
7F9BF490
2FFFF680
0BEBFE00
002FF000
01EFE000
074FD000
071FC000
07BF4000
01F90000
ENDCHAR
STARTCHAR uni0435
ENCODING 1077
SWIDTH 384 0
DWIDTH 9 0
BBX 11 12 -1 0
BITMAP
006F80
02FAE0
07F0E0
0FD1E0
2FC3D0
3F9F40
3FF900
7F4000
7F4018
3F4060
2FEA80
0BF900
ENDCHAR
STARTCHAR uni0436
ENCODING 1078
SWIDTH 882 0
DWIDTH 21 0
BBX 23 12 -1 0
BITMAP
06F807F02F80
0EBE07E0BEE0
282F4BE1F4E0
101F4FD3E090
001F9FD7D000
002FFFFFC000
002F6F9FC000
103E2F4FC004
B47D3F4FC018
F0BC3F0FC060
BAF47F07FAC0
2F90BE01FE00
ENDCHAR
STARTCHAR uni0437
ENCODING 1079
SWIDTH 498 0
DWIDTH 12 0
BBX 13 18 0 -6
BITMAP
01BF4000
07FFE000
1E5FF000
2807F400
3007F000
600BE000
900FD000
407F4040
07FD0180
01BE0300
007F5D00
003FF400
01BF8000
07BF4000
1D7F4000
28BF0000
1EFD0000
0BE40000
ENDCHAR
STARTCHAR uni0438
ENCODING 1080
SWIDTH 505 0
DWIDTH 12 0
BBX 13 12 0 0
BITMAP
1FC2FC00
2F82F800
3F83F400
3F47F400
7F07F000
BF0BF000
BE0FE000
FD0FD040
FD1FD180
FE7FE740
FFDFFE00
6E47E400
ENDCHAR
STARTCHAR uni0439
ENCODING 1081
SWIDTH 505 0
DWIDTH 12 0
BBX 13 17 0 0
BITMAP
01900800
03F02800
03E5B000
01FF8000
00000000
1FC2FC00
2F82F800
3F83F400
3F47F400
7F07F000
BF0BF000
BE0FE000
FD0FD040
FD1FD180
FE7FE740
FFDFFE00
6E47E400
ENDCHAR
STARTCHAR uni043A
ENCODING 1082
SWIDTH 501 0
DWIDTH 12 0
BBX 14 12 -1 0
BITMAP
07F02F40
0BE0BF40
0FE28A00
0FDA0000
1FEE9000
2FFFF000
2FD3F400
3F43F410
3F43F060
7F07F5D0
BF03FF80
BE01BD00
ENDCHAR
STARTCHAR uni043B
ENCODING 1083
SWIDTH 558 0
DWIDTH 13 0
BBX 15 12 -1 0
BITMAP
0001BFC0
0007AFC0
000A1F80
000D2F80
001C3F40
00287F00
00347F00
1034BE04
B870BD0C
F8A0FE68
B6D0BFE0
2F402F80
ENDCHAR
STARTCHAR uni043C
ENCODING 1084
SWIDTH 827 0
DWIDTH 20 0
BBX 22 12 -1 0
BITMAP
0001BC01FE00
0007FC03FD00
000AFC07FD00
001CFC0FFC00
001CFC1EF800
0028FC3AF800
0034BC77F400
1034BDE7F010
B870BED7F090
F4A0BF87F6C0
B6D0BF47FF40
2F407E01F900
ENDCHAR
STARTCHAR uni043D
ENCODING 1085
SWIDTH 507 0
DWIDTH 12 0
BBX 14 12 -1 0
BITMAP
07F07F00
0BE0BE00
0FE0BE00
0FD0FD00
1FD1FC00
2FFFFC00
2F96F800
3F82F410
7F43F470
7F03F5D0
BF03FF80
BE01BE00
ENDCHAR
STARTCHAR uni043E
ENCODING 1086
SWIDTH 439 0
DWIDTH 11 0
BBX 15 12 -1 0
BITMAP
006F8000
02FEE000
07F0B014
0FD1F5A0
2FC1FE40
3F80F000
3F40F000
7F41E000
7F43D000
7F8B8000
2FFE0000
0BF40000
ENDCHAR
STARTCHAR uni043F
ENCODING 1087
SWIDTH 505 0
DWIDTH 12 0
BBX 14 12 -1 0
BITMAP
07F6F400
0BFAFC00
0FE0FD00
0FD1FD00
1FC1FC00
2FC2FC00
2F82F800
3F43F410
7F43F460
7F03F5D0
BF03FF80
BE01BD00
ENDCHAR
STARTCHAR uni0440
ENCODING 1088
SWIDTH 468 0
DWIDTH 11 0
BBX 13 19 -2 -6
BITMAP
01FD0000
01FDBD00
02FEBF40
03F82F80
03F42F80
07F02F80
0BF03F40
0BE03F40
0FD07F00
1FD0FE00
1FD2FC00
2FFFF400
3FAF9000
3F400000
7F400000
7F000000
BE000000
FE000000
90000000
ENDCHAR
STARTCHAR uni0441
ENCODING 1089
SWIDTH 384 0
DWIDTH 9 0
BBX 11 12 -1 0
BITMAP
006F80
02FAE0
07F0E0
0FD1E0
2FC000
3F8000
3F4000
7F4000
7F4018
3F4060
2FEA80
0BF900
ENDCHAR
STARTCHAR uni0442
ENCODING 1090
SWIDTH 752 0
DWIDTH 18 0
BBX 20 12 -1 0
BITMAP
07F6F8BE40
0BFAFFAFC0
0FE1FE1FD0
0FD1FD1FC0
1FC1FC1FC0
2FC2F82F80
2F83F83F80
3F43F43F41
7F47F07F06
7F07F07F5D
BF0BE03FF8
BE0FE01B90
ENDCHAR
STARTCHAR uni0443
ENCODING 1091
SWIDTH 486 0
DWIDTH 12 0
BBX 13 18 0 -6
BITMAP
1FC2FC00
2F82F800
3F83F400
3F47F400
7F07F000
BF0BE000
BE0FE000
FD0FD040
FD1FD240
FE7FC700
FFFF9D00
6E7FE000
01BF4000
0BBF0000
28BF0000
34FE0000
2FFC0000
0BE00000
ENDCHAR
STARTCHAR uni0444
ENCODING 1092
SWIDTH 738 0
DWIDTH 18 0
BBX 18 23 -1 -6
BITMAP
0000054000
00000FC000
00001F8000
00002F8000
00002F4000
006F7F6F40
02FEFFAFD0
0BF0BE0BE0
0FD0BD0BE0
2FC0FD0BE0
3F80FC0BE0
3F41F80FD0
7F42F81FD0
7F43F42F80
7F9BF5BF40
2FFFFFFD00
0BE7EBE400
000BE00000
000FD00000
000FC00000
001FC00000
002F800000
0015000000
ENDCHAR
STARTCHAR uni0445
ENCODING 1093
SWIDTH 522 0
DWIDTH 13 0
BBX 14 13 0 0
BITMAP
00002D00
01BD2F00
06BF0B00
083F4E00
243F6C00
302FF000
602FC000
902F8000
807FC050
01DFC090
074FE680
0E07FE00
3802F400
ENDCHAR
STARTCHAR uni0446
ENCODING 1094
SWIDTH 535 0
DWIDTH 13 0
BBX 12 18 0 -6
BITMAP
1FC2FC
2F82F8
3F83F4
3F47F4
7F07F0
BF0BF0
BE0FE0
FD0FD0
FD1FD0
FE7FE4
FFDFFD
6E47ED
00000C
000028
01BFF4
07FFE0
0BFF80
080000
ENDCHAR
STARTCHAR uni0447
ENCODING 1095
SWIDTH 505 0
DWIDTH 12 0
BBX 13 12 0 0
BITMAP
1FC2FC00
2F82F800
3F83F400
3F47F400
7F0BF000
7F5FE000
7FFFE000
1F9FD080
001FD180
001FEB40
000FFD00
0007E400
ENDCHAR
STARTCHAR uni0448
ENCODING 1096
SWIDTH 752 0
DWIDTH 18 0
BBX 19 12 0 0
BITMAP
1FC2FC2F80
2F82F83F80
3F83F43F40
3F47F47F40
7F07F07F00
BF0BF0BE00
BE0FE0FE00
FD0FD0FD04
FD1FD2FD18
FE7FE7FE74
FFDFFDFFD0
6E47E47E40
ENDCHAR
STARTCHAR uni0449
ENCODING 1097
SWIDTH 782 0
DWIDTH 19 0
BBX 18 18 0 -6
BITMAP
1FC2FC2F80
2F82F83F80
3F83F43F40
3F47F47F40
7F07F07F00
BF0BF0BE00
BE0FE0FE00
FD0FD0FD00
FD1FD2FD00
FE7FE7FE40
FFDFFDFFD0
6E47E47EC0
00000001C0
0000000280
00002FFF40
0000BFFE00
0000FFF800
0001C00000
ENDCHAR
STARTCHAR uni044A
ENCODING 1098
SWIDTH 448 0
DWIDTH 11 0
BBX 10 12 0 0
BITMAP
2FF800
B9F000
F5D000
ABC000
1FFF80
3F9BE0
7E07E0
FE07E0
FD0BD0
FD1F80
BEBE00
2FE400
ENDCHAR
STARTCHAR uni044B
ENCODING 1099
SWIDTH 655 0
DWIDTH 16 0
BBX 17 12 0 0
BITMAP
1F8001B400
2F800BF400
3F40BFF000
3F7F97E000
7F7F4BE000
BE078FD000
BE078FD000
FD0B9FC140
FC0F5F8240
FD2E2FDB00
BFF81FFD00
2F9007E400
ENDCHAR
STARTCHAR uni044C
ENCODING 1100
SWIDTH 448 0
DWIDTH 11 0
BBX 10 12 0 0
BITMAP
1FC000
2F8000
3F8000
3F9900
7FFFC0
BF5BE0
BE07E0
FE07E0
FD0FD0
FD2F80
BFFE00
2FE400
ENDCHAR
STARTCHAR uni044D
ENCODING 1101
SWIDTH 413 0
DWIDTH 10 0
BBX 11 12 -2 0
BITMAP
006F90
029BF4
0A02F8
0402FC
0002FC
00BFF8
0057F4
1407F0
3C0BE0
781F80
3D7F00
1BE400
ENDCHAR
STARTCHAR uni044E
ENCODING 1102
SWIDTH 675 0
DWIDTH 16 0
BBX 20 12 -1 0
BITMAP
07F006F800
0BE02FAD00
0FE0BE0E01
0FD1FC2F5A
1FD3F82FE4
2FFFF41E00
2F9BF01E00
3F4BF02D00
7F4BF03C00
7F0BF0B400
BF03FAE000
BE01BE4000
ENDCHAR
STARTCHAR uni044F
ENCODING 1103
SWIDTH 527 0
DWIDTH 13 0
BBX 15 12 -1 0
BITMAP
002BFF40
01FE7F40
03F07F00
07E07E00
07E0BE00
07F4FD00
01FFFC00
1079FC04
B8B1F824
F8E2FDA0
BAD1FFD0
2F40BE40
ENDCHAR
STARTCHAR uni0450
ENCODING 1104
SWIDTH 384 0
DWIDTH 9 0
BBX 11 17 -1 0
BITMAP
003D00
002D00
001E00
000A00
000000
006F80
02FAE0
07F0E0
0FD1E0
2FC3D0
3F9F40
3FF900
7F4000
7F4018
3F4060
2FEA80
0BF900
ENDCHAR
STARTCHAR uni0451
ENCODING 1105
SWIDTH 384 0
DWIDTH 9 0
BBX 11 17 -1 0
BITMAP
00B468
00F8BC
00B478
000000
000000
006F80
02FAE0
07F0E0
0FD1E0
2FC3D0
3F9F40
3FF900
7F4000
7F4018
3F4060
2FEA80
0BF900
ENDCHAR
STARTCHAR uni0452
ENCODING 1106
SWIDTH 491 0
DWIDTH 12 0
BBX 14 23 -1 -6
BITMAP
00580000
02FC0000
02F80000
03F80000
2FFFD000
1BF54000
0BF00000
0FEBF400
0FFFF800
1FE2FC00
2FC1F800
2F82F800
3F83F400
3F43F4A0
7F07F0C0
BF0BE740
BE0BF900
006FD000
02EFC000
0B1F8000
0A2F4000
0BBF0000
02F80000
ENDCHAR
STARTCHAR uni0453
ENCODING 1107
SWIDTH 375 0
DWIDTH 9 0
BBX 11 18 -1 0
BITMAP
000064
0001F0
0002D0
000780
000A00
000000
01BE00
07FFC0
1D6FC0
281FC0
203F80
01FF40
0BF800
2FD000
7F4014
7F4060
7FDB40
1BF900
ENDCHAR
STARTCHAR uni0454
ENCODING 1108
SWIDTH 384 0
DWIDTH 9 0
BBX 11 12 -1 0
BITMAP
006F80
02FAE0
07F0E0
0FD0D0
2FC000
3FFE00
3F9400
7F4000
7F4018
3F4060
2FEA80
0BF900
ENDCHAR
STARTCHAR uni0455
ENCODING 1109
SWIDTH 382 0
DWIDTH 9 0
BBX 11 13 -1 0
BITMAP
005A00
00FF00
01FF00
02FF40
037F40
067F40
0D3F40
183F40
7C3F84
BC3FA4
A07F90
7AFE00
1BE400
ENDCHAR
STARTCHAR uni0456
ENCODING 1110
SWIDTH 267 0
DWIDTH 6 0
BBX 7 17 0 0
BITMAP
07D0
0BE0
0BE0
07D0
0000
1FC0
2F80
3F80
3F40
7F00
BF00
BE00
FD04
FD0C
FE68
FFE0
6E40
ENDCHAR
STARTCHAR uni0457
ENCODING 1111
SWIDTH 267 0
DWIDTH 6 0
BBX 8 17 0 0
BITMAP
6829
BD7E
782D
0000
0000
1FC0
2F80
3F80
3F40
7F00
BF00
BE00
FD04
FD0C
FE68
FFE0
6E40
ENDCHAR
STARTCHAR uni0458
ENCODING 1112
SWIDTH 240 0
DWIDTH 6 0
BBX 12 23 -5 -6
BITMAP
0001E0
0003F8
0003F8
0001E0
000000
0007F0
000BE0
000FE0
000FD0
001FD0
002FC0
002F80
003F80
003F46
007F0C
00BF24
00BF90
06FE00
2FFD00
75FC00
A2F800
BBF000
2F8000
ENDCHAR
STARTCHAR uni0459
ENCODING 1113
SWIDTH 745 0
DWIDTH 18 0
BBX 18 12 -1 0
BITMAP
0001BFC000
0007AFC000
000F2F8000
001D2F9900
002C3FFFD0
00287F9BE0
00387F07F0
0074BE07E0
B870BE0BD0
F8E0BD0F80
BAD07FBE00
2F401BE400
ENDCHAR
STARTCHAR uni045A
ENCODING 1114
SWIDTH 694 0
DWIDTH 17 0
BBX 17 12 -1 0
BITMAP
07F07F0000
0BE0BE0000
0FE0BE0000
0FD0FD5400
1FD1FFFF00
2FFFFD7F80
2F96F82F80
3F82F42F80
7F43F42F40
7F03F47E00
BF02FAF800
BE00BF9000
ENDCHAR
STARTCHAR uni045B
ENCODING 1115
SWIDTH 505 0
DWIDTH 12 0
BBX 14 17 -1 0
BITMAP
00580000
02FC0000
02F80000
03F80000
2FFFD000
1BF54000
0BF00000
0FEBF400
0FFFF800
1FE2FC00
2FC1FC00
2F82F800
3F83F410
3F43F470
7F03F5D0
BF03FF80
BE01BD00
ENDCHAR
STARTCHAR uni045C
ENCODING 1116
SWIDTH 501 0
DWIDTH 12 0
BBX 14 18 -1 0
BITMAP
00001900
00007C00
0000B400
0001E000
00028000
00000000
07F02F40
0BE0BF40
0FE28A00
0FDA0000
1FEE9000
2FFFF000
2FD3F400
3F43F410
3F43F060
7F07F5D0
BF03FF80
BE01BD00
ENDCHAR
STARTCHAR uni045D
ENCODING 1117
SWIDTH 505 0
DWIDTH 12 0
BBX 13 17 0 0
BITMAP
00B80000
003C0000
002C0000
001D0000
00000000
1FC2FC00
2F82F800
3F83F400
3F47F400
7F07F000
BF0BF000
BE0FE000
FD0FD040
FD1FD180
FE7FE740
FFDFFE00
6E47E400
ENDCHAR
STARTCHAR uni045E
ENCODING 1118
SWIDTH 486 0
DWIDTH 12 0
BBX 13 23 0 -6
BITMAP
01900800
03F02800
03E5B000
01FF8000
00000000
1FC2FC00
2F82F800
3F83F400
3F47F400
7F07F000
BF0BE000
BE0FE000
FD0FD040
FD1FD240
FE7FC700
FFFF9D00
6E7FE000
01BF4000
0BBF0000
28BF0000
34FE0000
2FFC0000
0BE00000
ENDCHAR
STARTCHAR uni045F
ENCODING 1119
SWIDTH 505 0
DWIDTH 12 0
BBX 13 18 0 -6
BITMAP
1FC2FC00
2F82F800
3F83F400
3F47F400
7F07F000
BF0BF000
BE0FE000
FD0FD040
FD1FD180
FE7FE740
FFDFFE00
6E47E400
00600000
00F40000
01F80000
00FC0000
00740000
00500000
ENDCHAR
STARTCHAR uni0462
ENCODING 1122
SWIDTH 659 0
DWIDTH 16 0
BBX 15 18 0 0
BITMAP
000FD000
001FC000
002FC000
1BFFFFFC
7E7FFFF8
B87F6BE0
B4BF0000
B4BFFF40
14FE6FD0
01FD07F0
01FC07F0
02FC03F4
02F807F0
03F407F0
07F40BE0
07F66FC0
0BF7FF40
0BE2F900
ENDCHAR
STARTCHAR uni0463
ENCODING 1123
SWIDTH 692 0
DWIDTH 17 0
BBX 17 12 -1 0
BITMAP
07F6F40000
0BFAFC0000
0FE0FD0000
0FD0FD0000
1FC1FFFE00
2FC2FD7F40
2F82F82F80
3F43F42F80
7F43F42F40
7F03F47E00
BF02FAF800
BE00BF9000
ENDCHAR
STARTCHAR uni046A
ENCODING 1130
SWIDTH 834 0
DWIDTH 20 0
BBX 18 18 1 0
BITMAP
001BFFFFE0
01FFF956D0
0B9BF40380
2E07F80A00
7C03FC1D00
B802FD3800
B801FEB000
7800FFD000
146FFFFF80
02F9BF5FD0
07F0BF0BE0
0BE0FE0BE0
0FD0FD0FD0
0FC1FD1FC0
1FC1FC1F80
2F82F82F80
3F43F82F80
BE03F41F80
ENDCHAR
STARTCHAR uni046B
ENCODING 1131
SWIDTH 750 0
DWIDTH 18 0
BBX 15 12 1 0
BITMAP
01BFFFF0
1FBFD5D0
3E2FC180
3C0FD600
2C0BE900
02FFFFE0
0BE7F6F8
1F87E2F8
1F8BE2F4
2F4FD3F4
3F0FC7F0
7D1FC3F0
ENDCHAR
STARTCHAR uni0472
ENCODING 1138
SWIDTH 665 0
DWIDTH 16 0
BBX 16 18 0 0
BITMAP
0006FF80
00BE9BF4
07E1A0FC
1F4BD0BD
3D2F80BE
7C7F007E
B8BE00BE
79FD00BE
16FEF5FE
03FD7EFD
03F405FC
07F402F8
07F403F4
07F007E0
07F40FD0
03F42F40
02FEBD00
006FA000
ENDCHAR
STARTCHAR uni0473
ENCODING 1139
SWIDTH 439 0
DWIDTH 11 0
BBX 15 12 -1 0
BITMAP
006F8000
02FAE000
07F0B414
0FD1F9A0
2FC1FE40
3FA9F000
3FAFF000
7F46E000
7F43D000
7F9B8000
2FFE0000
0BF40000
ENDCHAR
STARTCHAR uni0474
ENCODING 1140
SWIDTH 668 0
DWIDTH 16 0
BBX 18 18 0 0
BITMAP
001BE007D0
01FFE01F80
0B4FE03F00
2D0FE07D00
7C0FE0B800
B80FE0F400
B40FE1F000
B40FE2D000
140FE3C000
000FE38000
000FE74000
000BEB0000
000BEA0000
000BED0000
000BFC0000
000BF80000
000BF40000
000BF00000
ENDCHAR
STARTCHAR uni0475
ENCODING 1141
SWIDTH 414 0
DWIDTH 10 0
BBX 10 12 0 0
BITMAP
1FC7C0
2F87E0
3F80E0
3F40D0
7F01D0
BF02C0
BE0380
FD0740
FD0F00
FE7D00
FFF400
6F9000
ENDCHAR
STARTCHAR uni0490
ENCODING 1168
SWIDTH 431 0
DWIDTH 10 0
BBX 16 21 0 0
BITMAP
00000004
0000000D
0000002D
006FFFFD
07FFFFFC
1E1FDAA0
3C2F8000
783F8000
B83F4000
B87F0000
78BF0000
14BE0000
00FD0000
01FD0000
01FC0000
02F80000
03F80000
03F40000
07F40000
07F00000
0BE00000
ENDCHAR
STARTCHAR uni0491
ENCODING 1169
SWIDTH 342 0
DWIDTH 8 0
BBX 10 14 -1 0
BITMAP
0000E0
0001F0
07FFE0
0BE540
0FE000
0FD000
1FC000
2FC000
2F8000
3F4000
7F4000
7F0000
BF0000
BE0000
ENDCHAR
STARTCHAR uni0492
ENCODING 1170
SWIDTH 400 0
DWIDTH 10 0
BBX 15 18 0 0
BITMAP
006BFFFC
07FFFFF8
1F5FDAA4
3D1FC000
7C2F8000
BC3F8000
B83F4000
787F4000
287F0000
00BE0000
0FFFF000
05FD5000
01FC0000
02FC0000
02F80000
03F40000
07F40000
07F00000
ENDCHAR
STARTCHAR uni0493
ENCODING 1171
SWIDTH 375 0
DWIDTH 9 0
BBX 11 12 -1 0
BITMAP
01BE40
0BFFC0
1D6FC0
342FC0
10BF40
7FFFD0
6FF540
3F8004
7F4024
7F4090
7FEB40
1BF800
ENDCHAR
STARTCHAR uni0494
ENCODING 1172
SWIDTH 665 0
DWIDTH 16 0
BBX 15 19 0 -1
BITMAP
006BFFFC
07FFFFF8
1F5FDAA4
3D1FC000
7C2F8000
BC3F8000
B83F4000
B87F5940
28BFFFD0
00BE07F4
00FE02F8
01FD02F8
01FC01F8
02FC02F8
02F802F4
03F407F0
07F55FD0
07F3FF80
0001F900
ENDCHAR
STARTCHAR uni0495
ENCODING 1173
SWIDTH 486 0
DWIDTH 12 0
BBX 14 18 -1 -6
BITMAP
07FFFE00
0BFFFD00
0FE6A400
0FD00000
1FDBD000
2FFFF000
2F87F400
3F43F410
3F47F090
7F07F1C0
BF0BE740
BE0FF800
007FC000
02EFC000
0B1F8000
0D2F4000
0ABE0000
06F80000
ENDCHAR
STARTCHAR uni0496
ENCODING 1174
SWIDTH 777 0
DWIDTH 19 0
BBX 21 25 -1 -7
BITMAP
01B801A02F40
02FF0BF0FF80
01EB4BE2DB40
00034FD78000
00039FDB0000
00029FDD0000
0002AFAC0000
0002BFA80000
006FFFFF8000
02FEBFAFE000
03F47F0BE000
0BE0BE0BE000
0BD0FE0BD000
0FD0FD0FD000
0FC1FC1FC000
1FC2FC2F8000
2F82F82F8000
7E03F41FC000
0000001E4000
0000003D0000
0000003F4000
0000002F8000
0000000FC000
000000078000
000000060000
ENDCHAR
STARTCHAR uni0497
ENCODING 1175
SWIDTH 882 0
DWIDTH 21 0
BBX 23 18 -1 -6
BITMAP
06F807F02F80
0EBE07E0BEE0
282F4BE1F4E0
101F4FD3E090
001F9FD7D000
002FFFFFC000
002F6F9FC000
103E2F4FC004
B47D3F4FC018
F0BC3F0FD060
B5F47F0BFB80
2F90BE02FD00
000000007000
00000000F800
00000001FC00
00000000BC00
000000007400
000000001000
ENDCHAR
STARTCHAR uni0498
ENCODING 1176
SWIDTH 525 0
DWIDTH 13 0
BBX 13 25 -1 -7
BITMAP
000BF900
0079BF40
01C03F80
02402FC0
00003F80
0000BF40
0006FD00
003FE000
0017FD00
0000FF00
0000BF40
0000BF40
0500BF40
3E00BF00
7D01FE00
3D02F800
2F5FE000
06FE4000
00740000
00BC0000
00BE0000
007F0000
002F0000
001E0000
00180000
ENDCHAR
STARTCHAR uni0499
ENCODING 1177
SWIDTH 498 0
DWIDTH 12 0
BBX 13 24 0 -12
BITMAP
01BF4000
07FFE000
1E5FF000
2807F400
3007F000
600BE000
900FD000
407F4040
07FD0180
01BE0300
003F5D00
003FE400
01BF8000
0B7F4000
1C7F4000
28BF0000
1FFD0000
0BE40000
02000000
0B800000
0FD00000
0BD00000
03800000
02000000
ENDCHAR
STARTCHAR uni049A
ENCODING 1178
SWIDTH 635 0
DWIDTH 15 0
BBX 17 25 0 -7
BITMAP
001BE06E00
01FFD1FF40
0B5FC79E00
2E2FCF0000
7C2FAC0000
B83FB80000
B87FF00000
B87FD00000
28BFFE4000
00BE1FC000
00FD0FD000
01FD0FC000
01FC1FC000
02FC2F8000
03F82F4000
03F43F4000
07F47F0000
07F03F4000
00002D0000
00003D0000
00003F4000
00002F8000
00000F8000
00000B4000
00000A0000
ENDCHAR
STARTCHAR uni049B
ENCODING 1179
SWIDTH 501 0
DWIDTH 12 0
BBX 14 18 -1 -6
BITMAP
07F02F40
0BE0BF40
0FE28A00
0FDA0000
1FEE9000
2FFFF000
2FD3F400
3F43F410
3F43F060
7F07F5D0
BF03FF80
BE01FD00
00006000
0000F400
0001FC00
0000F800
00007400
00005000
ENDCHAR
STARTCHAR uni049C
ENCODING 1180
SWIDTH 721 0
DWIDTH 17 0
BBX 19 18 0 0
BITMAP
001BE006E0
01FFD01FF4
0B5FC07DF0
2E2FC0F000
7C2F82D000
B83F678000
B87F7B0000
787FFE0000
14BFFFE000
00BE93F400
00FD83F400
01FD03F400
01FC07F000
02F80BE000
03F80BE000
03F40FD000
07F40FD000
07F00BE000
ENDCHAR
STARTCHAR uni049D
ENCODING 1181
SWIDTH 551 0
DWIDTH 13 0
BBX 15 12 -1 0
BITMAP
07F006E0
0BE02BF0
0FEDA1D0
0FEE4000
1FEFA400
2FEFFD00
2FF4FE00
3FF0BD04
3FB0FD1C
7F00FE74
BF00BFE0
BE002F80
ENDCHAR
STARTCHAR uni04A0
ENCODING 1184
SWIDTH 691 0
DWIDTH 17 0
BBX 18 18 0 0
BITMAP
006FF81BD0
0BE7F87FE0
2E03F5E2D0
7C07F78000
B807FB0000
B40BFD0000
B40FFC0000
640FFFE000
001FD7F400
001FC2F800
002F82F400
003F83F400
003F43F000
007F07F000
00BF0BE000
00BE0BD000
00FE0FD000
00FD07E000
ENDCHAR
STARTCHAR uni04A1
ENCODING 1185
SWIDTH 676 0
DWIDTH 16 0
BBX 17 12 0 0
BITMAP
06FF807D00
3FAFC2FE00
B82F8B6D00
F43FAD0000
F43FBA4000
B47FFFD000
00BF4FE000
00BE0BD040
00FD0FD1C0
01FD0FE740
01FC0BFE00
02FC02F800
ENDCHAR
STARTCHAR uni04A2
ENCODING 1186
SWIDTH 665 0
DWIDTH 16 0
BBX 17 22 0 -4
BITMAP
001BE03F80
01FFD03F40
0B9FC07F00
2E1FC0BF00
7C2F80BE00
B83F80FE00
B83F41FD00
787FAAFC00
14BFFFFC00
00BE02F800
00FD03F400
01FD07F400
01FC07F000
02F80BE000
03F80FE000
03F40FD000
07F41FD000
07F01FC000
000002F800
000000FFC0
0000007F80
0000002E00
ENDCHAR
STARTCHAR uni04A3
ENCODING 1187
SWIDTH 507 0
DWIDTH 12 0
BBX 14 18 -1 -6
BITMAP
07F07F00
0BE0BE00
0FE0BE00
0FD0FD00
1FD1FC00
2FFFFC00
2F96F800
3F82F410
7F43F470
7F03F5D0
BF03FF80
BE01FE00
00007000
0000F800
0001FC00
0000BC00
00007400
00001000
ENDCHAR
STARTCHAR uni04A4
ENCODING 1188
SWIDTH 689 0
DWIDTH 17 0
BBX 22 18 0 0
BITMAP
001BE02FFFF0
01FFD03FFFF0
0B5FC07F6A90
2E2FC0BF0000
7C2F80BE0000
B83F80FD0000
B87F41FD0000
787FAAFC0000
14BFFFFC0000
00BE02F80000
00FD03F40000
01FD07F40000
01FC07F00000
02F80BE00000
03F80FE00000
03F40FD00000
07F41FC00000
07F02FC00000
ENDCHAR
STARTCHAR uni04A5
ENCODING 1189
SWIDTH 681 0
DWIDTH 16 0
BBX 18 12 -1 0
BITMAP
07F07FFFE0
0BE07FFFD0
0FE0BE6A80
0FD0FD0000
1FD1FC0000
2FFFFC0000
2F96F80000
3F82F41000
7F43F47000
7F03F9D000
BF03FF8000
BE01BE0000
ENDCHAR
STARTCHAR uni04AA
ENCODING 1194
SWIDTH 497 0
DWIDTH 12 0
BBX 13 25 0 -7
BITMAP
000BF900
007F9B40
01FE0780
03F80780
0BF40B80
0FE00600
2FD00000
2FC00000
3FC00000
7F800000
7F800000
7F400000
BF400000
7F800000
7FC00240
3FE46E00
2FFFF400
07FF8000
00B80000
00F80000
00BE0000
007F0000
002F0000
001E0000
00180000
ENDCHAR
STARTCHAR uni04AB
ENCODING 1195
SWIDTH 384 0
DWIDTH 9 0
BBX 11 18 -1 -6
BITMAP
006F80
02FAE0
07F0E0
0FD0D0
2FC000
3F8000
3F4000
7F4004
7F4028
3F81A0
2FFF80
0BF900
01C000
03E000
03F000
02F000
00D000
004000
ENDCHAR
STARTCHAR uni04AE
ENCODING 1198
SWIDTH 620 0
DWIDTH 15 0
BBX 17 18 0 0
BITMAP
001BE00380
01FFF00700
0B4BF00E00
2D0BF41D00
7C07F82800
B803F83400
B402FC7000
B402FDD000
1401FEC000
0000FF8000
0000BF0000
0000FF0000
0000FE0000
0001FD0000
0002FD0000
0002FC0000
0003FC0000
0007F80000
ENDCHAR
STARTCHAR uni04AF
ENCODING 1199
SWIDTH 480 0
DWIDTH 12 0
BBX 10 18 1 -6
BITMAP
BE02D0
BF03F0
7F0060
7F00A0
7F00D0
7F41C0
3F4240
3F4700
3F8D00
2FA800
2FF000
2FD000
2F8000
3F8000
3F4000
7F0000
BF0000
940000
ENDCHAR
STARTCHAR uni04B0
ENCODING 1200
SWIDTH 620 0
DWIDTH 15 0
BBX 17 18 0 0
BITMAP
001BE00380
01FFF00700
0B4BF00E00
2D0BF41D00
7C07F82800
B803F83400
B402FC7000
B402FDD000
1401FEC000
0000FF8000
0000FF4000
000FFFF000
0005FF5000
0001FD0000
0002FD0000
0002FC0000
0003FC0000
0007F80000
ENDCHAR
STARTCHAR uni04B1
ENCODING 1201
SWIDTH 480 0
DWIDTH 12 0
BBX 11 18 0 -6
BITMAP
2F80B4
2FC0FC
1FC018
1FC028
1FC034
1FD070
0FD090
0FD1C0
0FE340
0BEA00
0FFD00
BFFF40
5FF500
0FE000
0FD000
1FC000
2FC000
250000
ENDCHAR
STARTCHAR uni04B6
ENCODING 1206
SWIDTH 695 0
DWIDTH 17 0
BBX 18 22 0 -4
BITMAP
001BE01FD0
01FFD01FC0
0B9FC02FC0
2E2FC02F80
7C2F803F40
B83F807F40
B83F407F00
783F40BE00
143F81FE00
002FFFFD00
000BF9FD00
000002FC00
000002F800
000003F800
000003F400
000007F000
00000BF000
00000BE000
000000BD00
0000007FE0
0000002FD0
0000001F40
ENDCHAR
STARTCHAR uni04B7
ENCODING 1207
SWIDTH 505 0
DWIDTH 12 0
BBX 13 18 0 -6
BITMAP
1FC2FC00
2F82F800
3F83F400
3F47F400
7F0BF000
7F5FE000
7FFFE000
1F9FD080
001FD180
001FEB00
000FFD00
0007E000
00018000
0007D000
0007F000
0003E000
0001D000
00014000
ENDCHAR
STARTCHAR uni04B8
ENCODING 1208
SWIDTH 715 0
DWIDTH 17 0
BBX 18 18 0 0
BITMAP
001BE00BE0
01FFD00FE0
0B9FC00FD0
2E2FC01FC0
7C2F802FC0
B83F802F80
B83F403F40
783F4C7F40
143F8DBF00
002FFFFF00
0007F9FE00
000024FD00
000031FD00
000001FC00
000002F800
000003F800
000003F400
000007F000
ENDCHAR
STARTCHAR uni04B9
ENCODING 1209
SWIDTH 545 0
DWIDTH 13 0
BBX 14 12 0 0
BITMAP
1FC0BF00
2F80BE00
3F80FD00
3F69FD00
7F26FC00
7FBBF800
3FFFF800
1BF7F420
00A7F460
00D7FAC0
0003FF40
0001F900
ENDCHAR
STARTCHAR uni04BA
ENCODING 1210
SWIDTH 679 0
DWIDTH 16 0
BBX 15 18 0 0
BITMAP
001BE000
01FFD000
0B9FC000
2E2FC000
7C2F8000
B83F8000
B83F4000
787F6FD0
14BFFFF4
00BF47F8
00FD02FC
01FD02FC
01FC02F8
02F803F8
03F803F4
03F407F0
07F40BF0
07F00BE0
ENDCHAR
STARTCHAR uni04BB
ENCODING 1211
SWIDTH 505 0
DWIDTH 12 0
BBX 14 17 -1 0
BITMAP
00580000
02FC0000
02F80000
03F40000
07F40000
07F6F400
0BFFFC00
0FF5FD00
0FE0FD00
1FC1FC00
2FC1FC00
2F82F800
3F83F410
3F43F460
7F03F5D0
BF03FF80
BE01BD00
ENDCHAR
STARTCHAR uni04C0
ENCODING 1216
SWIDTH 375 0
DWIDTH 9 0
BBX 10 18 0 0
BITMAP
001BD0
01FFD0
0B5FC0
2D2F80
7C3F80
B83F40
B47F00
B4BF00
14BE00
00FE00
00FD00
01FC00
02FC00
02F800
03F400
07F400
07F000
0BE000
ENDCHAR
STARTCHAR uni04C1
ENCODING 1217
SWIDTH 777 0
DWIDTH 19 0
BBX 21 23 -1 0
BITMAP
00001A008000
00003F028000
00003F5B0000
00001FF80000
000000000000
01B801A02F40
02FF0BF0FF80
01EB4BE2DB40
00034FD78000
00039FDB0000
00029FDD0000
0002AFAC0000
0002BFA80000
006FFFFF8000
02FEBFAFE000
03F47F0BE000
0BE0BE0BE000
0BD0FE0BD000
0FD0FD0FD000
0FC1FC1FC000
1FC2FC2F8000
2F82F82F8000
7E03F41FC000
ENDCHAR
STARTCHAR uni04C2
ENCODING 1218
SWIDTH 882 0
DWIDTH 21 0
BBX 23 17 -1 0
BITMAP
000019008000
00003F028000
00003E5B0000
00001FF80000
000000000000
06F807F02F80
0EBE07E0BEE0
282F4BE1F4E0
101F4FD3E090
001F9FD7D000
002FFFFFC000
002F6F9FC000
103E2F4FC004
B47D3F4FC018
F0BC3F0FC060
BAF47F07FAC0
2F90BE01FE00
ENDCHAR
STARTCHAR uni04CB
ENCODING 1227
SWIDTH 695 0
DWIDTH 17 0
BBX 18 21 0 -3
BITMAP
001BE01FD0
01FFD01FC0
0B9FC02FC0
2E2FC02F80
7C2F803F40
B83F807F40
B83F407F00
783F40BE00
143F81FE00
002FFFFD00
000BFAFC00
000001FC00
000002F800
000003F400
000003F400
000007F000
00000BF000
00507FE000
00BFF80000
007FD00000
002F400000
ENDCHAR
STARTCHAR uni04CC
ENCODING 1228
SWIDTH 516 0
DWIDTH 12 0
BBX 14 18 0 -6
BITMAP
1FD1FD00
1FC2FC00
2F82F800
3F83F800
3F47F400
3F9FF000
3FFFF000
1BDBE090
000FD0C0
000FE640
000FFE00
0007F800
0001C000
00028000
0BFF4000
2FFE0000
3FF80000
70000000
ENDCHAR
STARTCHAR uni04CF
ENCODING 1231
SWIDTH 267 0
DWIDTH 6 0
BBX 7 17 0 0
BITMAP
01A0
0BF0
0FE0
0FD0
1FD0
1FC0
2F80
3F80
3F40
7F00
BF00
BE00
FD04
FD0C
FEB8
FFE0
6E40
ENDCHAR
STARTCHAR uni04D0
ENCODING 1232
SWIDTH 668 0
DWIDTH 16 0
BBX 20 26 0 -3
BITMAP
000000A009
000002F41C
000002F5B4
000000BF90
0000000400
0000006F40
000002FF40
00000E7F00
000038BF00
0000F0BE00
0002D0FE00
0007C1FD00
1BFFE5FC00
7E6F6FFC00
BC3D03F800
BCBC03F400
10F807F400
02F407F000
03F00BE000
07E00FE000
0BD00FD000
0BD01FC000
0FC02FC000
0FC0000000
0BC0000000
0140000000
ENDCHAR
STARTCHAR uni04D1
ENCODING 1233
SWIDTH 526 0
DWIDTH 13 0
BBX 15 17 -1 0
BITMAP
001A0080
002F4280
002F5B40
001FF900
00004000
006F7F40
02FDFF40
07F07F00
0FD0BE00
2FC0FE00
3F80FD00
3F41FC00
7F42FC04
7F43F824
7F9BFD60
2FF9FFC0
0BE0BE00
ENDCHAR
STARTCHAR uni04D2
ENCODING 1234
SWIDTH 668 0
DWIDTH 16 0
BBX 19 26 0 -3
BITMAP
000000A474
000001F8FC
000000B4B8
0000000000
0000000000
0000006F40
000002FF40
00000E7F00
000038BF00
0000F0BE00
0002D0FE00
0007C1FD00
1BFFE5FC00
7E6F6FFC00
BC3D03F800
BCBC03F400
10F807F400
02F407F000
03F00BE000
07E00FE000
0BD00FD000
0BD01FC000
0FC02FC000
0FC0000000
0BC0000000
0140000000
ENDCHAR
STARTCHAR uni04D3
ENCODING 1235
SWIDTH 526 0
DWIDTH 13 0
BBX 15 17 -1 0
BITMAP
000A0740
001F8F80
000B4B40
00000000
00000000
006F7F40
02FDFF40
07F07F00
0FD0BE00
2FC0FE00
3F80FD00
3F41FC00
7F42FC04
7F43F824
7F9BFD60
2FF9FFC0
0BE0BE00
ENDCHAR
STARTCHAR uni04D4
ENCODING 1236
SWIDTH 764 0
DWIDTH 18 0
BBX 22 21 0 -3
BITMAP
0000006F9050
000002FFFFD0
00001E7FBF80
000038BF0000
0000F0BE0000
0002D0FE0000
0007C1FD0000
1BFF91FC0000
7E6F6FFFF800
BC3D03FEA400
BCBC03F40000
10F807F40000
02F407F00000
03F00BE00000
07E00FE00000
0BD00FFFF800
0BD01FFFF800
0FC02FFFF400
0FC000000000
0BC000000000
014000000000
ENDCHAR
STARTCHAR uni04D5
ENCODING 1237
SWIDTH 650 0
DWIDTH 16 0
BBX 16 12 0 0
BITMAP
01BE4BF4
0B9FFFBC
0407FD2C
0007F83C
0007F4B8
1BFFF6E0
7F9FFF80
FE0FE400
FD1FE002
FE7FE009
FFE7F9B4
2F81FE40
ENDCHAR
STARTCHAR uni04D6
ENCODING 1238
SWIDTH 459 0
DWIDTH 11 0
BBX 13 23 0 0
BITMAP
001A0080
002F4280
002F5B40
001FF900
00004000
000BF400
007FAD00
00FC0E00
02F40E00
02F42D00
02F41400
02F80000
00BE0000
02FD0000
0FF00000
2FD00000
7F800000
BF400000
BF400100
BF800900
BFD5B400
3FFFD000
0BF90000
ENDCHAR
STARTCHAR uni04D7
ENCODING 1239
SWIDTH 384 0
DWIDTH 9 0
BBX 12 17 -1 0
BITMAP
00A005
01F81C
01F5B4
00BFD0
000400
006F80
02FAE0
07F0E0
0FD1E0
2FC3D0
3F9F40
3FF900
7F4000
7F4018
3F4060
2FEA80
0BF900
ENDCHAR
STARTCHAR uni04D8
ENCODING 1240
SWIDTH 544 0
DWIDTH 13 0
BBX 13 18 0 0
BITMAP
006FE000
03FFFD00
0BFFFF00
0B40BF40
05007F80
00003FC0
00003FC0
00003FC0
001BFF80
01FEBF80
07E0BF40
1F80FF00
3F01FD00
7E02F800
7E07F400
7E0FD000
3FBF4000
0BE80000
ENDCHAR
STARTCHAR uni04D9
ENCODING 1241
SWIDTH 404 0
DWIDTH 10 0
BBX 10 12 0 0
BITMAP
06F900
2EBF40
202FC0
001FD0
001FD0
06FFC0
1FAFC0
7C3F80
B47F00
F0FD00
BAF400
6F8000
ENDCHAR
STARTCHAR uni04DC
ENCODING 1244
SWIDTH 777 0
DWIDTH 19 0
BBX 21 23 -1 0
BITMAP
00000A0A4000
00002F5F8000
00001E0B4000
000000000000
000000000000
01B801A02F40
02FF0BF0FF80
01EB4BE2DB40
00034FD78000
00039FDB0000
00029FDD0000
0002AFAC0000
0002BFA80000
006FFFFF8000
02FEBFAFE000
03F47F0BE000
0BE0BE0BE000
0BD0FE0BD000
0FD0FD0FD000
0FC1FC1FC000
1FC2FC2F8000
2F82F82F8000
7E03F41FC000
ENDCHAR
STARTCHAR uni04DD
ENCODING 1245
SWIDTH 882 0
DWIDTH 21 0
BBX 23 17 -1 0
BITMAP
00000A0A4000
00002F5F8000
00001E0B4000
000000000000
000000000000
06F807F02F80
0EBE07E0BEE0
282F4BE1F4E0
101F4FD3E090
001F9FD7D000
002FFFFFC000
002F6F9FC000
103E2F4FC004
B47D3F4FC018
F0BC3F0FC060
BAF47F07FAC0
2F90BE01FE00
ENDCHAR
STARTCHAR uni04DE
ENCODING 1246
SWIDTH 525 0
DWIDTH 13 0
BBX 14 23 -1 0
BITMAP
00078280
000BC7D0
000783C0
00000000
00000000
000BF900
0079BF40
01C03F80
02402FC0
00003F80
0000BF40
0006FD00
003FE000
0017FD00
0000FF00
0000BF40
0000BF40
0500BF40
3E00BF00
7D01FE00
3D02FC00
2F5FE000
06FE4000
ENDCHAR
STARTCHAR uni04DF
ENCODING 1247
SWIDTH 498 0
DWIDTH 12 0
BBX 13 23 0 -6
BITMAP
00A0B400
01F4F800
00F0B400
00000000
00000000
01BF4000
07FFE000
1E5FF000
2807F400
3007F000
600BE000
900FD000
407F4040
07FD0180
01BE0300
007F5D00
003FF400
01BF8000
07BF4000
1D7F4000
28BF0000
1EFD0000
0BE40000
ENDCHAR
STARTCHAR uni04E2
ENCODING 1250
SWIDTH 705 0
DWIDTH 17 0
BBX 18 21 0 0
BITMAP
00007FFF40
0000555500
0000000000
001BE00FE0
01FFD02FD0
0B9FC07FC0
2E2FC0BFC0
7C2F81FF80
B83F83FF40
B83F47BF40
787F0F7F00
14BF2DBE00
00BE38FE00
00FDB4FD00
01FEE1FD00
01FFC1FC00
02FF42F800
03FF03F800
03FD03F400
07F807F000
07F00BF000
ENDCHAR
STARTCHAR uni04E3
ENCODING 1251
SWIDTH 505 0
DWIDTH 12 0
BBX 13 15 0 0
BITMAP
02FFFC00
01555400
00000000
1FC2FC00
2F82F800
3F83F400
3F47F400
7F07F000
BF0BF000
BE0FE000
FD0FD040
FD1FD180
FE7FE740
FFDFFE00
6E47E400
ENDCHAR
STARTCHAR uni04E4
ENCODING 1252
SWIDTH 705 0
DWIDTH 17 0
BBX 18 23 0 0
BITMAP
0000291D00
00007E3F00
00002D1E00
0000000000
0000000000
001BE00FE0
01FFD02FD0
0B9FC07FC0
2E2FC0BFC0
7C2F81FF80
B83F83FF40
B83F47BF40
787F0F7F00
14BF2DBE00
00BE38FE00
00FDB4FD00
01FEE1FD00
01FFC1FC00
02FF42F800
03FF03F800
03FD03F400
07F807F000
07F00BF000
ENDCHAR
STARTCHAR uni04E5
ENCODING 1253
SWIDTH 505 0
DWIDTH 12 0
BBX 13 17 0 0
BITMAP
00A0A400
02F5F800
01E0B400
00000000
00000000
1FC2FC00
2F82F800
3F83F400
3F47F400
7F07F000
BF0BF000
BE0FE000
FD0FD040
FD1FD180
FE7FE740
FFDFFE00
6E47E400
ENDCHAR
STARTCHAR uni04E6
ENCODING 1254
SWIDTH 665 0
DWIDTH 16 0
BBX 16 23 0 0
BITMAP
00006828
0000BD7D
0000783D
00000000
00000000
0006FF80
00BE9BF4
07E1A0FC
1F4BD0BD
3D2F80BE
7C7F007E
B8BE00BE
79FD00BE
16FC00BE
03F800FD
03F401FC
07F402F8
07F403F4
07F00BE0
07F41FD0
03F87F40
02FFFD00
006FA000
ENDCHAR
STARTCHAR uni04E7
ENCODING 1255
SWIDTH 439 0
DWIDTH 11 0
BBX 15 17 -1 0
BITMAP
00282D00
007D3E00
003D2D00
00000000
00000000
006F8000
02FEE000
07F0B014
0FD1F5A0
2FC1FE40
3F80F000
3F40F000
7F41E000
7F43D000
7F8B8000
2FFE0000
0BF40000
ENDCHAR
STARTCHAR uni04E8
ENCODING 1256
SWIDTH 665 0
DWIDTH 16 0
BBX 16 18 0 0
BITMAP
0006FF80
01BE9BF4
07D1A0FC
1F4BD0BD
7D2F807E
B87F007E
B8BE00BE
79FC00BE
02FFFFFE
03F955FD
03F401FC
07F402F8
07F403F4
07F00BE0
07F40FD0
03F42F40
02FEBD00
006FA000
ENDCHAR
STARTCHAR uni04E9
ENCODING 1257
SWIDTH 439 0
DWIDTH 11 0
BBX 15 12 -1 0
BITMAP
006F8000
02FEE000
07F0B014
0FD1F5A0
2FD1FE40
3FFFF400
3F95F000
7F41E000
7F43D000
7F8B8000
2FFE0000
0BF40000
ENDCHAR
STARTCHAR uni04EE
ENCODING 1262
SWIDTH 644 0
DWIDTH 15 0
BBX 17 21 0 0
BITMAP
00003FFF80
0000155500
0000000000
001BE002C0
01FFF00380
0B8BF40700
2E07F40E00
7C07F81D00
B803FC2800
B802FC3400
7801FDB000
2400FEE000
0000FFC000
0000BF8000
00007F4000
00003F0000
00002D0000
00002C0000
002E340000
003FE00000
001F800000
ENDCHAR
STARTCHAR uni04EF
ENCODING 1263
SWIDTH 486 0
DWIDTH 12 0
BBX 13 21 0 -6
BITMAP
02FFFC00
01555400
00000000
1FC2FC00
2F82F800
3F83F400
3F47F400
7F07F000
BF0BE000
BE0FE000
FD0FD040
FD1FD240
FE7FC700
FFFF9D00
6E7FE000
01BF4000
0BBF0000
28BF0000
34FE0000
2FFC0000
0BE00000
ENDCHAR
STARTCHAR uni04F0
ENCODING 1264
SWIDTH 644 0
DWIDTH 15 0
BBX 17 23 0 0
BITMAP
00001D0A00
00003F2F40
00001E1E00
0000000000
0000000000
001BE002C0
01FFF00380
0B8BF40700
2E07F40E00
7C07F81D00
B803FC2800
B802FC3400
7801FDB000
2400FEE000
0000FFC000
0000BF8000
00007F4000
00003F0000
00002D0000
00002C0000
002E340000
003FE00000
001F800000
ENDCHAR
STARTCHAR uni04F1
ENCODING 1265
SWIDTH 486 0
DWIDTH 12 0
BBX 13 23 0 -6
BITMAP
00A0A400
02F5F800
01E0B400
00000000
00000000
1FC2FC00
2F82F800
3F83F400
3F47F400
7F07F000
BF0BE000
BE0FE000
FD0FD040
FD1FD240
FE7FC700
FFFF9D00
6E7FE000
01BF4000
0BBF0000
28BF0000
34FE0000
2FFC0000
0BE00000
ENDCHAR
STARTCHAR uni04F2
ENCODING 1266
SWIDTH 644 0
DWIDTH 15 0
BBX 18 23 0 0
BITMAP
000002E3D0
0000078780
00000E0E00
00001C2C00
0000000000
001BE002C0
01FFF00380
0B8BF40700
2E07F40E00
7C07F81D00
B803FC2800
B802FC3400
7801FDB000
2400FEE000
0000FFC000
0000BF8000
00007F4000
00003F0000
00002D0000
00002C0000
002E340000
003FE00000
001F800000
ENDCHAR
STARTCHAR uni04F3
ENCODING 1267
SWIDTH 486 0
DWIDTH 12 0
BBX 13 23 0 -6
BITMAP
002E2E00
003C7C00
00B4B000
00D1D000
00000000
1FC2FC00
2F82F800
3F83F400
3F47F400
7F07F000
BF0BE000
BE0FE000
FD0FD040
FD1FD240
FE7FC700
FFFF9D00
6E7FE000
01BF4000
0BBF0000
28BF0000
34FE0000
2FFC0000
0BE00000
ENDCHAR
STARTCHAR uni04F4
ENCODING 1268
SWIDTH 695 0
DWIDTH 17 0
BBX 18 23 0 0
BITMAP
00002D1E00
00003E2F00
00002D1E00
0000000000
0000000000
001BE01FD0
01FFD01FC0
0B9FC02FC0
2E2FC02F80
7C2F803F40
B83F807F40
B83F407F00
783F40BE00
143F81FE00
002FFFFD00
000BFAFC00
000001FC00
000002F800
000003F800
000003F400
000007F000
00000BF000
00000BE000
ENDCHAR
STARTCHAR uni04F5
ENCODING 1269
SWIDTH 505 0
DWIDTH 12 0
BBX 13 17 0 0
BITMAP
01A0A000
02F5F400
01E0F400
00000000
00000000
1FC2FC00
2F82F800
3F83F400
3F47F400
7F0BF000
7F5FE000
7FFFE000
1F9FD080
001FD180
001FEB40
000FFD00
0007E400
ENDCHAR
STARTCHAR uni04F6
ENCODING 1270
SWIDTH 442 0
DWIDTH 11 0
BBX 15 22 0 -4
BITMAP
006FFFFC
07FFFFF8
1F5FEAA4
3D1FC000
7C2F8000
B83F8000
B83F4000
787F0000
04BF0000
00BE0000
00FD0000
01FD0000
01FC0000
02F80000
03F80000
03F40000
07F00000
07F40000
007E0000
003FF000
001FE000
000B8000
ENDCHAR
STARTCHAR uni04F7
ENCODING 1271
SWIDTH 375 0
DWIDTH 9 0
BBX 11 18 -1 -6
BITMAP
01BE00
0BFFC0
1D6FC0
241FC0
203F80
01FE00
0BF400
2F8004
7F4024
7F41D0
7FFF40
1BF800
028000
07C000
0BE000
07E000
02D000
014000
ENDCHAR
STARTCHAR uni04F8
ENCODING 1272
SWIDTH 909 0
DWIDTH 22 0
BBX 23 23 0 0
BITMAP
000000A0A400
000001F4F800
000001F0B400
000000000000
000000000000
001BE00003F4
01FFD00007F4
0B5FC00007F0
2D2FC0000BE0
7C2F80000FE0
B83F40000FD0
B83F40001FC0
287FBF802FC0
00BF5FE02F80
00BE07F43F80
00FD03F47F40
01FC03F47F00
01FC03F4BF00
02F803F4BE00
03F807F0FD00
03F65FD1FD00
07F7FF81FC00
07F1FD02F800
ENDCHAR
STARTCHAR uni04F9
ENCODING 1273
SWIDTH 642 0
DWIDTH 15 0
BBX 16 17 0 0
BITMAP
00090500
002F2F00
002E1F00
00040400
00000000
1A8000A4
2F800BF0
3F407FF0
3F6BDBE0
7F7F0BD0
7E0B4FD0
BE075FC0
FD0B5F81
FC0F2F83
FD2E2F9A
BFF81FFC
2F900BE0
ENDCHAR
STARTCHAR uni051A
ENCODING 1306
SWIDTH 665 0
DWIDTH 16 0
BBX 16 21 0 -3
BITMAP
0006FF80
00BE9BF4
07E1A0FC
1F4BD0BD
3D2F80BE
7C7F007E
B8BE00BE
79FD00BE
16FC00BE
03F800FD
03F401FC
07F402F8
07F403F4
07F00BF0
07FBAFD0
03F8FF80
02FEFE00
006FFE00
00002FE4
00000FF0
00000140
ENDCHAR
STARTCHAR uni051B
ENCODING 1307
SWIDTH 486 0
DWIDTH 12 0
BBX 13 18 -1 -6
BITMAP
006F7F40
02FEFF40
07F0BF00
0FD0BE00
2FC0FE00
3F80FD00
3F41FC00
7F42FC00
7F43F800
7F9BF400
2FFFF400
0BEBF000
000BE000
000FE000
000FD000
001FC000
002FC000
00150000
ENDCHAR
STARTCHAR uni051C
ENCODING 1308
SWIDTH 962 0
DWIDTH 23 0
BBX 25 18 0 0
BITMAP
001BE007F00380
01FFE00BF00740
0B4FE00FF00B00
2D0FE01FF00D00
7C0FE02FF01C00
B80FE03FF02800
B40FE07BF03400
B40FE0ABF07000
140FE0DBF0A000
000FE1CBF0D000
000FE28BF1C000
000BE34BF28000
000BE707F30000
000BE907FA0000
000BFC07FD0000
000BF807FC0000
000BF407F80000
000BF007F40000
ENDCHAR
STARTCHAR uni051D
ENCODING 1309
SWIDTH 661 0
DWIDTH 16 0
BBX 16 12 0 0
BITMAP
1FC2FC7C
2F82F87D
3F83F40D
3F47F40D
7F07F01D
BF0BF02C
BE0FE038
FD0FD074
FD1FD0E0
FE7FE7C0
FFDFFF40
6E46F900
ENDCHAR
STARTCHAR uni0524
ENCODING 1316
SWIDTH 742 0
DWIDTH 18 0
BBX 19 22 0 -4
BITMAP
006FFFFFF8
07FFFFFFF8
1F5FD6BFE0
3D2FC0BF00
7C2F80BE00
B83F80FD00
B87F41FD00
787F01FC00
14BF02FC00
00BE02F800
00FD03F400
01FD07F400
01FC07F000
02F80BE000
03F80FE000
03F40FD000
07F41FC000
07F02FD000
000002F800
000000FFC0
000000BF80
0000002E00
ENDCHAR
STARTCHAR uni0525
ENCODING 1317
SWIDTH 505 0
DWIDTH 12 0
BBX 14 18 -1 -6
BITMAP
07F6F400
0BFAFC00
0FE0FD00
0FD0FD00
1FC1FC00
2FC2F800
2F82F800
3F43F420
7F43F460
7F03FAD0
BF03FF40
BE01B900
00006000
0000F400
0001FC00
0000FC00
00007400
00001000
ENDCHAR
STARTCHAR uni1E0C
ENCODING 7692
SWIDTH 663 0
DWIDTH 16 0
BBX 16 24 0 -6
BITMAP
001BFE40
01FA6FD0
0B8142F4
2E2FC1FC
7C2F80FD
B83F40FD
B47F40FD
B47F00FD
14BE00FD
00FE01FD
00FD01FC
01FC02F8
02FC03F4
02F80BF0
03F40FD0
07F47F80
07FFFF00
0BE6F800
00000000
00000000
002E0000
007F4000
007F4000
002E0000
ENDCHAR
STARTCHAR uni1E0D
ENCODING 7693
SWIDTH 525 0
DWIDTH 13 0
BBX 15 23 -1 -6
BITMAP
00000550
00001FD0
00001FC0
00002FC0
00002F80
006F7F40
02FEFF40
07F0BF00
0FD0BE00
2FC0FE00
3F80FD00
3F41FC00
7F42FC00
7F43F824
7F9BFDA0
2FFEFFC0
0BE0BE00
00000000
00000000
01F40000
02FC0000
02FC0000
01F40000
ENDCHAR
STARTCHAR uni1E20
ENCODING 7712
SWIDTH 578 0
DWIDTH 14 0
BBX 14 27 0 -5
BITMAP
001FFFE0
00055540
00000000
00000000
001AFE00
00BF9BC0
03FD02E0
0BF402E0
1FE007D0
3FC00140
7F800000
7F400000
BF400FC0
7F401F80
7F402F80
3F807F40
1FD5FF00
07FEBF00
0050BE00
0000BD00
0050FC00
07F9FC00
0F46F400
1E03F000
0F5BD000
07FF4000
00540000
ENDCHAR
STARTCHAR uni1E21
ENCODING 7713
SWIDTH 507 0
DWIDTH 12 0
BBX 14 23 -1 -6
BITMAP
007FFF40
00555500
00000000
00000000
00000000
006F7F40
02FDFF40
07F07F00
0FD0BE00
2FC0FE00
3F80FD00
3F41FC00
7F42FC10
7F43F830
7F9BF490
2FFFF680
0BEBFE00
002FF000
01EFE000
074FD000
071FC000
07BF4000
01F90000
ENDCHAR
STARTCHAR uni1E24
ENCODING 7716
SWIDTH 665 0
DWIDTH 16 0
BBX 17 24 0 -6
BITMAP
001BE03F80
01BFD03F40
07EFD07F00
1F5FC07F00
3D2F80BE00
BC2F80FD00
B83F40FD00
B87F41FC00
787FFFFC00
04BFABF800
00FE03F400
00FD03F400
01FC07F000
02FC0BE000
02F80BE000
03F40FD000
07F41FC000
07F01FC000
0000000000
0000000000
001F400000
003F800000
003F800000
001F400000
ENDCHAR
STARTCHAR uni1E25
ENCODING 7717
SWIDTH 505 0
DWIDTH 12 0
BBX 14 23 -1 -6
BITMAP
00580000
02FC0000
02F80000
03F40000
07F40000
07F6F400
0BFFFC00
0FF5FD00
0FE0FD00
1FC1FC00
2FC1FC00
2F82F800
3F83F410
3F43F460
7F03F5D0
BF03FF80
BE01BD00
00000000
00000000
01E00000
03F80000
03F80000
01E00000
ENDCHAR
STARTCHAR uni1E2A
ENCODING 7722
SWIDTH 665 0
DWIDTH 16 0
BBX 17 24 0 -6
BITMAP
001BE03F80
01FFD03F40
0B9FC07F00
2E1FC0BF00
7C2F80BE00
B83F80FD00
B83F41FD00
787FAAFC00
14BFFFFC00
00BE02F800
00FD03F400
01FD07F400
01FC07F000
02F80BE000
03F80FE000
03F40FD000
07F41FC000
07F02FC000
0000000000
0000000000
02D02D0000
02E0B80000
00BFD00000
0004000000
ENDCHAR
STARTCHAR uni1E2B
ENCODING 7723
SWIDTH 505 0
DWIDTH 12 0
BBX 14 23 -1 -6
BITMAP
00580000
02FC0000
02F80000
03F40000
07F40000
07F6F400
0BFFFC00
0FF5FD00
0FE0FD00
1FC1FC00
2FC1FC00
2F82F800
3F83F410
3F43F460
7F03F5D0
BF03FF80
BE01BD00
00000000
00000000
3C03C000
2E1B4000
0BF90000
00400000
ENDCHAR
STARTCHAR uni1E36
ENCODING 7734
SWIDTH 379 0
DWIDTH 9 0
BBX 16 24 0 -6
BITMAP
001BD000
01FFD000
0B5FC000
2D2F8000
7C3F8000
B83F4000
B47F0000
74BF0000
14BE0000
00FD0000
01FD0000
01FC0000
02F80000
03F80000
03F40000
07F00000
0BF00000
0BF90000
007F8000
000BE400
0B81FE41
1FD07FFE
1FD00BFD
0B8001F8
ENDCHAR
STARTCHAR uni1E37
ENCODING 7735
SWIDTH 293 0
DWIDTH 7 0
BBX 8 22 0 -6
BITMAP
01A4
03F4
07F4
07F0
0BE0
0FE0
0FD0
1FC0
2FC0
3F80
3F80
7F40
7F01
BF06
7FA8
2F90
0000
0000
7800
FE00
FE00
7800
ENDCHAR
STARTCHAR uni1E42
ENCODING 7746
SWIDTH 787 0
DWIDTH 19 0
BBX 19 24 1 -6
BITMAP
001BF007F4
01FBF00BF0
078BF01FF0
1E0FF02FE0
3D1FF03FE0
7C2FF07FE0
7C7FF0BFD0
3CBFE1FFD0
04FBE2EFC0
01EBE3DFC0
02DBE76F80
03CBEF2F80
078BFE3F80
0B0BFD3F40
0E0BF87F40
1D0FF47F00
3C0FF07F00
780FE0BF00
0000000000
0000000000
001F400000
002F800000
002FC00000
001F400000
ENDCHAR
STARTCHAR uni1E43
ENCODING 7747
SWIDTH 752 0
DWIDTH 18 0
BBX 20 18 -1 -6
BITMAP
07F6F8BE40
0BFAFFAFC0
0FE1FE1FD0
0FD1FD1FC0
1FC1FC1FC0
2FC2F82F80
2F83F83F80
3F43F43F41
7F47F07F06
7F07F07F5D
BF0BE03FF8
BE0FE01B90
0000000000
0000000000
000B400000
002FC00000
002FC00000
000B400000
ENDCHAR
STARTCHAR uni1E44
ENCODING 7748
SWIDTH 668 0
DWIDTH 16 0
BBX 17 23 0 0
BITMAP
000001E000
000003F800
000003F800
000001E000
0000000000
006FD007C0
07FFE007C0
1F5FE00B80
3D2FF00B40
BC2FF40F40
B83FF81F00
B87FF81E00
B87DFC2E00
28B9FD3D00
00F4FD3C00
00F4BE7C00
01F0BF7800
02E07FB800
02E03FF400
03D02FF000
07C02FF000
07801FE000
0B800FD000
ENDCHAR
STARTCHAR uni1E45
ENCODING 7749
SWIDTH 505 0
DWIDTH 12 0
BBX 14 18 -1 0
BITMAP
0002E000
0007F000
0007F000
0002E000
00000000
00000000
07F6F400
0BFAFC00
0FE0FD00
0FD1FD00
1FC1FC00
2FC2FC00
2F82F800
3F43F410
7F43F460
7F03F5D0
BF03FF80
BE01BD00
ENDCHAR
STARTCHAR uni1E46
ENCODING 7750
SWIDTH 668 0
DWIDTH 16 0
BBX 17 24 0 -6
BITMAP
006FD007C0
07FFE007C0
1F5FE00B80
3D2FF00B40
BC2FF40F40
B83FF81F00
B87FF81E00
B87DFC2E00
28B9FD3D00
00F4FD3C00
00F4BE7C00
01F0BF7800
02E07FB800
02E03FF400
03D02FF000
07C02FF000
07801FE000
0B800FD000
0000000000
0000000000
000B400000
002FC00000
002FC00000
000B400000
ENDCHAR
STARTCHAR uni1E47
ENCODING 7751
SWIDTH 505 0
DWIDTH 12 0
BBX 14 18 -1 -6
BITMAP
07F6F400
0BFAFC00
0FE0FD00
0FD1FD00
1FC1FC00
2FC2FC00
2F82F800
3F43F410
7F43F460
7F03F5D0
BF03FF80
BE01BD00
00000000
00000000
01F40000
02FC0000
02FC0000
01F40000
ENDCHAR
STARTCHAR uni1E5A
ENCODING 7770
SWIDTH 601 0
DWIDTH 14 0
BBX 14 24 0 -6
BITMAP
001BF900
01FA6FC0
0B9143E0
2E2FC2F0
7C2F82F0
B83F43E0
B47F47C0
B47F6F40
24BFFF40
00FE6FC0
00FD1FC0
01FC1FC0
02FC1F80
02F82F80
03F43F40
07F47F00
07F07F00
0BE02F40
00000000
00000000
001E0000
003F8000
003F8000
001E0000
ENDCHAR
STARTCHAR uni1E5B
ENCODING 7771
SWIDTH 376 0
DWIDTH 9 0
BBX 11 18 -1 -6
BITMAP
07F6E0
0BFFF4
0FE1E0
0FD000
1FC000
2FC000
2F8000
3F4000
7F4000
7F0000
BF0000
BE0000
000000
000000
780000
FE0000
FE0000
780000
ENDCHAR
STARTCHAR uni1E60
ENCODING 7776
SWIDTH 570 0
DWIDTH 14 0
BBX 13 24 1 0
BITMAP
0001F400
0002F800
0002F800
0001F400
00000000
00000000
002BE400
01FEBE00
03F40F00
07F00F40
07F42F00
03F81900
02FD0000
00FF4000
007FD000
001FF000
1A4BF800
7FC2FC00
FD01FD00
F801FD00
F802FC00
FC07F400
7FAFD000
0BFA0000
ENDCHAR
STARTCHAR uni1E61
ENCODING 7777
SWIDTH 382 0
DWIDTH 9 0
BBX 11 18 -1 0
BITMAP
001F40
002F80
002FC0
001F40
000000
000100
00BF00
00FF00
01FF00
02BF40
077F40
097F40
1C3F40
7C3F40
BC3F98
A07FD0
7AFE00
1BE400
ENDCHAR
STARTCHAR uni1E62
ENCODING 7778
SWIDTH 570 0
DWIDTH 14 0
BBX 13 24 1 -6
BITMAP
002BE400
01FEBE00
03F40F00
07F00F40
07F42F00
03F81900
02FD0000
00FF4000
007FD000
001FF000
1A4BF800
7FC2FC00
FD01FD00
F801FD00
F802FC00
FC07F400
7FAFD000
0BFA0000
00000000
00000000
07800000
0FE00000
0FE00000
07800000
ENDCHAR
STARTCHAR uni1E63
ENCODING 7779
SWIDTH 382 0
DWIDTH 9 0
BBX 11 18 -1 -6
BITMAP
006A00
00FF00
01FF00
02FF40
037F40
0A7F40
1D3F40
383F40
BC3F84
A47FA0
7AFF40
1BE400
000000
000000
1E0000
3F8000
3F8000
1E0000
ENDCHAR
STARTCHAR uni1E6C
ENCODING 7788
SWIDTH 481 0
DWIDTH 12 0
BBX 17 24 0 -6
BITMAP
006FFA4080
07E7FFFFC0
1E03FFFF80
3C07FAAA00
7807F40000
B40BF00000
B40FE00000
B40FE00000
681FD00000
001FC00000
002FC00000
003F800000
003F400000
007F400000
00BF000000
00BE000000
00FE000000
00FD000000
0000000000
0000000000
01F4000000
02F8000000
02F8000000
01F4000000
ENDCHAR
STARTCHAR uni1E6D
ENCODING 7789
SWIDTH 267 0
DWIDTH 6 0
BBX 8 22 -1 -6
BITMAP
0168
02F8
03F4
07F4
1FFD
0BF5
0BE0
0FD0
1FD0
1FC0
2F80
3F80
3F43
3F9A
3FF8
1F90
0000
0000
7800
FE00
FE00
7800
ENDCHAR
STARTCHAR Wgrave
ENCODING 7808
SWIDTH 962 0
DWIDTH 23 0
BBX 25 23 0 0
BITMAP
0000000F800000
0000000B800000
00000007C00000
00000003C00000
00000000000000
001BE007F00380
01FFE00BF00740
0B4FE00FF00B00
2D0FE01FF00D00
7C0FE02FF01C00
B80FE03FF02800
B40FE07BF03400
B40FE0ABF07000
140FE0DBF0A000
000FE1CBF0D000
000FE28BF1C000
000BE34BF28000
000BE707F30000
000BE907FA0000
000BFC07FD0000
000BF807FC0000
000BF407F80000
000BF007F40000
ENDCHAR
STARTCHAR wgrave
ENCODING 7809
SWIDTH 661 0
DWIDTH 16 0
BBX 16 18 0 0
BITMAP
000BC000
0007C000
0003D000
0002D000
00000000
00000000
1FC2FC7C
2F82F87D
3F83F40D
3F47F40D
7F07F01D
BF0BF02C
BE0FE038
FD0FD074
FD1FD0E0
FE7FE7C0
FFDFFF40
6E46F900
ENDCHAR
STARTCHAR Wacute
ENCODING 7810
SWIDTH 962 0
DWIDTH 23 0
BBX 25 24 0 0
BITMAP
000000000A0000
000000002E0000
000000003C0000
00000000B40000
00000000E00000
00000000000000
001BE007F00380
01FFE00BF00740
0B4FE00FF00B00
2D0FE01FF00D00
7C0FE02FF01C00
B80FE03FF02800
B40FE07BF03400
B40FE0ABF07000
140FE0DBF0A000
000FE1CBF0D000
000FE28BF1C000
000BE34BF28000
000BE707F30000
000BE907FA0000
000BFC07FD0000
000BF807FC0000
000BF407F80000
000BF007F40000
ENDCHAR
STARTCHAR wacute
ENCODING 7811
SWIDTH 661 0
DWIDTH 16 0
BBX 16 18 0 0
BITMAP
00000F40
00001F00
00003D00
00007800
0000B000
00000000
1FC2FC7C
2F82F87D
3F83F40D
3F47F40D
7F07F01D
BF0BF02C
BE0FE038
FD0FD074
FD1FD0E0
FE7FE7C0
FFDFFF40
6E46F900
ENDCHAR
STARTCHAR Wdieresis
ENCODING 7812
SWIDTH 962 0
DWIDTH 23 0
BBX 25 22 0 0
BITMAP
0000002D1E0000
0000003E3F0000
000000291D0000
00000000000000
001BE007F00380
01FFE00BF00740
0B4FE00FF00B00
2D0FE01FF00D00
7C0FE02FF01C00
B80FE03FF02800
B40FE07BF03400
B40FE0ABF07000
140FE0DBF0A000
000FE1CBF0D000
000FE28BF1C000
000BE34BF28000
000BE707F30000
000BE907FA0000
000BFC07FD0000
000BF807FC0000
000BF407F80000
000BF007F40000
ENDCHAR
STARTCHAR wdieresis
ENCODING 7813
SWIDTH 661 0
DWIDTH 16 0
BBX 16 17 0 0
BITMAP
001E0B40
002F5F80
001A0A00
00000000
00000000
1FC2FC7C
2F82F87D
3F83F40D
3F47F40D
7F07F01D
BF0BF02C
BE0FE038
FD0FD074
FD1FD0E0
FE7FE7C0
FFDFFF40
6E46F900
ENDCHAR
STARTCHAR uni1E8E
ENCODING 7822
SWIDTH 620 0
DWIDTH 15 0
BBX 17 23 0 0
BITMAP
000002E000
000007F400
000007F400
000002E000
0000000000
001BE00380
01FFF00700
0B4BF00E00
2D0BF41D00
7C07F82800
B803F83400
B402FC7000
B402FDD000
1401FEC000
0000FF8000
0000BF0000
0000FF0000
0000FE0000
0001FD0000
0002FD0000
0002FC0000
0003FC0000
0007F80000
ENDCHAR
STARTCHAR uni1E8F
ENCODING 7823
SWIDTH 505 0
DWIDTH 12 0
BBX 13 24 0 -6
BITMAP
001F4000
002F8000
002F8000
001F4000
00000000
00000000
1FC2FC00
2F82F800
3F83F400
3F47F400
7F07F000
BF0BE000
BE0FE000
FD0FD040
FD1FD240
FE7FC700
FFFF9D00
6E7FE000
01BF4000
0BBF0000
28BF0000
34FE0000
2FFC0000
0BE00000
ENDCHAR
STARTCHAR uni1E92
ENCODING 7826
SWIDTH 542 0
DWIDTH 13 0
BBX 13 29 0 -6
BITMAP
000007C0
00000B40
00001E00
00002D00
00002400
02FFFFC0
0BA5BF40
0F80FF00
0B41FD00
0003FC00
0007F400
000FF000
001FD000
003FC000
007F4000
00FF0000
01FD0000
03FC0000
07F40000
0FF01E00
1FD02F00
3FE5AE00
7FFFF800
00000000
00000000
01F40000
02FC0000
02FC0000
01F40000
ENDCHAR
STARTCHAR uni1E93
ENCODING 7827
SWIDTH 428 0
DWIDTH 10 0
BBX 10 18 0 -6
BITMAP
07FFF0
1E5FD0
2E1FC0
193F40
00BE00
01FD00
02F800
07F000
0FD140
2FC3D0
3F97C0
BFFE40
000000
000000
1E0000
3F8000
3F8000
1E0000
ENDCHAR
STARTCHAR uni1E97
ENCODING 7831
SWIDTH 267 0
DWIDTH 6 0
BBX 9 19 0 0
BITMAP
1E1E00
2F6F40
1A0A00
005000
0BE000
0FD000
1FD000
7FF400
2FD400
2F8000
3F4000
7F4000
7F0000
BE0000
FE0000
FD0C00
FE6800
FFE000
7E4000
ENDCHAR
STARTCHAR uni1E9E
ENCODING 7838
SWIDTH 559 0
DWIDTH 13 0
BBX 17 24 -2 -6
BITMAP
0001BFFF40
000BF6FE00
001FC1FD00
003F83F800
007F47F400
00BF0FE000
00FE1FD000
00FD3F8000
01FD7F4000
01FC1F8000
02F80FD000
03F80BE000
03F407F000
07F007F000
0BF00BE000
0BE00FD000
0FDABF4000
0FD7F90000
1FC0000000
2F80000000
2F80000000
3F40000000
7E00000000
1000000000
ENDCHAR
STARTCHAR uni1EA0
ENCODING 7840
SWIDTH 668 0
DWIDTH 16 0
BBX 17 24 0 -6
BITMAP
0000006F40
000002FF40
00000BFF40
00002E7F00
000078BE00
0000F0BE00
0002D0FD00
0007C1FC00
1BFFE5FC00
7E6F6BF800
BC3D03F400
78BC03F400
00F807F000
02F40BE000
03F00BE000
07E00FD000
0BD01FC000
0FC01FC000
0FC0000000
0FC0000000
07C1F40000
0003F80000
0003F80000
0001F40000
ENDCHAR
STARTCHAR uni1EA1
ENCODING 7841
SWIDTH 526 0
DWIDTH 13 0
BBX 15 18 -1 -6
BITMAP
006F7F40
02FDFF40
07F07F00
0FD0BE00
2FC0FE00
3F80FD00
3F41FC00
7F42FC04
7F43F824
7F9BFD60
2FF9FFC0
0BE0BE00
00000000
00000000
01F40000
02FC0000
02FC0000
01F40000
ENDCHAR
STARTCHAR uni1EA2
ENCODING 7842
SWIDTH 668 0
DWIDTH 16 0
BBX 18 27 0 -3
BITMAP
0000002FD0
00000015E0
00000000E0
0000000580
0000000D00
0000000400
0000006F40
000002FF40
00000E7F00
000038BF00
0000F0BE00
0002D0FE00
0007C1FD00
1BFFE5FC00
7E6F6FFC00
BC3D03F800
BCBC03F400
10F807F400
02F407F000
03F00BE000
07E00FE000
0BD00FD000
0BD01FC000
0FC02FC000
0FC0000000
0BC0000000
0140000000
ENDCHAR
STARTCHAR uni1EA3
ENCODING 7843
SWIDTH 526 0
DWIDTH 13 0
BBX 15 18 -1 0
BITMAP
0001FD00
00015F00
00005A00
0000A400
00004000
00000000
006F7F40
02FDFF40
07F07F00
0FD0BE00
2FC0FE00
3F80FD00
3F41FC00
7F42FC04
7F43F824
7F9BFD60
2FF9FFC0
0BE0BE00
ENDCHAR
STARTCHAR uni1EA4
ENCODING 7844
SWIDTH 668 0
DWIDTH 16 0
BBX 21 27 0 -3
BITMAP
000000000240
000000004B00
000000078D00
0000001DD400
000000A09000
000000000000
0000006F4000
000002FF4000
00000E7F0000
000038BF0000
0000F0BE0000
0002D0FE0000
0007C1FD0000
1BFFE5FC0000
7E6F6FFC0000
BC3D03F80000
BCBC03F40000
10F807F40000
02F407F00000
03F00BE00000
07E00FE00000
0BD00FD00000
0BD01FC00000
0FC02FC00000
0FC000000000
0BC000000000
014000000000
ENDCHAR
STARTCHAR uni1EA5
ENCODING 7845
SWIDTH 526 0
DWIDTH 13 0
BBX 16 21 -1 0
BITMAP
0000002D
00000078
000000A0
00002490
0000B800
0002EC00
000A0900
00000000
00000000
006F7F40
02FDFF40
07F07F00
0FD0BE00
2FC0FE00
3F80FD00
3F41FC00
7F42FC04
7F43F824
7F9BFD60
2FF9FFC0
0BE0BE00
ENDCHAR
STARTCHAR uni1EA6
ENCODING 7846
SWIDTH 668 0
DWIDTH 16 0
BBX 20 27 0 -3
BITMAP
000000001C
000000018D
0000000BC9
0000007490
0000005050
0000000000
0000006F40
000002FF40
00000E7F00
000038BF00
0000F0BE00
0002D0FE00
0007C1FD00
1BFFE5FC00
7E6F6FFC00
BC3D03F800
BCBC03F400
10F807F400
02F407F000
03F00BE000
07E00FE000
0BD00FD000
0BD01FC000
0FC02FC000
0FC0000000
0BC0000000
0140000000
ENDCHAR
STARTCHAR uni1EA7
ENCODING 7847
SWIDTH 526 0
DWIDTH 13 0
BBX 15 20 -1 0
BITMAP
000002D0
000001D0
000024E0
0000B8A0
0002FC00
000A4D00
00140100
00000000
006F7F40
02FDFF40
07F07F00
0FD0BE00
2FC0FE00
3F80FD00
3F41FC00
7F42FC04
7F43F824
7F9BFD60
2FF9FFC0
0BE0BE00
ENDCHAR
STARTCHAR uni1EA8
ENCODING 7848
SWIDTH 668 0
DWIDTH 16 0
BBX 21 27 0 -3
BITMAP
000000001F40
000000015B80
000000078F40
0000002ED800
000000A05000
000000000000
0000006F4000
000002FF4000
00000E7F0000
000038BF0000
0000F0BE0000
0002D0FE0000
0007C1FD0000
1BFFE5FC0000
7E6F6FFC0000
BC3D03F80000
BCBC03F40000
10F807F40000
02F407F00000
03F00BE00000
07E00FE00000
0BD00FD00000
0BD01FC00000
0FC02FC00000
0FC000000000
0BC000000000
014000000000
ENDCHAR
STARTCHAR uni1EA9
ENCODING 7849
SWIDTH 526 0
DWIDTH 13 0
BBX 15 20 -1 0
BITMAP
000002F4
00000174
000025E0
0000B840
0002EC00
000A0900
00000000
00000000
006F7F40
02FDFF40
07F07F00
0FD0BE00
2FC0FE00
3F80FD00
3F41FC00
7F42FC04
7F43F824
7F9BFD60
2FF9FFC0
0BE0BE00
ENDCHAR
STARTCHAR uni1EAA
ENCODING 7850
SWIDTH 668 0
DWIDTH 16 0
BBX 20 27 0 -3
BITMAP
0000000550
0000001BFD
00000007D0
0000001EC0
000000A490
0000000000
0000006F40
000002FF40
00000E7F00
000038BF00
0000F0BE00
0002D0FE00
0007C1FD00
1BFFE5FC00
7E6F6FFC00
BC3D03F800
BCBC03F400
10F807F400
02F407F000
03F00BE000
07E00FE000
0BD00FD000
0BD01FC000
0FC02FC000
0FC0000000
0BC0000000
0140000000
ENDCHAR
STARTCHAR uni1EAB
ENCODING 7851
SWIDTH 526 0
DWIDTH 13 0
BBX 15 20 -1 0
BITMAP
0001BF80
00000500
00002400
0000B800
0002EC00
000A0900
00000000
00000000
006F7F40
02FDFF40
07F07F00
0FD0BE00
2FC0FE00
3F80FD00
3F41FC00
7F42FC04
7F43F824
7F9BFD60
2FF9FFC0
0BE0BE00
ENDCHAR
STARTCHAR uni1EAC
ENCODING 7852
SWIDTH 668 0
DWIDTH 16 0
BBX 18 29 0 -6
BITMAP
00000001C0
00000007D0
0000001FE0
000000B470
0000014010
0000006F40
000002FF40
00000BFF40
00002E7F00
000078BE00
0000F0BE00
0002D0FD00
0007C1FC00
1BFFE5FC00
7E6F6BF800
BC3D03F400
78BC03F400
00F807F000
02F40BE000
03F00BE000
07E00FD000
0BD01FC000
0FC01FC000
0FC0000000
0FC0000000
07C1F40000
0003F80000
0003F80000
0001F40000
ENDCHAR
STARTCHAR uni1EAD
ENCODING 7853
SWIDTH 526 0
DWIDTH 13 0
BBX 15 24 -1 -6
BITMAP
00002400
0000B800
0002FC00
000E4900
00240100
00000000
006F7F40
02FDFF40
07F07F00
0FD0BE00
2FC0FE00
3F80FD00
3F41FC00
7F42FC04
7F43F824
7F9BFD60
2FF9FFC0
0BE0BE00
00000000
00000000
01F40000
02FC0000
02FC0000
01F40000
ENDCHAR
STARTCHAR uni1EAE
ENCODING 7854
SWIDTH 668 0
DWIDTH 16 0
BBX 19 27 0 -3
BITMAP
0000000050
00000001D0
0000000280
000000F27C
0000007FE0
0000000000
0000006F40
000002FF40
00000E7F00
000038BF00
0000F0BE00
0002D0FE00
0007C1FD00
1BFFE5FC00
7E6F6FFC00
BC3D03F800
BCBC03F400
10F807F400
02F407F000
03F00BE000
07E00FE000
0BD00FD000
0BD01FC000
0FC02FC000
0FC0000000
0BC0000000
0140000000
ENDCHAR
STARTCHAR uni1EAF
ENCODING 7855
SWIDTH 526 0
DWIDTH 13 0
BBX 15 20 -1 0
BITMAP
00001D00
00003800
00007000
002C5380
002E1B40
000BF800
00000000
00000000
006F7F40
02FDFF40
07F07F00
0FD0BE00
2FC0FE00
3F80FD00
3F41FC00
7F42FC04
7F43F824
7F9BFD60
2FF9FFC0
0BE0BE00
ENDCHAR
STARTCHAR uni1EB0
ENCODING 7856
SWIDTH 668 0
DWIDTH 16 0
BBX 19 27 0 -3
BITMAP
0000000F00
0000000B00
000000A758
000000F078
0000007FD0
0000000000
0000006F40
000002FF40
00000E7F00
000038BF00
0000F0BE00
0002D0FE00
0007C1FD00
1BFFE5FC00
7E6F6FFC00
BC3D03F800
BCBC03F400
10F807F400
02F407F000
03F00BE000
07E00FE000
0BD00FD000
0BD01FC000
0FC02FC000
0FC0000000
0BC0000000
0140000000
ENDCHAR
STARTCHAR uni1EB1
ENCODING 7857
SWIDTH 526 0
DWIDTH 13 0
BBX 15 20 -1 0
BITMAP
0002C000
0001D000
0000D000
002CA380
002E1B40
000BF800
00000000
00000000
006F7F40
02FDFF40
07F07F00
0FD0BE00
2FC0FE00
3F80FD00
3F41FC00
7F42FC04
7F43F824
7F9BFD60
2FF9FFC0
0BE0BE00
ENDCHAR
STARTCHAR uni1EB2
ENCODING 7858
SWIDTH 668 0
DWIDTH 16 0
BBX 19 27 0 -3
BITMAP
0000000BC0
00000006D0
00000047D4
000000EA78
0000007FE0
0000000500
0000006F40
000002FF40
00000E7F00
000038BF00
0000F0BE00
0002D0FE00
0007C1FD00
1BFFE5FC00
7E6F6FFC00
BC3D03F800
BCBC03F400
10F807F400
02F407F000
03F00BE000
07E00FE000
0BD00FD000
0BD01FC000
0FC02FC000
0FC0000000
0BC0000000
0140000000
ENDCHAR
STARTCHAR uni1EB3
ENCODING 7859
SWIDTH 526 0
DWIDTH 13 0
BBX 15 20 -1 0
BITMAP
0001F800
00006C00
0000B800
002C9780
002E1B40
000BF800
00000000
00000000
006F7F40
02FDFF40
07F07F00
0FD0BE00
2FC0FE00
3F80FD00
3F41FC00
7F42FC04
7F43F824
7F9BFD60
2FF9FFC0
0BE0BE00
ENDCHAR
STARTCHAR uni1EB4
ENCODING 7860
SWIDTH 668 0
DWIDTH 16 0
BBX 19 27 0 -3
BITMAP
0000000540
0000002BF8
0000000150
000000F07C
0000007FE0
0000000000
0000006F40
000002FF40
00000E7F00
000038BF00
0000F0BE00
0002D0FE00
0007C1FD00
1BFFE5FC00
7E6F6FFC00
BC3D03F800
BCBC03F400
10F807F400
02F407F000
03F00BE000
07E00FE000
0BD00FD000
0BD01FC000
0FC02FC000
0FC0000000
0BC0000000
0140000000
ENDCHAR
STARTCHAR uni1EB5
ENCODING 7861
SWIDTH 526 0
DWIDTH 13 0
BBX 15 20 -1 0
BITMAP
0002FE40
00001400
00000000
002D0380
001E0B40
000BF900
00000000
00000000
006F7F40
02FDFF40
07F07F00
0FD0BE00
2FC0FE00
3F80FD00
3F41FC00
7F42FC04
7F43F824
7F9BFD60
2FF9FFC0
0BE0BE00
ENDCHAR
STARTCHAR uni1EB6
ENCODING 7862
SWIDTH 668 0
DWIDTH 16 0
BBX 20 28 0 -6
BITMAP
000003D01E
000002E47C
000000BFE0
0000000500
0000006F40
000002FF40
00000BFF40
00002E7F00
000078BE00
0000F0BE00
0002D0FD00
0007C1FC00
1BFFE5FC00
7E6F6BF800
BC3D03F400
78BC03F400
00F807F000
02F40BE000
03F00BE000
07E00FD000
0BD01FC000
0FC01FC000
0FC0000000
0FC0000000
07C1F40000
0003F80000
0003F80000
0001F40000
ENDCHAR
STARTCHAR uni1EB7
ENCODING 7863
SWIDTH 526 0
DWIDTH 13 0
BBX 15 23 -1 -6
BITMAP
00240180
003D1B80
001FFE00
00004000
00000000
006F7F40
02FDFF40
07F07F00
0FD0BE00
2FC0FE00
3F80FD00
3F41FC00
7F42FC04
7F43F824
7F9BFD60
2FF9FFC0
0BE0BE00
00000000
00000000
01F40000
02FC0000
02FC0000
01F40000
ENDCHAR
STARTCHAR uni1EB8
ENCODING 7864
SWIDTH 459 0
DWIDTH 11 0
BBX 12 24 0 -6
BITMAP
000BF4
007FAD
00FC0E
02F40E
02F42D
02F414
02F800
00BE00
02FD00
0FF000
2FD000
7F8000
BF4000
BF4001
BF8009
BFD5B4
3FFFD0
0BF900
000000
000000
078000
0FD000
0FD000
0B8000
ENDCHAR
STARTCHAR uni1EB9
ENCODING 7865
SWIDTH 384 0
DWIDTH 9 0
BBX 11 18 -1 -6
BITMAP
006F80
02FEE0
07F0E0
0FE1E0
2FC2D0
3F8780
3F9E00
7FA400
7F4004
3F4060
2FEA80
0BF900
000000
000000
0B8000
1FD000
1FD000
0B8000
ENDCHAR
STARTCHAR uni1EBA
ENCODING 7866
SWIDTH 459 0
DWIDTH 11 0
BBX 12 24 0 0
BITMAP
0002FD
00015F
00005E
0000E4
000040
000000
000BF4
007FAD
00FC0E
02F40E
02F42D
02F414
02F800
00BE00
02FD00
0FF000
2FD000
7F8000
BF4000
BF4001
BF8009
BFD5B4
3FFFD0
0BF900
ENDCHAR
STARTCHAR uni1EBB
ENCODING 7867
SWIDTH 384 0
DWIDTH 9 0
BBX 11 18 -1 0
BITMAP
001FE0
0005B0
0001A0
000A40
000400
000000
006F80
02FAE0
07F0E0
0FD1E0
2FC3D0
3F9F40
3FF900
7F4000
7F4018
3F4060
2FEA80
0BF900
ENDCHAR
STARTCHAR uni1EBC
ENCODING 7868
SWIDTH 459 0
DWIDTH 11 0
BBX 15 23 0 0
BITMAP
00015400
000BFEA4
002ABF80
00000000
00000000
000BF400
007FAD00
00FC0E00
02F40E00
02F42D00
02F41400
02F80000
00BE0000
02FD0000
0FF00000
2FD00000
7F800000
BF400000
BF400100
BF800900
BFD5B400
3FFFD000
0BF90000
ENDCHAR
STARTCHAR uni1EBD
ENCODING 7869
SWIDTH 384 0
DWIDTH 9 0
BBX 12 17 -1 0
BITMAP
00BE41
03FFFD
056FF4
000140
000000
006F80
02FAE0
07F0E0
0FD1E0
2FC3D0
3F9F40
3FF900
7F4000
7F4018
3F4060
2FEA80
0BF900
ENDCHAR
STARTCHAR uni1EBE
ENCODING 7870
SWIDTH 459 0
DWIDTH 11 0
BBX 15 24 0 0
BITMAP
00000074
000028A0
0000BDC0
00038900
00050500
00000000
000BF400
007FAD00
00FC0E00
02F40E00
02F42D00
02F41400
02F80000
00BE0000
02FD0000
0FF00000
2FD00000
7F800000
BF400000
BF400100
BF800900
BFD5B400
3FFFD000
0BF90000
ENDCHAR
STARTCHAR uni1EBF
ENCODING 7871
SWIDTH 384 0
DWIDTH 9 0
BBX 14 21 -1 0
BITMAP
000000F0
000001D0
00000380
0000C600
0003D000
000FA000
00383000
00400000
00000000
006F8000
02FAE000
07F0E000
0FD1E000
2FC3D000
3F9F4000
3FF90000
7F400000
7F401800
3F406000
2FEA8000
0BF90000
ENDCHAR
STARTCHAR uni1EC0
ENCODING 7872
SWIDTH 459 0
DWIDTH 11 0
BBX 14 24 0 0
BITMAP
000001C0
000018D0
0000BC90
00078900
00050500
00000000
000BF400
007FAD00
00FC0E00
02F40E00
02F42D00
02F41400
02F80000
00BE0000
02FD0000
0FF00000
2FD00000
7F800000
BF400000
BF400100
BF800900
BFD5B400
3FFFD000
0BF90000
ENDCHAR
STARTCHAR uni1EC1
ENCODING 7873
SWIDTH 384 0
DWIDTH 9 0
BBX 13 20 -1 0
BITMAP
00000B00
00000740
0000C340
0002D280
000BE000
00293000
00501000
00000000
006F8000
02FAE000
07F0E000
0FD1E000
2FC3D000
3F9F4000
3FF90000
7F400000
7F401800
3F406000
2FEA8000
0BF90000
ENDCHAR
STARTCHAR uni1EC2
ENCODING 7874
SWIDTH 459 0
DWIDTH 11 0
BBX 15 24 0 0
BITMAP
000001F8
0000046C
00007CB8
0002ED90
000A0500
00000000
000BF400
007FAD00
00FC0E00
02F40E00
02F42D00
02F41400
02F80000
00BE0000
02FD0000
0FF00000
2FD00000
7F800000
BF400000
BF400100
BF800900
BFD5B400
3FFFD000
0BF90000
ENDCHAR
STARTCHAR uni1EC3
ENCODING 7875
SWIDTH 384 0
DWIDTH 9 0
BBX 13 20 -1 0
BITMAP
00001F80
000006C0
0000CA40
0003D400
000FA000
00743000
00400000
00000000
006F8000
02FAE000
07F0E000
0FD1E000
2FC3D000
3F9F4000
3FF90000
7F400000
7F401800
3F406000
2FEA8000
0BF90000
ENDCHAR
STARTCHAR uni1EC4
ENCODING 7876
SWIDTH 459 0
DWIDTH 11 0
BBX 14 24 0 0
BITMAP
0001BE90
00013F80
0000BC00
00038D00
00050500
00000000
000BF400
007FAD00
00FC0E00
02F40E00
02F42D00
02F41400
02F80000
00BE0000
02FD0000
0FF00000
2FD00000
7F800000
BF400000
BF400100
BF800900
BFD5B400
3FFFD000
0BF90000
ENDCHAR
STARTCHAR uni1EC5
ENCODING 7877
SWIDTH 384 0
DWIDTH 9 0
BBX 12 20 -1 0
BITMAP
000BFA
000014
0000C0
0003D0
000FA0
003830
004000
000000
006F80
02FAE0
07F0E0
0FD1E0
2FC3D0
3F9F40
3FF900
7F4000
7F4018
3F4060
2FEA80
0BF900
ENDCHAR
STARTCHAR uni1EC6
ENCODING 7878
SWIDTH 459 0
DWIDTH 11 0
BBX 12 29 0 -6
BITMAP
000028
0000BC
0002ED
000E4A
001401
000BF4
007FAD
00FC0E
02F40E
02F42D
02F414
02F800
00BE00
02FD00
0FF000
2FD000
7F8000
BF4000
BF4001
BF8009
BFD5B4
3FFFD0
0BF900
000000
000000
078000
0FD000
0FD000
0B8000
ENDCHAR
STARTCHAR uni1EC7
ENCODING 7879
SWIDTH 384 0
DWIDTH 9 0
BBX 11 24 -1 -6
BITMAP
000090
0003E0
001FF0
007934
009014
000000
006F80
02FEE0
07F0E0
0FE1E0
2FC2D0
3F8780
3F9E00
7FA400
7F4004
3F4060
2FEA80
0BF900
000000
000000
0B8000
1FD000
1FD000
0B8000
ENDCHAR
STARTCHAR uni1EC8
ENCODING 7880
SWIDTH 375 0
DWIDTH 9 0
BBX 11 24 0 0
BITMAP
0007F4
00067C
00002C
000164
000280
000100
001BD0
01FFD0
0B5FC0
2D2F80
7C3F80
B83F40
B47F00
B4BF00
14BE00
00FE00
00FD00
01FC00
02FC00
02F800
03F400
07F400
07F000
0BE000
ENDCHAR
STARTCHAR uni1EC9
ENCODING 7881
SWIDTH 267 0
DWIDTH 6 0
BBX 7 18 0 0
BITMAP
0BF4
0578
0174
0380
0100
0000
1FC0
2F80
3F80
3F40
7F00
BF00
BE00
FD04
FD0C
FE68
FFE0
6E40
ENDCHAR
STARTCHAR uni1ECA
ENCODING 7882
SWIDTH 375 0
DWIDTH 9 0
BBX 10 24 0 -6
BITMAP
001BD0
01FFD0
0B5FC0
2D2F80
7C3F80
B83F40
B47F00
B4BF00
14BE00
00FE00
00FD00
01FC00
02FC00
02F800
03F400
07F400
07F000
0BE000
000000
000000
0B4000
1FC000
1FC000
0B4000
ENDCHAR
STARTCHAR uni1ECB
ENCODING 7883
SWIDTH 267 0
DWIDTH 6 0
BBX 8 23 -1 -6
BITMAP
01F4
02F8
02F8
01F4
0000
07F0
0BE0
0FE0
0FD0
1FC0
2FC0
2F80
3F41
3F43
3F9A
3FF8
1B90
0000
0000
7800
FE00
FE00
7800
ENDCHAR
STARTCHAR uni1ECC
ENCODING 7884
SWIDTH 665 0
DWIDTH 16 0
BBX 16 24 0 -6
BITMAP
0006FF80
00BE9BF4
07E1A0FC
1F4BD0BD
3D2F80BE
7C7F007E
B8BE00BE
79FD00BE
16FC00BE
03F800FD
03F401FC
07F402F8
07F403F4
07F00BE0
07F41FD0
03F87F40
02FFFD00
006FA000
00000000
00000000
002D0000
00BF0000
00BF0000
002D0000
ENDCHAR
STARTCHAR uni1ECD
ENCODING 7885
SWIDTH 433 0
DWIDTH 10 0
BBX 14 18 -1 -6
BITMAP
006F8000
02FAE000
0BE0F010
1FD1F5A0
2F81FE40
3F40F000
7F41E000
7F02E000
7F03D000
7F5B8000
3FFE0000
0BE40000
00000000
00000000
0B800000
1FD00000
1FD00000
0B800000
ENDCHAR
STARTCHAR uni1ECE
ENCODING 7886
SWIDTH 665 0
DWIDTH 16 0
BBX 16 24 0 0
BITMAP
00001FD0
000019F0
000000B0
00000590
00000A00
00000400
0006FF80
00BE9BF4
07E1A0FC
1F4BD0BD
3D2F80BE
7C7F007E
B8BE00BE
79FD00BE
16FC00BE
03F800FD
03F401FC
07F402F8
07F403F4
07F00BE0
07F41FD0
03F87F40
02FFFD00
006FA000
ENDCHAR
STARTCHAR uni1ECF
ENCODING 7887
SWIDTH 433 0
DWIDTH 10 0
BBX 14 18 -1 0
BITMAP
000BF400
00057800
00017400
00034000
00010000
00000000
006F8000
02FAE000
0BE0F010
1FD1F5A0
2F81FE40
3F40F000
7F41E000
7F02E000
7F03D000
7F5B8000
3FFE0000
0BE40000
ENDCHAR
STARTCHAR uni1ED0
ENCODING 7888
SWIDTH 665 0
DWIDTH 16 0
BBX 17 24 0 0
BITMAP
0000000240
0000004700
000007CD00
000029D400
0000505000
0000000000
0006FF8000
00BE9BF400
07E1A0FC00
1F4BD0BD00
3D2F80BE00
7C7F007E00
B8BE00BE00
79FD00BE00
16FC00BE00
03F800FD00
03F401FC00
07F402F800
07F403F400
07F00BE000
07F41FD000
03F87F4000
02FFFD0000
006FA00000
ENDCHAR
STARTCHAR uni1ED1
ENCODING 7889
SWIDTH 433 0
DWIDTH 10 0
BBX 14 21 -1 0
BITMAP
000000F0
000001D0
00000380
0000C600
0003D000
000FA000
00383000
00400000
00000000
006F8000
02FAE000
0BE0F010
1FD1F5A0
2F81FE40
3F40F000
7F41E000
7F02E000
7F03D000
7F5B8000
3FFE0000
0BE40000
ENDCHAR
STARTCHAR uni1ED2
ENCODING 7890
SWIDTH 665 0
DWIDTH 16 0
BBX 16 24 0 0
BITMAP
0000001C
0000018D
00000BC9
00007490
00005050
00000000
0006FF80
00BE9BF4
07E1A0FC
1F4BD0BD
3D2F80BE
7C7F007E
B8BE00BE
79FD00BE
16FC00BE
03F800FD
03F401FC
07F402F8
07F403F4
07F00BE0
07F41FD0
03F87F40
02FFFD00
006FA000
ENDCHAR
STARTCHAR uni1ED3
ENCODING 7891
SWIDTH 433 0
DWIDTH 10 0
BBX 14 20 -1 0
BITMAP
00000B00
00000740
0000C340
0002D280
000BE000
00293000
00501000
00000000
006F8000
02FAE000
0BE0F010
1FD1F5A0
2F81FE40
3F40F000
7F41E000
7F02E000
7F03D000
7F5B8000
3FFE0000
0BE40000
ENDCHAR
STARTCHAR uni1ED4
ENCODING 7892
SWIDTH 665 0
DWIDTH 16 0
BBX 17 24 0 0
BITMAP
0000001F80
00000046C0
0000078B80
00002ED900
0000A05000
0000000000
0006FF8000
00BE9BF400
07E1A0FC00
1F4BD0BD00
3D2F80BE00
7C7F007E00
B8BE00BE00
79FD00BE00
16FC00BE00
03F800FD00
03F401FC00
07F402F800
07F403F400
07F00BE000
07F41FD000
03F87F4000
02FFFD0000
006FA00000
ENDCHAR
STARTCHAR uni1ED5
ENCODING 7893
SWIDTH 433 0
DWIDTH 10 0
BBX 14 20 -1 0
BITMAP
00000F80
000005D0
000087C0
0002D600
000BE000
00297000
00501000
00000000
006F8000
02FAE000
0BE0F010
1FD1F5A0
2F81FE40
3F40F000
7F41E000
7F02E000
7F03D000
7F5B8000
3FFE0000
0BE40000
ENDCHAR
STARTCHAR uni1ED6
ENCODING 7894
SWIDTH 665 0
DWIDTH 16 0
BBX 16 24 0 0
BITMAP
00000550
00001BF8
00000BC0
000028D0
00005050
00000000
0006FF80
00BE9BF4
07E1A0FC
1F4BD0BD
3D2F80BE
7C7F007E
B8BE00BE
79FD00BE
16FC00BE
03F800FD
03F401FC
07F402F8
07F403F4
07F00BE0
07F41FD0
03F87F40
02FFFD00
006FA000
ENDCHAR
STARTCHAR uni1ED7
ENCODING 7895
SWIDTH 433 0
DWIDTH 10 0
BBX 14 21 -1 0
BITMAP
00015000
000BFE00
00005400
0000D000
0003D000
000FA000
00383000
00400000
00000000
006F8000
02FAE000
0BE0F010
1FD1F5A0
2F81FE40
3F40F000
7F41E000
7F02E000
7F03D000
7F5B8000
3FFE0000
0BE40000
ENDCHAR
STARTCHAR uni1ED8
ENCODING 7896
SWIDTH 665 0
DWIDTH 16 0
BBX 16 29 0 -6
BITMAP
00000340
00001F80
00007FC0
0001E0D0
00010050
0006FF80
00BE9BF4
07E1A0FC
1F4BD0BD
3D2F80BE
7C7F007E
B8BE00BE
79FD00BE
16FC00BE
03F800FD
03F401FC
07F402F8
07F403F4
07F00BE0
07F41FD0
03F87F40
02FFFD00
006FA000
00000000
00000000
002D0000
00BF0000
00BF0000
002D0000
ENDCHAR
STARTCHAR uni1ED9
ENCODING 7897
SWIDTH 433 0
DWIDTH 10 0
BBX 14 24 -1 -6
BITMAP
0001C000
0007D000
001FE000
00787000
01802000
00000000
006F8000
02FAE000
0BE0F010
1FD1F5A0
2F81FE40
3F40F000
7F41E000
7F02E000
7F03D000
7F5B8000
3FFE0000
0BE40000
00000000
00000000
0B800000
1FD00000
1FD00000
0B800000
ENDCHAR
STARTCHAR uni1EDA
ENCODING 7898
SWIDTH 665 0
DWIDTH 16 0
BBX 18 24 0 0
BITMAP
0000019000
000002E000
0000078000
00000F02D0
00000903D0
00000003C0
0006FE4780
00BE9BEF00
07E1A0FC00
1F4BD0BD00
3D2F80BE00
7C7F007E00
B8BE00BE00
79FD00BE00
16FC00BE00
03F800FD00
03F401FC00
07F402F800
07F403F400
07F00BF000
07F41FD000
03F87F4000
02FFFD0000
006FA00000
ENDCHAR
STARTCHAR uni1EDB
ENCODING 7899
SWIDTH 439 0
DWIDTH 11 0
BBX 13 18 -1 0
BITMAP
0000B800
0001F000
0002D100
00078780
00064780
00000B40
006F9E00
01FEFC00
07F0B400
0FD0B400
2FC0B400
3F80F400
7F40F000
7F42E000
7F43D000
3F9F8000
2FFE0000
0BE40000
ENDCHAR
STARTCHAR uni1EDC
ENCODING 7900
SWIDTH 665 0
DWIDTH 16 0
BBX 18 24 0 0
BITMAP
0002F00000
0001F00000
0000F40140
0000B403D0
00000003D0
00000003C0
0006FE4780
00BE9BEF00
07E1A0FC00
1F4BD0BD00
3D2F80BE00
7C7F007E00
B8BE00BE00
79FD00BE00
16FC00BE00
03F800FD00
03F401FC00
07F402F800
07F403F400
07F00BF000
07F41FD000
03F87F4000
02FFFD0000
006FA00000
ENDCHAR
STARTCHAR uni1EDD
ENCODING 7901
SWIDTH 439 0
DWIDTH 11 0
BBX 13 18 -1 0
BITMAP
002F0000
001F0000
000B4640
00074780
00000780
00000B40
006F9E00
01FEF800
07F0B400
0FD0B400
2FC0B400
3F80F400
7F40F000
7F42E000
7F43D000
3F9F8000
2FFE0000
0BE40000
ENDCHAR
STARTCHAR uni1EDE
ENCODING 7902
SWIDTH 665 0
DWIDTH 16 0
BBX 18 24 0 0
BITMAP
00001FD000
000019F000
000000B000
0000059000
00000A03D0
00000403D0
0006FE43C0
00BE9BEF40
07E1A0FC00
1F4BD0BD00
3D2F80BE00
7C7F007E00
B8BE00BE00
79FD00BE00
16FC00BE00
03F800FD00
03F401FC00
07F402F800
07F403F400
07F00BF000
07F41FD000
03F87F4000
02FFFD0000
006FA00000
ENDCHAR
STARTCHAR uni1EDF
ENCODING 7903
SWIDTH 439 0
DWIDTH 11 0
BBX 13 18 -1 0
BITMAP
000BF400
00057800
00017400
00034780
00010780
00000740
006F9E00
01FEFC00
07F0B400
0FD0B400
2FC0B400
3F80F400
7F40F000
7F42E000
7F43D000
3F9F8000
2FFE0000
0BE40000
ENDCHAR
STARTCHAR uni1EE0
ENCODING 7904
SWIDTH 665 0
DWIDTH 16 0
BBX 18 22 0 0
BITMAP
0002FEA000
000ABFD2D0
00001503D0
00000003C0
0006FE4780
00BE9BEF00
07E1A0FC00
1F4BD0BD00
3D2F80BE00
7C7F007E00
B8BE00BE00
79FD00BE00
16FC00BE00
03F800FD00
03F401FC00
07F402F800
07F403F400
07F00BF000
07F41FD000
03F87F4000
02FFFD0000
006FA00000
ENDCHAR
STARTCHAR uni1EE1
ENCODING 7905
SWIDTH 439 0
DWIDTH 11 0
BBX 13 17 -1 0
BITMAP
00BD1000
02FFD780
016F8780
00000780
00000B40
006F9E00
01FEF800
07F0B400
0FD0B400
2FC0B400
3F80F400
7F40F000
7F42E000
7F43D000
3F9F8000
2FFE0000
0BE40000
ENDCHAR
STARTCHAR uni1EE2
ENCODING 7906
SWIDTH 665 0
DWIDTH 16 0
BBX 18 27 0 -6
BITMAP
0000000140
00000003D0
00000003D0
0006FE4380
00BE9BEF00
07E1A0FC00
1F4BD0BD00
3D2F80BE00
7C7F007E00
B8BE00BE00
79FD00BE00
16FC00BE00
03F800FD00
03F401FC00
07F402F800
07F403F400
07F00BF000
07F41FD000
03F87F4000
02FFFD0000
006FA00000
0000000000
0000000000
002D000000
00BF000000
00BF000000
002D000000
ENDCHAR
STARTCHAR uni1EE3
ENCODING 7907
SWIDTH 439 0
DWIDTH 11 0
BBX 13 21 -1 -6
BITMAP
00000140
00000780
00000780
006F9B00
01FEFD00
07F0B400
0FD0B400
2FC0B400
3F80F400
7F40F000
7F42E000
7F43D000
3F9F8000
2FFE0000
0BE40000
00000000
00000000
0B800000
1FD00000
1FD00000
0B800000
ENDCHAR
STARTCHAR uni1EE4
ENCODING 7908
SWIDTH 716 0
DWIDTH 17 0
BBX 18 24 0 -6
BITMAP
001BF007F0
02EFE00BE0
0F4FD00BE0
3D1FD00FD0
B81FC01FD0
F42F801FC0
F03F402F80
B07F003F80
107F003F40
00BE007F00
00FD00BE00
00FC00FE00
01FC01FD00
01FC02FC00
01FC03F400
01FE5FE000
00BFFF8000
002FF90000
0000000000
0000000000
000B800000
001FD00000
001FD00000
000B800000
ENDCHAR
STARTCHAR uni1EE5
ENCODING 7909
SWIDTH 505 0
DWIDTH 12 0
BBX 13 18 0 -6
BITMAP
1FC2FC00
2F82F800
3F83F400
3F47F400
7F07F000
BF0BF000
BE0FE000
FD0FD040
FD1FD180
FE7FE740
FFDFFE00
6E47E400
00000000
00000000
07800000
0FE00000
0FE00000
07800000
ENDCHAR
STARTCHAR uni1EE6
ENCODING 7910
SWIDTH 716 0
DWIDTH 17 0
BBX 18 24 0 0
BITMAP
000002FD00
0000015E00
0000000E00
0000005800
000000D000
0000004000
001BF007F0
02EFE00BE0
0F4FD00BE0
3D1FD00FD0
B81FC01FD0
F42F801FC0
F03F402F80
B07F003F80
107F003F40
00BE007F00
00FD00BE00
00FC00FE00
01FC01FD00
01FC02FC00
01FC03F400
01FE5FE000
00BFFF8000
002FF90000
ENDCHAR
STARTCHAR uni1EE7
ENCODING 7911
SWIDTH 505 0
DWIDTH 12 0
BBX 13 18 0 0
BITMAP
007F8000
0026D000
0006C000
001D0000
00040000
00000000
1FC2FC00
2F82F800
3F83F400
3F47F400
7F07F000
BF0BF000
BE0FE000
FD0FD040
FD1FD180
FE7FE740
FFDFFE00
6E47E400
ENDCHAR
STARTCHAR uni1EE8
ENCODING 7912
SWIDTH 716 0
DWIDTH 17 0
BBX 21 24 0 0
BITMAP
0000001F4000
0000002E0000
0000003C0780
000000B407C0
000000500780
000000000F00
001BF007FD00
02EFE00BF400
0F4FD00BE000
3D1FD00FD000
B81FC01FD000
F42F801FC000
F03F402F8000
B07F003F8000
107F003F4000
00BE007F0000
00FD00BF0000
00FC00FE0000
01FC01FD0000
01FC02FC0000
01FC03F40000
01FE5FE00000
00BFFF800000
002FF9000000
ENDCHAR
STARTCHAR uni1EE9
ENCODING 7913
SWIDTH 505 0
DWIDTH 12 0
BBX 13 18 0 0
BITMAP
0001F000
0002D000
000782C0
000B43C0
00090380
00000740
1FC2FD00
2F82F800
3F83F400
3F47F400
7F07F000
BF0BE000
BE0FE000
FD0FD040
FD1FD180
FE7FE740
FFDFFE00
6E47E400
ENDCHAR
STARTCHAR uni1EEA
ENCODING 7914
SWIDTH 716 0
DWIDTH 17 0
BBX 21 24 0 0
BITMAP
00000F400000
00000B400240
0000078007C0
000003C00780
000000000B40
000000000E00
001BF007F800
02EFE00BE000
0F4FD00BE000
3D1FD00FD000
B81FC01FC000
F42F801FC000
F03F402F8000
B07F003F8000
107F003F4000
00BE007F0000
00FD00BE0000
00FC00FE0000
01FC01FD0000
01FC02FC0000
01FC03F40000
01FE5FE00000
00BFFF800000
002FF9000000
ENDCHAR
STARTCHAR uni1EEB
ENCODING 7915
SWIDTH 505 0
DWIDTH 12 0
BBX 13 18 0 0
BITMAP
007C0000
003D0000
002D03C0
001E03C0
00000380
00000B40
1FC2FD00
2F82F800
3F83F400
3F47F400
7F07F000
BF0BE000
BE0FE000
FD0FD040
FD1FD180
FE7FE740
FFDFFE00
6E47E400
ENDCHAR
STARTCHAR uni1EEC
ENCODING 7916
SWIDTH 716 0
DWIDTH 17 0
BBX 21 24 0 0
BITMAP
000002FD0000
0000015E0000
0000000E0780
000000580780
000000D00780
000000400F00
001BF007FD00
02EFE00BF000
0F4FD00BE000
3D1FD00FD000
B81FC01FD000
F42F801FC000
F03F402F8000
B07F003F8000
107F003F4000
00BE007F0000
00FD00BF0000
00FC00FE0000
01FC01FD0000
01FC02FC0000
01FC03F40000
01FE5FE00000
00BFFF800000
002FF9000000
ENDCHAR
STARTCHAR uni1EED
ENCODING 7917
SWIDTH 505 0
DWIDTH 12 0
BBX 13 18 0 0
BITMAP
007F8000
0016D000
0006C140
001D03C0
000403C0
00000740
1FC2FE00
2F82F800
3F83F800
3F47F400
7F07F000
BF0BF000
BE0FE000
FD0FD040
FD1FD180
FE7FE740
FFDFFE00
6E47E400
ENDCHAR
STARTCHAR uni1EEE
ENCODING 7918
SWIDTH 716 0
DWIDTH 17 0
BBX 21 22 0 0
BITMAP
00001BFA9780
00006BFF87C0
000000540780
000000000F00
001BF007FD00
02EFE00BF400
0F4FD00BE000
3D1FD00FD000
B81FC01FD000
F42F801FC000
F03F402F8000
B07F003F8000
107F003F4000
00BE007F0000
00FD00BF0000
00FC00FE0000
01FC01FD0000
01FC02FC0000
01FC03F40000
01FE5FE00000
00BFFF800000
002FF9000000
ENDCHAR
STARTCHAR uni1EEF
ENCODING 7919
SWIDTH 505 0
DWIDTH 12 0
BBX 13 17 0 0
BITMAP
00BE1180
01FFE3C0
012F83C0
00000380
00000B00
1FC2FC00
2F82F800
3F83F400
3F47F400
7F07F000
BF0BE000
BE0FE000
FD0FD040
FD1FD180
FE7FE740
FFDFFE00
6E47E400
ENDCHAR
STARTCHAR uni1EF0
ENCODING 7920
SWIDTH 716 0
DWIDTH 17 0
BBX 21 28 0 -6
BITMAP
000000000140
0000000007C0
000000000780
000000000F40
001BF007FE00
02EFE00BF800
0F4FD00BE000
3D1FD00FE000
B81FC01FD000
F42F801FC000
F03F402FC000
B07F003F8000
107F003F4000
00BE007F4000
00FD00BF0000
00FC00FE0000
01FC01FD0000
01FC02FC0000
01FC03F40000
01FE5FE00000
00BFFF800000
002FF9000000
000000000000
000000000000
000B80000000
001FD0000000
001FD0000000
000B80000000
ENDCHAR
STARTCHAR uni1EF1
ENCODING 7921
SWIDTH 505 0
DWIDTH 12 0
BBX 13 21 0 -6
BITMAP
000002C0
000003C0
00000780
1FC2FF00
2F82FD00
3F83F800
3F47F400
7F07F000
BF0BF000
BE0FE000
FD0FD040
FD1FD180
FE7FE740
FFDFFE00
6E47E400
00000000
00000000
07800000
0FE00000
0FE00000
07800000
ENDCHAR
STARTCHAR Ygrave
ENCODING 7922
SWIDTH 620 0
DWIDTH 15 0
BBX 17 23 0 0
BITMAP
00000B8000
000007C000
000003C000
000002D000
0000000000
001BE00380
01FFF00700
0B4BF00E00
2D0BF41D00
7C07F82800
B803F83400
B402FC7000
B402FDD000
1401FEC000
0000FF8000
0000BF0000
0000FF0000
0000FE0000
0001FD0000
0002FD0000
0002FC0000
0003FC0000
0007F80000
ENDCHAR
STARTCHAR ygrave
ENCODING 7923
SWIDTH 505 0
DWIDTH 12 0
BBX 13 24 0 -6
BITMAP
007C0000
003C0000
002D0000
001D0000
00000000
00000000
1FC2FC00
2F82F800
3F83F400
3F47F400
7F07F000
BF0BE000
BE0FE000
FD0FD040
FD1FD240
FE7FC700
FFFF9D00
6E7FE000
01BF4000
0BBF0000
28BF0000
34FE0000
2FFC0000
0BE00000
ENDCHAR
STARTCHAR uni1EF4
ENCODING 7924
SWIDTH 620 0
DWIDTH 15 0
BBX 17 24 0 -6
BITMAP
001BE00380
01FFF00700
0B4BF00E00
2D0BF41D00
7C07F82800
B803F83400
B402FC7000
B402FDD000
1401FEC000
0000FF8000
0000BF0000
0000FF0000
0000FE0000
0001FD0000
0002FD0000
0002FC0000
0003FC0000
0007F80000
0000000000
0000000000
0007D00000
000FE00000
000FE00000
0007D00000
ENDCHAR
STARTCHAR uni1EF5
ENCODING 7925
SWIDTH 505 0
DWIDTH 12 0
BBX 13 18 0 -6
BITMAP
1FC2FC00
2F82F800
3F83F400
3F47F400
7F07F000
BF0BE000
BE0FE000
FD0FD040
FD1FD240
FE7FC700
FFFF9D00
6E7FE000
01BF4000
0BBF0000
28BF0000
34FE7C00
2FFCBD00
0BE07C00
ENDCHAR
STARTCHAR uni1EF6
ENCODING 7926
SWIDTH 620 0
DWIDTH 15 0
BBX 17 24 0 0
BITMAP
000002FD00
0000015E00
0000000E00
0000005800
000000D000
0000004000
001BE00380
01FFF00700
0B4BF00E00
2D0BF41D00
7C07F82800
B803F83400
B402FC7000
B402FDD000
1401FEC000
0000FF8000
0000BF0000
0000FF0000
0000FE0000
0001FD0000
0002FD0000
0002FC0000
0003FC0000
0007F80000
ENDCHAR
STARTCHAR uni1EF7
ENCODING 7927
SWIDTH 505 0
DWIDTH 12 0
BBX 13 24 0 -6
BITMAP
007F8000
0026D000
0006C000
001D0000
00040000
00000000
1FC2FC00
2F82F800
3F83F400
3F47F400
7F07F000
BF0BE000
BE0FE000
FD0FD040
FD1FD240
FE7FC700
FFFF9D00
6E7FE000
01BF4000
0BBF0000
28BF0000
34FE0000
2FFC0000
0BE00000
ENDCHAR
STARTCHAR uni1EF8
ENCODING 7928
SWIDTH 620 0
DWIDTH 15 0
BBX 17 22 0 0
BITMAP
00002F9040
0000FFFF40
0000015400
0000000000
001BE00380
01FFF00700
0B4BF00E00
2D0BF41D00
7C07F82800
B803F83400
B402FC7000
B402FDD000
1401FEC000
0000FF8000
0000BF0000
0000FF0000
0000FE0000
0001FD0000
0002FD0000
0002FC0000
0003FC0000
0007F80000
ENDCHAR
STARTCHAR uni1EF9
ENCODING 7929
SWIDTH 505 0
DWIDTH 12 0
BBX 13 23 0 -6
BITMAP
00BE4100
07FFFC00
045FE000
00000000
00000000
1FC2FC00
2F82F800
3F83F400
3F47F400
7F07F000
BF0BE000
BE0FE000
FD0FD040
FD1FD240
FE7FC700
FFFF9D00
6E7FE000
01BF4000
0BBF0000
28BF0000
34FE0000
2FFC0000
0BE00000
ENDCHAR
STARTCHAR uni2010
ENCODING 8208
SWIDTH 290 0
DWIDTH 7 0
BBX 6 2 0 5
BITMAP
7FE0
1540
ENDCHAR
STARTCHAR endash
ENCODING 8211
SWIDTH 352 0
DWIDTH 8 0
BBX 7 2 0 5
BITMAP
7FFC
1554
ENDCHAR
STARTCHAR emdash
ENCODING 8212
SWIDTH 444 0
DWIDTH 11 0
BBX 9 2 0 5
BITMAP
7FFFC0
155540
ENDCHAR
STARTCHAR quoteleft
ENCODING 8216
SWIDTH 209 0
DWIDTH 5 0
BBX 4 6 2 12
BITMAP
05
18
34
BD
BD
7C
ENDCHAR
STARTCHAR quoteright
ENCODING 8217
SWIDTH 238 0
DWIDTH 6 0
BBX 4 6 2 12
BITMAP
78
BD
7D
28
20
40
ENDCHAR
STARTCHAR quotesinglbase
ENCODING 8218
SWIDTH 220 0
DWIDTH 5 0
BBX 4 6 -1 -3
BITMAP
2E
7F
3F
1D
28
10
ENDCHAR
STARTCHAR quotedblleft
ENCODING 8220
SWIDTH 429 0
DWIDTH 10 0
BBX 8 6 2 12
BITMAP
0501
1809
341C
BD3E
BD3F
7C2E
ENDCHAR
STARTCHAR quotedblright
ENCODING 8221
SWIDTH 426 0
DWIDTH 10 0
BBX 9 6 2 12
BITMAP
2D1F00
7F2F80
3E1F40
1D0B00
240800
101000
ENDCHAR
STARTCHAR quotedblbase
ENCODING 8222
SWIDTH 440 0
DWIDTH 11 0
BBX 9 6 -1 -3
BITMAP
2E0F40
7F2F80
3F1F80
1D0B00
280900
101000
ENDCHAR
STARTCHAR dagger
ENCODING 8224
SWIDTH 495 0
DWIDTH 12 0
BBX 10 24 1 -6
BITMAP
000B00
000E00
001E00
001D00
002C00
002C00
003800
007800
3FFFF0
3FFFE0
6AFA90
00E000
01D000
01D000
02C000
038000
038000
074000
0B0000
0B0000
0E0000
1E0000
1D0000
2C0000
ENDCHAR
STARTCHAR daggerdbl
ENCODING 8225
SWIDTH 495 0
DWIDTH 12 0
BBX 11 24 0 -6
BITMAP
0002C0
000380
000780
000740
000B00
000B00
000E00
001E00
0FFFFC
0FFFF8
1ABEA4
003800
007400
3FFFF0
3FFFE0
7FFFD0
00E000
01D000
02D000
02C000
038000
078000
074000
0B0000
ENDCHAR
STARTCHAR bullet
ENCODING 8226
SWIDTH 434 0
DWIDTH 10 0
BBX 5 5 3 4
BITMAP
6D00
FF40
FF40
FF40
7E00
ENDCHAR
STARTCHAR ellipsis
ENCODING 8230
SWIDTH 702 0
DWIDTH 17 0
BBX 15 4 1 0
BITMAP
B80B40B4
FD2FC2FC
FD2FC2FC
B80B40B4
ENDCHAR
STARTCHAR perthousand
ENCODING 8240
SWIDTH 1175 0
DWIDTH 28 0
BBX 27 18 1 0
BITMAP
02F80074000000
0FAD00B0000000
2E1E01D0000000
7C1E0380000000
B81E0740000000
B82E0E00000000
B43D2D00000000
B47C3800000000
B9F4B02F800BE0
3FD1D0FAD02EB8
0502C2E1E0B87C
000747C1F0F47C
000E0B81E1F07C
001D0B82E2E0B8
00380B43D2E0B4
00B40B4782E1F0
00E007EF01FBD0
02C002F800BE00
ENDCHAR
STARTCHAR minute
ENCODING 8242
SWIDTH 196 0
DWIDTH 5 0
BBX 5 6 1 12
BITMAP
0B80
0F40
1E00
2D00
3800
7400
ENDCHAR
STARTCHAR second
ENCODING 8243
SWIDTH 341 0
DWIDTH 8 0
BBX 8 6 1 12
BITMAP
0B9F
0F6E
1E3D
2D38
3874
74A0
ENDCHAR
STARTCHAR guilsinglleft
ENCODING 8249
SWIDTH 359 0
DWIDTH 9 0
BBX 8 9 0 2
BITMAP
0001
001E
01B4
0B40
7800
7900
0B80
01B4
0014
ENDCHAR
STARTCHAR guilsinglright
ENCODING 8250
SWIDTH 344 0
DWIDTH 8 0
BBX 8 9 0 2
BITMAP
0400
0E00
02D0
00B8
001E
002E
06E0
2E00
6000
ENDCHAR
STARTCHAR fraction
ENCODING 8260
SWIDTH 248 0
DWIDTH 6 0
BBX 11 18 -2 0
BITMAP
00002C
000074
0000B0
0001D0
000380
000740
000E00
002C00
003800
00B000
01D000
02C000
074000
0E0000
1D0000
380000
B40000
E00000
ENDCHAR
STARTCHAR uni2052
ENCODING 8274
SWIDTH 796 0
DWIDTH 19 0
BBX 13 18 3 0
BITMAP
2E000740
7F400B00
7F401D00
2E003800
00007400
0000E000
0002D000
00038000
000B0000
001D0000
002C0000
00740000
00E00000
01D00000
03801E00
0B403F40
0E003F40
2C001E00
ENDCHAR
STARTCHAR uni2070
ENCODING 8304
SWIDTH 379 0
DWIDTH 9 0
BBX 8 11 1 7
BITMAP
02F8
0FAD
2E1E
7C1E
B81E
B82E
B43D
B47C
B9F4
3FD0
0500
ENDCHAR
STARTCHAR uni2074
ENCODING 8308
SWIDTH 352 0
DWIDTH 8 0
BBX 7 10 1 8
BITMAP
0E28
0F7C
0E78
1DB4
34F4
7FF8
01E0
01E0
02D0
03D0
ENDCHAR
STARTCHAR uni2075
ENCODING 8309
SWIDTH 335 0
DWIDTH 8 0
BBX 7 13 1 6
BITMAP
0004
0FF8
0D50
1800
2800
2FE0
26F4
34B8
B4B8
A0B4
B6F0
3F80
0500
ENDCHAR
STARTCHAR uni2076
ENCODING 8310
SWIDTH 351 0
DWIDTH 8 0
BBX 7 12 1 6
BITMAP
02F4
0BAC
2E1C
3D14
7C00
BAF4
BA78
B438
B478
79F0
2FD0
0500
ENDCHAR
STARTCHAR uni2077
ENCODING 8311
SWIDTH 329 0
DWIDTH 8 0
BBX 7 10 1 8
BITMAP
7FF8
AAF0
00D0
0380
0B00
1D00
3C00
7800
B800
7800
ENDCHAR
STARTCHAR uni2078
ENCODING 8312
SWIDTH 354 0
DWIDTH 9 0
BBX 8 12 1 6
BITMAP
06F4
0FAC
1E1D
1F2C
0BA0
0BE0
29F4
B4BC
B07C
B9B8
2FE0
0500
ENDCHAR
STARTCHAR uni2079
ENCODING 8313
SWIDTH 345 0
DWIDTH 8 0
BBX 7 11 1 7
BITMAP
07E0
2EB4
787C
743C
B47C
767C
3FB8
04B4
10E0
A2C0
6A00
ENDCHAR
STARTCHAR uni2080
ENCODING 8320
SWIDTH 379 0
DWIDTH 9 0
BBX 8 10 1 0
BITMAP
02F8
0FAD
2E1E
7C1E
B81E
B82E
B43D
B478
7EF0
2F80
ENDCHAR
STARTCHAR uni2081
ENCODING 8321
SWIDTH 229 0
DWIDTH 6 0
BBX 4 10 1 0
BITMAP
17
BF
1E
2D
2D
3C
7C
78
B4
B4
ENDCHAR
STARTCHAR uni2082
ENCODING 8322
SWIDTH 328 0
DWIDTH 8 0
BBX 7 10 1 0
BITMAP
0BE0
2EF4
38B8
28B4
00E0
0380
0A00
2800
B560
BFE0
ENDCHAR
STARTCHAR uni2083
ENCODING 8323
SWIDTH 336 0
DWIDTH 8 0
BBX 7 10 1 0
BITMAP
07E0
1EB8
2C78
1974
01D0
01E0
78B8
B0B8
B0F0
2F80
ENDCHAR
STARTCHAR uni2084
ENCODING 8324
SWIDTH 352 0
DWIDTH 8 0
BBX 7 10 1 0
BITMAP
0E28
0F7C
0E78
1DB4
34F4
7FF8
01E0
01E0
02D0
03D0
ENDCHAR
STARTCHAR uni2085
ENCODING 8325
SWIDTH 335 0
DWIDTH 8 0
BBX 7 11 1 0
BITMAP
0004
0FF8
0D50
1800
2800
2FE0
25F4
78B8
B4B4
BAE0
2F80
ENDCHAR
STARTCHAR uni2086
ENCODING 8326
SWIDTH 351 0
DWIDTH 8 0
BBX 7 10 1 0
BITMAP
02F8
0FAC
2E18
7C00
BAF4
BB78
B438
B478
7EF0
2F80
ENDCHAR
STARTCHAR uni2087
ENCODING 8327
SWIDTH 329 0
DWIDTH 8 0
BBX 7 10 1 0
BITMAP
7FF8
AAF0
00D0
0380
0B00
1D00
3C00
7800
B800
7800
ENDCHAR
STARTCHAR uni2088
ENCODING 8328
SWIDTH 354 0
DWIDTH 9 0
BBX 7 10 1 0
BITMAP
06F4
0FAC
1E1C
0F68
07E0
1EF4
74B8
B07C
BAF4
2F90
ENDCHAR
STARTCHAR uni2089
ENCODING 8329
SWIDTH 345 0
DWIDTH 8 0
BBX 7 10 1 0
BITMAP
0BE0
2EB8
747C
B43C
B57C
3F78
04B4
10F0
A2D0
6A40
ENDCHAR
STARTCHAR colonmonetary
ENCODING 8353
SWIDTH 384 0
DWIDTH 9 0
BBX 10 18 0 -1
BITMAP
0028D0
0035C0
003180
01FFD0
07E5F0
1F81F0
3F01E0
7D0000
BD0000
BC0000
BC0000
BD0000
3F5600
1FFF00
0DB900
0CA000
1CA000
28D000
ENDCHAR
STARTCHAR franc
ENCODING 8355
SWIDTH 529 0
DWIDTH 13 0
BBX 14 18 0 0
BITMAP
002FFFE0
002FD540
002FC000
002F8000
003F8000
007F4000
007F4000
00BF0000
00BFFC00
00FE5400
01FD0000
01FC0000
02FC0000
BFFFE000
57F95000
07F40000
0BF00000
0BE00000
ENDCHAR
STARTCHAR lira
ENCODING 8356
SWIDTH 455 0
DWIDTH 11 0
BBX 13 18 0 0
BITMAP
0006FD00
001FEF00
003F0F40
00BE1F00
00FD0400
00FC0000
01FC0000
2FFFF000
17F95000
03F40000
7FFFD000
1BF54000
0BE00000
0BD00000
0F800600
2FFFFE00
7FFFFD00
555BF400
ENDCHAR
STARTCHAR uni20A6
ENCODING 8358
SWIDTH 723 0
DWIDTH 17 0
BBX 19 18 0 0
BITMAP
000FD003D0
000FE007C0
001FE00B80
002FF00B80
002FF40F40
003FF41F00
007FF81F00
007EF82E00
3FFFFFFFF8
15F5FD7D50
01F4FE7C00
BFFFFFFFF0
56E5BFB950
02E07FF400
03D03FF000
07C02FF000
0B802FE000
0B801FD000
ENDCHAR
STARTCHAR uni20A9
ENCODING 8361
SWIDTH 841 0
DWIDTH 20 0
BBX 22 18 0 0
BITMAP
03F800FD00B0
02F801FD00D0
02F802FD02C0
02F807FD0380
02F80BFD0740
02F80FFD0B00
02F81EFD0E00
02F82DFD1C00
3FFFFFFFFFF0
16FD75FD7540
02FCA1FD7400
BFFFFFFFFFD0
56FED5FDE540
01FE80FDC000
01FF40FE8000
01FF00FF4000
01FE00FF0000
01FD00FE0000
ENDCHAR
STARTCHAR Euro
ENCODING 8364
SWIDTH 507 0
DWIDTH 12 0
BBX 15 18 0 0
BITMAP
0000BF80
0007EBE0
002F81F4
007F02F4
00FD03E0
02FC0140
03F80000
2FFFFD00
1BF95400
0BF40000
7FFFFC00
1BF55400
0BF40000
0BF40000
07FD0600
03FFFF00
01FFFD00
006FE000
ENDCHAR
STARTCHAR uni20AE
ENCODING 8366
SWIDTH 481 0
DWIDTH 12 0
BBX 17 18 0 0
BITMAP
006FFA4080
07E7FFFFC0
1E03FFFF80
3C07F46A00
7807F00000
B40BF00000
B40BE00000
B40FE00000
681FE69000
016FFA4000
1FFFC00000
152FEB8000
05BFA50000
7EBF400000
007F000000
00BE000000
00FE000000
00FD000000
ENDCHAR
STARTCHAR uni20B3
ENCODING 8371
SWIDTH 573 0
DWIDTH 14 0
BBX 15 18 0 0
BITMAP
001BF900
01FA6F80
0B8147E0
2E2FC2F0
7C2F81F4
B83F42F0
B47F42F0
B4BF07E0
14BE0FC0
00FE7F00
0FFFF800
06FD0000
02FC0000
2FFFF000
17F95000
03F40000
07F00000
0BF00000
ENDCHAR
STARTCHAR uni20B4
ENCODING 8372
SWIDTH 570 0
DWIDTH 14 0
BBX 12 18 1 0
BITMAP
006FE4
07E6FD
0F00BE
1E00BE
1F00FD
0002F4
7FFFFF
557F55
01B900
FFFFFD
5F9554
3F42F4
BE02FC
FD00BD
FD00BC
BE00F8
7FABE0
1BFE40
ENDCHAR
STARTCHAR uni20B8
ENCODING 8376
SWIDTH 522 0
DWIDTH 13 0
BBX 18 18 0 0
BITMAP
0BFFFFFFF0
0555555550
0000000000
006FFFFFE0
07E6FFFFD0
1F42FDAA40
7E03F80000
BC03F40000
BC07F40000
B80BF00000
2C0BE00000
000FE00000
001FD00000
001FC00000
002FC00000
003F800000
003F400000
007F400000
ENDCHAR
STARTCHAR uni20B9
ENCODING 8377
SWIDTH 544 0
DWIDTH 13 0
BBX 13 19 1 -1
BITMAP
2FFFFFC0
056F9500
000BD000
7FFFFF40
1557E500
0007E000
000FC000
007E0000
BFF80000
16FF0000
007F4000
003F8000
003F4000
007F0000
00BF0000
00FE0000
00FE0000
00FE0000
00690000
ENDCHAR
STARTCHAR uni20BA
ENCODING 8378
SWIDTH 455 0
DWIDTH 11 0
BBX 13 18 0 0
BITMAP
002F8000
003F8000
003F4000
007F0000
00BF6400
00BF9000
06FD0400
7EFDBC00
11FF9000
07F80000
2FF80F00
13F40B80
07F00B80
0BF00F40
0BE02F00
0FD1F800
1FFFD000
1FF90000
ENDCHAR
STARTCHAR uni20BD
ENCODING 8381
SWIDTH 573 0
DWIDTH 14 0
BBX 15 18 0 0
BITMAP
001BF900
01FA6F80
0B8147E0
2E2FC2F0
7C2F81F4
B83F42F0
B47F42F0
B4BF07E0
14BE0FC0
00FE7F00
2FFFF800
16FD0000
02FC0000
7FFFC000
17F94000
03F40000
07F00000
0BF00000
ENDCHAR
STARTCHAR uni2116
ENCODING 8470
SWIDTH 996 0
DWIDTH 24 0
BBX 24 18 0 0
BITMAP
006FD003D000
07FFE007C000
1F9FF00B81F8
3E1FF00B87DD
7C2FF40F4F4D
B83FF80F1F0D
B83FF81F2E0D
B87EFC2E2E1C
78B9FD2D2E74
04F8FD3D0FE0
00F4BE7C0100
01F0BF787FF8
02E07FB8BFF4
02E03FF40000
03D02FF00000
07C02FF00000
07C01FE00000
0B800FD00000
ENDCHAR
STARTCHAR uni2120
ENCODING 8480
SWIDTH 585 0
DWIDTH 14 0
BBX 11 7 2 10
BITMAP
054104
1CC72C
1D0B38
0B4B78
7697A4
62A774
2A1220
ENDCHAR
STARTCHAR trademark
ENCODING 8482
SWIDTH 379 0
DWIDTH 9 0
BBX 10 6 -1 10
BITMAP
180000
5A9960
491DA0
0C2D90
1C2E90
185DC0
ENDCHAR
STARTCHAR uni2126
ENCODING 8486
SWIDTH 745 0
DWIDTH 18 0
BBX 17 18 0 0
BITMAP
00006FE400
0007FFFD00
001F907F00
007D000F40
00F4000B80
02E0000780
03C0000780
0780000780
0B40000B80
0B40000B40
0B40000F00
0B40002D00
0780003800
03C000B000
02D002D000
00B40B4000
3FF82FFD00
7FF43FFD00
ENDCHAR
STARTCHAR uni212A
ENCODING 8490
SWIDTH 601 0
DWIDTH 14 0
BBX 16 18 0 0
BITMAP
001BD03D
02EFD0B8
1F5FC2E0
3D2F8780
B83F5E00
B43F7800
B47FE000
24BFFE00
00BE2F80
00FD1FC0
00FD1FC0
01FC1FC0
02F82F80
02F83F40
03F43F40
07F47F00
07F07F00
0BE02F40
ENDCHAR
ENDFONT
